<svg width="404" height="70" viewBox="0 0 404 70" fill="none" xmlns="http://www.w3.org/2000/svg">
<path d="M367.594 68.8477V0.488281H403.141V8.88672H376.09V30.5664H393.961V39.0625H376.09V60.4492H403.141V68.8477H367.594Z" fill="#ADADAD"/>
<path d="M322.625 68.8477V0.488281H331.121V68.8477H322.625ZM336.004 38.2812V29.9805H345.281C351.727 29.9154 355.014 26.3346 355.145 19.2383C355.079 12.3372 351.759 8.82161 345.184 8.69141H336.004V0.488281H346.551C346.941 0.488281 347.332 0.488281 347.723 0.488281C358.465 1.07422 363.836 7.32422 363.836 19.2383C363.836 22.819 363.413 25.9115 362.566 28.5156C360.418 34.9609 355.079 38.2161 346.551 38.2812H336.004Z" fill="#ADADAD"/>
<path d="M276.773 0.488281H285.562L300.992 44.1406V68.8477H292.301V44.2383L276.773 0.488281ZM299.625 24.4141L309.684 0.488281H318.473L304.312 37.5977H303.629L299.625 24.4141Z" fill="#ADADAD"/>
<path d="M232.68 8.78906V0.488281H274.965V8.78906H258.07V68.8477H249.477V8.78906H232.68Z" fill="#ADADAD"/>
<path d="M185.359 49.8047V17.6758C185.359 14.2253 186.824 10.7096 189.754 7.12891C193.66 2.44141 198.608 0.0651042 204.598 0V8.49609C200.626 8.49609 197.534 10.5143 195.32 14.5508C194.409 16.3086 193.953 17.8711 193.953 19.2383V49.8047C193.953 53.9062 195.971 57.0964 200.008 59.375C201.701 60.3516 203.198 60.8398 204.5 60.8398V69.3359C200.789 69.3359 197.078 68.0013 193.367 65.332C188.094 61.4258 185.424 56.25 185.359 49.8047ZM209.871 69.3359V60.8398C212.15 60.8398 214.461 59.8307 216.805 57.8125C219.279 55.599 220.548 52.9297 220.613 49.8047V19.2383C220.613 16.6992 219.572 14.2578 217.488 11.9141C215.34 9.70052 212.801 8.5612 209.871 8.49609V0C216.447 0 221.72 2.83203 225.691 8.49609C227.97 11.7513 229.109 14.8112 229.109 17.6758V49.8047C229.109 57.0312 225.887 62.5651 219.441 66.4062C216.056 68.3594 212.866 69.3359 209.871 69.3359Z" fill="#ADADAD"/>
<path d="M139.609 8.78906V0.488281H181.895V8.78906H165V68.8477H156.406V8.78906H139.609Z" fill="#ADADAD"/>
<path d="M92.2969 49.8047V17.6758C92.2969 14.2253 93.7617 10.7096 96.6914 7.12891C100.598 2.44141 105.546 0.0651042 111.535 0V8.49609C107.564 8.49609 104.471 10.5143 102.258 14.5508C101.346 16.3086 100.891 17.8711 100.891 19.2383V49.8047C100.891 53.9062 102.909 57.0964 106.945 59.375C108.638 60.3516 110.135 60.8398 111.438 60.8398V69.3359C107.727 69.3359 104.016 68.0013 100.305 65.332C95.0312 61.4258 92.362 56.25 92.2969 49.8047ZM116.809 69.3359V60.8398C119.087 60.8398 121.398 59.8307 123.742 57.8125C126.216 55.599 127.486 52.9297 127.551 49.8047V19.2383C127.551 16.6992 126.509 14.2578 124.426 11.9141C122.277 9.70052 119.738 8.5612 116.809 8.49609V0C123.384 0 128.658 2.83203 132.629 8.49609C134.908 11.7513 136.047 14.8112 136.047 17.6758V49.8047C136.047 57.0312 132.824 62.5651 126.379 66.4062C122.993 68.3594 119.803 69.3359 116.809 69.3359Z" fill="#ADADAD"/>
<path d="M45.0781 68.8477V0.488281H53.5742V68.8477H45.0781ZM58.457 39.2578V31.543H67.3438C74.2448 31.4128 77.7279 27.5716 77.793 20.0195C77.6628 12.2721 73.724 8.36589 65.9766 8.30078H58.457V0.488281H67.5391C76.9792 0.813802 82.806 4.7526 85.0195 12.3047C85.6706 14.4531 85.9961 16.7969 85.9961 19.3359C85.931 26.888 83.6849 32.194 79.2578 35.2539C83.0339 37.2721 85.3125 40.9505 86.0938 46.2891C86.1589 46.7448 86.224 47.2005 86.2891 47.6562L87.9492 68.8477H79.9414L78.4766 51.4648C77.9557 45.8659 76.5234 42.2852 74.1797 40.7227C72.6172 39.681 70.5013 39.1927 67.832 39.2578H58.457Z" fill="#ADADAD"/>
<path d="M0 68.8477V0.488281H8.49609V68.8477H0ZM13.3789 38.2812V29.9805H22.6562C29.1016 29.9154 32.3893 26.3346 32.5195 19.2383C32.4544 12.3372 29.1341 8.82161 22.5586 8.69141H13.3789V0.488281H23.9258C24.3164 0.488281 24.707 0.488281 25.0977 0.488281C35.8398 1.07422 41.2109 7.32422 41.2109 19.2383C41.2109 22.819 40.7878 25.9115 39.9414 28.5156C37.793 34.9609 32.4544 38.2161 23.9258 38.2812H13.3789Z" fill="#ADADAD"/>
</svg>
