<svg width="790" height="73" viewBox="0 0 790 73" fill="none" xmlns="http://www.w3.org/2000/svg">
<path d="M748.281 2.05078H757.07L772.5 45.7031V70.4102H763.809V45.8008L748.281 2.05078ZM771.133 25.9766L781.191 2.05078H789.98L775.82 39.1602H775.137L771.133 25.9766Z" fill="#ADADAD"/>
<path d="M702.039 51.6597V19.2378C702.299 15.2665 703.96 11.4904 707.02 7.90968C710.861 3.67791 715.646 1.56203 721.375 1.56203V9.96046C717.469 10.0256 714.474 11.7183 712.391 15.0386C711.219 16.9266 710.633 18.8472 710.633 20.8003V51.6597C710.633 56.0868 712.911 59.342 717.469 61.4253C719.031 62.1415 720.333 62.4995 721.375 62.4995V70.898C717.469 70.898 713.628 69.5308 709.852 66.7964C704.708 63.0204 702.104 57.9748 702.039 51.6597ZM726.16 70.898V62.4995C728.113 62.4995 730.229 61.3928 732.508 59.1792C734.721 56.9006 735.861 54.4592 735.926 51.855V43.8472H726.16V35.937H744.52V53.2222C744.52 57.1935 742.501 61.1323 738.465 65.0386C734.363 68.8797 730.262 70.8329 726.16 70.898ZM726.16 9.96046V1.56203C731.108 1.49692 735.535 3.58026 739.441 7.81203C742.827 11.5881 744.52 15.6571 744.52 20.0191L736.219 23.0464C736.219 22.9813 736.219 22.8836 736.219 22.7534C736.219 22.6232 736.219 22.493 736.219 22.3628C736.219 22.1675 736.186 21.9722 736.121 21.7769C736.121 21.5816 736.121 21.3862 736.121 21.1909C736.121 20.9956 736.121 20.8329 736.121 20.7027V20.5073C735.796 15.95 733.647 12.7274 729.676 10.8394C728.439 10.3185 727.267 10.0256 726.16 9.96046Z" fill="#ADADAD"/>
<path d="M660.875 70.4102V2.05078H696.422V10.4492H669.371V32.1289H687.242V40.625H669.371V62.0117H696.422V70.4102H660.875Z" fill="#ADADAD"/>
<path d="M614.922 10.3516V2.05078H657.207V10.3516H640.312V70.4102H631.719V10.3516H614.922Z" fill="#ADADAD"/>
<path d="M571.711 70.4102L584.699 12.6953H586.262L589.582 27.832L580.109 70.4102H571.711ZM587.336 59.4727L589.191 51.1719H599.641L588.801 2.14844H597.297L612.727 70.4102H604.23L601.789 59.4727H587.336Z" fill="#ADADAD"/>
<path d="M525.273 70.4102V2.05078H533.77V70.4102H525.273ZM538.652 40.8203V33.1055H547.539C554.44 32.9753 557.923 29.1341 557.988 21.582C557.858 13.8346 553.919 9.92839 546.172 9.86328H538.652V2.05078H547.734C557.174 2.3763 563.001 6.3151 565.215 13.8672C565.866 16.0156 566.191 18.3594 566.191 20.8984C566.126 28.4505 563.88 33.7565 559.453 36.8164C563.229 38.8346 565.508 42.513 566.289 47.8516C566.354 48.3073 566.419 48.763 566.484 49.2188L568.145 70.4102H560.137L558.672 53.0273C558.151 47.4284 556.719 43.8477 554.375 42.2852C552.812 41.2435 550.697 40.7552 548.027 40.8203H538.652Z" fill="#ADADAD"/>
<path d="M479.227 10.3516V2.05078H521.512V10.3516H504.617V70.4102H496.023V10.3516H479.227Z" fill="#ADADAD"/>
<path d="M433.859 54.9805L441.672 52.2461C442.062 54.9805 443.104 57.2266 444.797 58.9844C446.555 60.7422 448.215 61.8164 449.777 62.207L452.023 62.793V70.7031C446.294 70.7031 441.477 68.2617 437.57 63.3789C435.161 60.319 433.924 57.5195 433.859 54.9805ZM434.641 20.5078C434.641 13.4766 437.668 8.20312 443.723 4.6875C446.717 2.92969 449.484 2.05078 452.023 2.05078V10.0586C449.745 10.319 447.596 11.5234 445.578 13.6719C443.755 15.6901 442.844 18.0013 442.844 20.6055C442.844 24.5768 445.708 27.5716 451.438 29.5898C452.87 30.0456 455.051 30.6641 457.98 31.4453C461.04 32.2917 463.189 32.9427 464.426 33.3984C470.285 35.8073 474.029 39.0951 475.656 43.2617C476.503 45.3451 476.926 47.6888 476.926 50.293C476.926 55.957 474.745 60.8724 470.383 65.0391C466.411 68.8151 461.919 70.7031 456.906 70.7031V62.793C459.576 62.6628 462.147 61.3932 464.621 58.9844C467.095 56.4453 468.365 53.5482 468.43 50.293C468.43 45.7357 465.272 42.4154 458.957 40.332C457.59 39.8763 455.507 39.3229 452.707 38.6719C449.712 37.9557 447.694 37.3698 446.652 36.9141C441.118 34.6354 437.57 31.6406 436.008 27.9297C435.096 25.7812 434.641 23.3073 434.641 20.5078ZM456.906 10.0586V2.05078C462.57 2.05078 467.29 4.55729 471.066 9.57031C472.954 12.1094 473.996 14.388 474.191 16.4062L466.281 19.043C465.37 14.4857 462.766 11.5885 458.469 10.3516C457.427 10.1562 456.906 10.0586 456.906 10.0586Z" fill="#ADADAD"/>
<path d="M382.688 72.168L399.777 0H407.59L390.598 72.168H382.688Z" fill="#ADADAD"/>
<path d="M315.5 70.4102V2.05078H323.996V31.8359H332.785V40.1367H323.996V70.4102H315.5ZM337.668 40.1367V31.8359H346.359V2.05078H354.953V70.4102H346.359V40.1367H337.668Z" fill="#ADADAD"/>
<path d="M267.984 52.7334V19.8233C267.984 16.9587 268.928 13.9314 270.816 10.7413C274.462 4.55636 279.996 1.49646 287.418 1.56156V9.96C284.293 10.0251 281.656 11.1319 279.508 13.2803C277.555 15.3636 276.578 17.5446 276.578 19.8233V52.7334C276.578 53.8402 276.936 55.1097 277.652 56.542C279.671 60.5134 282.926 62.4991 287.418 62.4991V70.8975C281.038 70.8324 275.96 68.4561 272.184 63.7686C269.384 60.1879 267.984 56.5095 267.984 52.7334ZM292.203 70.8975V62.4991L294.156 62.2061C295.458 62.0108 296.891 61.3272 298.453 60.1553C300.081 58.9834 301.188 57.4535 301.773 55.5655C302.034 54.8493 302.229 53.7426 302.359 52.2452C302.424 51.9196 302.457 51.3988 302.457 50.6827L310.562 52.6358C310.562 57.2582 308.902 61.3597 305.582 64.9405C301.871 68.9118 297.411 70.8975 292.203 70.8975ZM292.203 9.96V1.56156C296.565 1.56156 300.634 3.28682 304.41 6.73735C308.512 10.6436 310.562 15.0707 310.562 20.0186L302.359 22.167V20.6045C302.229 19.3024 302.034 18.2608 301.773 17.4795C300.536 14.2894 298.29 12.0108 295.035 10.6436C293.147 10.1879 292.203 9.96 292.203 9.96Z" fill="#ADADAD"/>
<path d="M220.766 70.4102V2.05078H229.262V70.4102H220.766ZM234.145 40.8203V33.1055H243.031C249.932 32.9753 253.415 29.1341 253.48 21.582C253.35 13.8346 249.411 9.92839 241.664 9.86328H234.145V2.05078H243.227C252.667 2.3763 258.493 6.3151 260.707 13.8672C261.358 16.0156 261.684 18.3594 261.684 20.8984C261.618 28.4505 259.372 33.7565 254.945 36.8164C258.721 38.8346 261 42.513 261.781 47.8516C261.846 48.3073 261.911 48.763 261.977 49.2188L263.637 70.4102H255.629L254.164 53.0273C253.643 47.4284 252.211 43.8477 249.867 42.2852C248.305 41.2435 246.189 40.7552 243.52 40.8203H234.145Z" fill="#ADADAD"/>
<path d="M175.203 70.4102L188.191 12.6953H189.754L193.074 27.832L183.602 70.4102H175.203ZM190.828 59.4727L192.684 51.1719H203.133L192.293 2.14844H200.789L216.219 70.4102H207.723L205.281 59.4727H190.828Z" fill="#ADADAD"/>
<path d="M134.828 70.4102V2.05078H170.375V10.4492H143.324V32.1289H161.195V40.625H143.324V62.0117H170.375V70.4102H134.828Z" fill="#ADADAD"/>
<path d="M87.2188 54.9805L95.0312 52.2461C95.4219 54.9805 96.4635 57.2266 98.1562 58.9844C99.9141 60.7422 101.574 61.8164 103.137 62.207L105.383 62.793V70.7031C99.6536 70.7031 94.8359 68.2617 90.9297 63.3789C88.5208 60.319 87.2839 57.5195 87.2188 54.9805ZM88 20.5078C88 13.4766 91.0273 8.20312 97.082 4.6875C100.077 2.92969 102.844 2.05078 105.383 2.05078V10.0586C103.104 10.319 100.956 11.5234 98.9375 13.6719C97.1146 15.6901 96.2031 18.0013 96.2031 20.6055C96.2031 24.5768 99.0677 27.5716 104.797 29.5898C106.229 30.0456 108.41 30.6641 111.34 31.4453C114.4 32.2917 116.548 32.9427 117.785 33.3984C123.645 35.8073 127.388 39.0951 129.016 43.2617C129.862 45.3451 130.285 47.6888 130.285 50.293C130.285 55.957 128.104 60.8724 123.742 65.0391C119.771 68.8151 115.279 70.7031 110.266 70.7031V62.793C112.935 62.6628 115.507 61.3932 117.98 58.9844C120.454 56.4453 121.724 53.5482 121.789 50.293C121.789 45.7357 118.632 42.4154 112.316 40.332C110.949 39.8763 108.866 39.3229 106.066 38.6719C103.072 37.9557 101.053 37.3698 100.012 36.9141C94.4779 34.6354 90.9297 31.6406 89.3672 27.9297C88.4557 25.7812 88 23.3073 88 20.5078ZM110.266 10.0586V2.05078C115.93 2.05078 120.65 4.55729 124.426 9.57031C126.314 12.1094 127.355 14.388 127.551 16.4062L119.641 19.043C118.729 14.4857 116.125 11.5885 111.828 10.3516C110.786 10.1562 110.266 10.0586 110.266 10.0586Z" fill="#ADADAD"/>
<path d="M47.4219 70.4102V2.05078H82.9688V10.4492H55.918V32.1289H73.7891V40.625H55.918V62.0117H82.9688V70.4102H47.4219Z" fill="#ADADAD"/>
<path d="M0 70.4102V2.05078H8.49609V70.4102H0ZM13.3789 40.8203V33.1055H22.2656C29.1667 32.9753 32.6497 29.1341 32.7148 21.582C32.5846 13.8346 28.6458 9.92839 20.8984 9.86328H13.3789V2.05078H22.4609C31.901 2.3763 37.7279 6.3151 39.9414 13.8672C40.5924 16.0156 40.918 18.3594 40.918 20.8984C40.8529 28.4505 38.6068 33.7565 34.1797 36.8164C37.9557 38.8346 40.2344 42.513 41.0156 47.8516C41.0807 48.3073 41.1458 48.763 41.2109 49.2188L42.8711 70.4102H34.8633L33.3984 53.0273C32.8776 47.4284 31.4453 43.8477 29.1016 42.2852C27.5391 41.2435 25.4232 40.7552 22.7539 40.8203H13.3789Z" fill="#ADADAD"/>
</svg>
