<svg width="878" height="70" viewBox="0 0 878 70" fill="none" xmlns="http://www.w3.org/2000/svg">
<path d="M833.781 68.8496V15.4316H834.562L842.277 27.9316V68.8496H833.781ZM833.781 5.95898V0.490234H841.105L877.238 58.4004V68.8496H873.039L833.781 5.95898ZM868.742 36.2324V0.490234H877.238V48.7324H876.457L868.742 36.2324Z" fill="black"/>
<path d="M785.594 50.0991V17.6773C785.854 13.7059 787.514 9.92987 790.574 6.34914C794.415 2.11736 799.201 0.00147964 804.93 0.00147964V8.39992C801.023 8.46502 798.029 10.1577 795.945 13.478C794.773 15.3661 794.188 17.2866 794.188 19.2398V50.0991C794.188 54.5262 796.466 57.7814 801.023 59.8648C802.586 60.5809 803.888 60.939 804.93 60.939V69.3374C801.023 69.3374 797.182 67.9702 793.406 65.2359C788.263 61.4598 785.659 56.4142 785.594 50.0991ZM809.715 69.3374V60.939C811.668 60.939 813.784 59.8322 816.062 57.6187C818.276 55.34 819.415 52.8986 819.48 50.2944V42.2866H809.715V34.3765H828.074V51.6616C828.074 55.633 826.056 59.5718 822.02 63.478C817.918 67.3192 813.816 69.2723 809.715 69.3374ZM809.715 8.39992V0.00147964C814.663 -0.0636245 819.09 2.01971 822.996 6.25148C826.382 10.0275 828.074 14.0965 828.074 18.4585L819.773 21.4859C819.773 21.4208 819.773 21.3231 819.773 21.1929C819.773 21.0627 819.773 20.9325 819.773 20.8023C819.773 20.6069 819.741 20.4116 819.676 20.2163C819.676 20.021 819.676 19.8257 819.676 19.6304C819.676 19.4351 819.676 19.2723 819.676 19.1421V18.9468C819.35 14.3895 817.202 11.1668 813.23 9.27882C811.993 8.75799 810.822 8.46502 809.715 8.39992Z" fill="black"/>
<path d="M771.188 68.8496V0.490234H779.684V68.8496H771.188Z" fill="black"/>
<path d="M723.477 53.4199L731.289 50.6855C731.68 53.4199 732.721 55.666 734.414 57.4238C736.172 59.1816 737.832 60.2559 739.395 60.6465L741.641 61.2324V69.1426C735.911 69.1426 731.094 66.7012 727.188 61.8184C724.779 58.7585 723.542 55.959 723.477 53.4199ZM724.258 18.9473C724.258 11.916 727.285 6.64258 733.34 3.12695C736.335 1.36914 739.102 0.490234 741.641 0.490234V8.49805C739.362 8.75846 737.214 9.96289 735.195 12.1113C733.372 14.1296 732.461 16.4408 732.461 19.0449C732.461 23.0163 735.326 26.0111 741.055 28.0293C742.487 28.485 744.668 29.1035 747.598 29.8848C750.658 30.7311 752.806 31.3822 754.043 31.8379C759.902 34.2467 763.646 37.5345 765.273 41.7012C766.12 43.7845 766.543 46.1283 766.543 48.7324C766.543 54.3965 764.362 59.3118 760 63.4785C756.029 67.2546 751.536 69.1426 746.523 69.1426V61.2324C749.193 61.1022 751.764 59.8327 754.238 57.4238C756.712 54.8848 757.982 51.9876 758.047 48.7324C758.047 44.1751 754.889 40.8548 748.574 38.7715C747.207 38.3158 745.124 37.7624 742.324 37.1113C739.329 36.3952 737.311 35.8092 736.27 35.3535C730.736 33.0749 727.188 30.0801 725.625 26.3691C724.714 24.2207 724.258 21.7467 724.258 18.9473ZM746.523 8.49805V0.490234C752.188 0.490234 756.908 2.99674 760.684 8.00977C762.572 10.5488 763.613 12.8275 763.809 14.8457L755.898 17.4824C754.987 12.9251 752.383 10.028 748.086 8.79102C747.044 8.5957 746.523 8.49805 746.523 8.49805Z" fill="black"/>
<path d="M683.68 68.8496V0.490234H719.227V8.88867H692.176V30.5684H710.047V39.0645H692.176V60.4512H719.227V68.8496H683.68Z" fill="black"/>
<path d="M639.586 68.8496V0.490234H648.082V68.8496H639.586ZM652.965 68.8496V60.4512C659.605 60.4512 664.065 59.4095 666.344 57.3262C668.297 55.5033 669.273 52.9316 669.273 49.6113V19.7285C669.273 13.9993 665.986 10.5488 659.41 9.37695C657.587 9.05143 655.439 8.88867 652.965 8.88867V0.490234C664.553 0.490234 672.138 3.87565 675.719 10.6465C677.151 13.2507 677.867 16.278 677.867 19.7285V49.6113C677.867 61.8509 670.413 68.2637 655.504 68.8496C654.658 68.8496 653.811 68.8496 652.965 68.8496Z" fill="black"/>
<path d="M576.789 68.8496V0.490234H612.336V8.88867H585.285V30.5684H603.156V39.0645H585.285V60.4512H612.336V68.8496H576.789Z" fill="black"/>
<path d="M529.18 51.1729V18.2627C529.18 15.3982 530.124 12.3708 532.012 9.18071C535.658 2.99581 541.191 -0.0640869 548.613 0.00101725V8.39946C545.488 8.46456 542.852 9.57133 540.703 11.7198C538.75 13.8031 537.773 15.9841 537.773 18.2627V51.1729C537.773 52.2797 538.132 53.5492 538.848 54.9815C540.866 58.9528 544.121 60.9385 548.613 60.9385V69.337C542.233 69.2718 537.155 66.8955 533.379 62.208C530.579 58.6273 529.18 54.9489 529.18 51.1729ZM553.398 69.337V60.9385L555.352 60.6455C556.654 60.4502 558.086 59.7666 559.648 58.5948C561.276 57.4229 562.383 55.8929 562.969 54.0049C563.229 53.2888 563.424 52.182 563.555 50.6846C563.62 50.3591 563.652 49.8383 563.652 49.1221L571.758 51.0752C571.758 55.6976 570.098 59.7992 566.777 63.3799C563.066 67.3513 558.607 69.337 553.398 69.337ZM553.398 8.39946V0.00101725C557.76 0.00101725 561.829 1.72628 565.605 5.1768C569.707 9.08305 571.758 13.5101 571.758 18.458L563.555 20.6065V19.044C563.424 17.7419 563.229 16.7002 562.969 15.919C561.732 12.7289 559.486 10.4502 556.23 9.08305C554.342 8.62732 553.398 8.39946 553.398 8.39946Z" fill="black"/>
<path d="M479.812 68.8496V15.4316H480.594L488.309 27.9316V68.8496H479.812ZM479.812 5.95898V0.490234H487.137L523.27 58.4004V68.8496H519.07L479.812 5.95898ZM514.773 36.2324V0.490234H523.27V48.7324H522.488L514.773 36.2324Z" fill="black"/>
<path d="M438.359 68.8496V0.490234H473.906V8.88867H446.855V30.5684H464.727V39.0645H446.855V60.4512H473.906V68.8496H438.359Z" fill="black"/>
<path d="M423.75 68.8496V0.490234H432.246V68.8496H423.75Z" fill="black"/>
<path d="M376.242 68.8496V0.490234H384.738V68.8496H376.242ZM389.621 39.2598V31.5449H398.508C405.409 31.4147 408.892 27.5736 408.957 20.0215C408.827 12.2741 404.888 8.36784 397.141 8.30273H389.621V0.490234H398.703C408.143 0.815755 413.97 4.75456 416.184 12.3066C416.835 14.4551 417.16 16.7988 417.16 19.3379C417.095 26.89 414.849 32.196 410.422 35.2559C414.198 37.2741 416.477 40.9525 417.258 46.291C417.323 46.7467 417.388 47.2025 417.453 47.6582L419.113 68.8496H411.105L409.641 51.4668C409.12 45.8678 407.688 42.2871 405.344 40.7246C403.781 39.6829 401.665 39.1947 398.996 39.2598H389.621Z" fill="black"/>
<path d="M334.781 68.8496V0.490234H370.328V8.88867H343.277V30.5684H361.148V39.0645H343.277V60.4512H370.328V68.8496H334.781Z" fill="black"/>
<path d="M289.812 68.8496V0.490234H298.309V68.8496H289.812ZM303.191 38.2832V29.9824H312.469C318.914 29.9173 322.202 26.3366 322.332 19.2402C322.267 12.3392 318.947 8.82357 312.371 8.69336H303.191V0.490234H313.738C314.129 0.490234 314.52 0.490234 314.91 0.490234C325.652 1.07617 331.023 7.32617 331.023 19.2402C331.023 22.821 330.6 25.9134 329.754 28.5176C327.605 34.9629 322.267 38.2181 313.738 38.2832H303.191Z" fill="black"/>
<path d="M245.234 68.8496L261.152 33.498L246.406 0.490234H254.707L265.352 23.0488L275.996 0.490234H284.297L269.551 33.498L285.469 68.8496H276.777L265.352 44.3379L253.926 68.8496H245.234Z" fill="black"/>
<path d="M205.625 68.8496V0.490234H241.172V8.88867H214.121V30.5684H231.992V39.0645H214.121V60.4512H241.172V68.8496H205.625Z" fill="black"/>
<path d="M136.781 68.8496V0.490234H145.277V68.8496H136.781ZM150.16 39.2598V31.5449H159.047C165.948 31.4147 169.431 27.5736 169.496 20.0215C169.366 12.2741 165.427 8.36784 157.68 8.30273H150.16V0.490234H159.242C168.682 0.815755 174.509 4.75456 176.723 12.3066C177.374 14.4551 177.699 16.7988 177.699 19.3379C177.634 26.89 175.388 32.196 170.961 35.2559C174.737 37.2741 177.016 40.9525 177.797 46.291C177.862 46.7467 177.927 47.2025 177.992 47.6582L179.652 68.8496H171.645L170.18 51.4668C169.659 45.8678 168.227 42.2871 165.883 40.7246C164.32 39.6829 162.204 39.1947 159.535 39.2598H150.16Z" fill="black"/>
<path d="M95.3203 68.8496V0.490234H130.867V8.88867H103.816V30.5684H121.688V39.0645H103.816V60.4512H130.867V68.8496H95.3203Z" fill="black"/>
<path d="M47.7109 53.4199L55.5234 50.6855C55.9141 53.4199 56.9557 55.666 58.6484 57.4238C60.4062 59.1816 62.0664 60.2559 63.6289 60.6465L65.875 61.2324V69.1426C60.1458 69.1426 55.3281 66.7012 51.4219 61.8184C49.013 58.7585 47.776 55.959 47.7109 53.4199ZM48.4922 18.9473C48.4922 11.916 51.5195 6.64258 57.5742 3.12695C60.569 1.36914 63.3359 0.490234 65.875 0.490234V8.49805C63.5964 8.75846 61.4479 9.96289 59.4297 12.1113C57.6068 14.1296 56.6953 16.4408 56.6953 19.0449C56.6953 23.0163 59.5599 26.0111 65.2891 28.0293C66.7214 28.485 68.9023 29.1035 71.832 29.8848C74.8919 30.7311 77.0404 31.3822 78.2773 31.8379C84.1367 34.2467 87.8802 37.5345 89.5078 41.7012C90.3542 43.7845 90.7773 46.1283 90.7773 48.7324C90.7773 54.3965 88.5964 59.3118 84.2344 63.4785C80.263 67.2546 75.7708 69.1426 70.7578 69.1426V61.2324C73.4271 61.1022 75.9987 59.8327 78.4727 57.4238C80.9466 54.8848 82.2161 51.9876 82.2812 48.7324C82.2812 44.1751 79.1237 40.8548 72.8086 38.7715C71.4414 38.3158 69.3581 37.7624 66.5586 37.1113C63.5638 36.3952 61.5456 35.8092 60.5039 35.3535C54.9701 33.0749 51.4219 30.0801 49.8594 26.3691C48.9479 24.2207 48.4922 21.7467 48.4922 18.9473ZM70.7578 8.49805V0.490234C76.4219 0.490234 81.1419 2.99674 84.918 8.00977C86.806 10.5488 87.8477 12.8275 88.043 14.8457L80.1328 17.4824C79.2214 12.9251 76.6172 10.028 72.3203 8.79102C71.2786 8.5957 70.7578 8.49805 70.7578 8.49805Z" fill="black"/>
<path d="M0 50.002V0.490234H8.59375V50.002C8.59375 54.2988 10.8398 57.5215 15.332 59.6699C16.9596 60.4512 18.3268 60.8418 19.4336 60.8418V69.3379C15.6576 69.3379 11.8815 68.0033 8.10547 65.334C2.76693 61.4928 0.0651042 56.3822 0 50.002ZM24.3164 69.3379V60.8418C26.4648 60.8418 28.6784 59.9629 30.957 58.2051C33.6914 56.0566 35.0911 53.3223 35.1562 50.002V0.490234H43.6523V50.002C43.6523 57.2936 40.3971 62.7949 33.8867 66.5059C30.5664 68.3939 27.3763 69.3379 24.3164 69.3379Z" fill="black"/>
</svg>
