<svg width="637" height="73" viewBox="0 0 637 73" fill="none" xmlns="http://www.w3.org/2000/svg">
<path d="M592.953 70.4102V16.9922H593.734L601.449 29.4922V70.4102H592.953ZM592.953 7.51953V2.05078H600.277L636.41 59.9609V70.4102H632.211L592.953 7.51953ZM627.914 37.793V2.05078H636.41V50.293H635.629L627.914 37.793Z" fill="#ADADAD"/>
<path d="M544.766 51.6597V19.2378C545.026 15.2665 546.686 11.4904 549.746 7.90968C553.587 3.67791 558.372 1.56203 564.102 1.56203V9.96046C560.195 10.0256 557.201 11.7183 555.117 15.0386C553.945 16.9266 553.359 18.8472 553.359 20.8003V51.6597C553.359 56.0868 555.638 59.342 560.195 61.4253C561.758 62.1415 563.06 62.4995 564.102 62.4995V70.898C560.195 70.898 556.354 69.5308 552.578 66.7964C547.435 63.0204 544.831 57.9748 544.766 51.6597ZM568.887 70.898V62.4995C570.84 62.4995 572.956 61.3928 575.234 59.1792C577.448 56.9006 578.587 54.4592 578.652 51.855V43.8472H568.887V35.937H587.246V53.2222C587.246 57.1935 585.228 61.1323 581.191 65.0386C577.09 68.8797 572.988 70.8329 568.887 70.898ZM568.887 9.96046V1.56203C573.835 1.49692 578.262 3.58026 582.168 7.81203C585.553 11.5881 587.246 15.6571 587.246 20.0191L578.945 23.0464C578.945 22.9813 578.945 22.8836 578.945 22.7534C578.945 22.6232 578.945 22.493 578.945 22.3628C578.945 22.1675 578.913 21.9722 578.848 21.7769C578.848 21.5816 578.848 21.3862 578.848 21.1909C578.848 20.9956 578.848 20.8329 578.848 20.7027V20.5073C578.522 15.95 576.374 12.7274 572.402 10.8394C571.165 10.3185 569.993 10.0256 568.887 9.96046Z" fill="#ADADAD"/>
<path d="M530.359 70.4102V2.05078H538.855V70.4102H530.359Z" fill="#ADADAD"/>
<path d="M482.648 54.9805L490.461 52.2461C490.852 54.9805 491.893 57.2266 493.586 58.9844C495.344 60.7422 497.004 61.8164 498.566 62.207L500.812 62.793V70.7031C495.083 70.7031 490.266 68.2617 486.359 63.3789C483.951 60.319 482.714 57.5195 482.648 54.9805ZM483.43 20.5078C483.43 13.4766 486.457 8.20312 492.512 4.6875C495.507 2.92969 498.273 2.05078 500.812 2.05078V10.0586C498.534 10.319 496.385 11.5234 494.367 13.6719C492.544 15.6901 491.633 18.0013 491.633 20.6055C491.633 24.5768 494.497 27.5716 500.227 29.5898C501.659 30.0456 503.84 30.6641 506.77 31.4453C509.829 32.2917 511.978 32.9427 513.215 33.3984C519.074 35.8073 522.818 39.0951 524.445 43.2617C525.292 45.3451 525.715 47.6888 525.715 50.293C525.715 55.957 523.534 60.8724 519.172 65.0391C515.201 68.8151 510.708 70.7031 505.695 70.7031V62.793C508.365 62.6628 510.936 61.3932 513.41 58.9844C515.884 56.4453 517.154 53.5482 517.219 50.293C517.219 45.7357 514.061 42.4154 507.746 40.332C506.379 39.8763 504.296 39.3229 501.496 38.6719C498.501 37.9557 496.483 37.3698 495.441 36.9141C489.908 34.6354 486.359 31.6406 484.797 27.9297C483.885 25.7812 483.43 23.3073 483.43 20.5078ZM505.695 10.0586V2.05078C511.359 2.05078 516.079 4.55729 519.855 9.57031C521.743 12.1094 522.785 14.388 522.98 16.4062L515.07 19.043C514.159 14.4857 511.555 11.5885 507.258 10.3516C506.216 10.1562 505.695 10.0586 505.695 10.0586Z" fill="#ADADAD"/>
<path d="M442.852 70.4102V2.05078H478.398V10.4492H451.348V32.1289H469.219V40.625H451.348V62.0117H478.398V70.4102H442.852Z" fill="#ADADAD"/>
<path d="M398.758 70.4102V2.05078H407.254V70.4102H398.758ZM412.137 70.4102V62.0117C418.777 62.0117 423.237 60.9701 425.516 58.8867C427.469 57.0638 428.445 54.4922 428.445 51.1719V21.2891C428.445 15.5599 425.158 12.1094 418.582 10.9375C416.759 10.612 414.611 10.4492 412.137 10.4492V2.05078C423.725 2.05078 431.31 5.4362 434.891 12.207C436.323 14.8112 437.039 17.8385 437.039 21.2891V51.1719C437.039 63.4115 429.585 69.8242 414.676 70.4102C413.829 70.4102 412.983 70.4102 412.137 70.4102Z" fill="#ADADAD"/>
<path d="M336.844 70.4102V2.05078H345.34V62.0117H373.562V70.4102H336.844Z" fill="#ADADAD"/>
<path d="M291.375 70.4102L304.363 12.6953H305.926L309.246 27.832L299.773 70.4102H291.375ZM307 59.4727L308.855 51.1719H319.305L308.465 2.14844H316.961L332.391 70.4102H323.895L321.453 59.4727H307Z" fill="#ADADAD"/>
<path d="M243.086 51.5625V2.05078H251.68V51.5625C251.68 55.8594 253.926 59.082 258.418 61.2305C260.046 62.0117 261.413 62.4023 262.52 62.4023V70.8984C258.743 70.8984 254.967 69.5638 251.191 66.8945C245.853 63.0534 243.151 57.9427 243.086 51.5625ZM267.402 70.8984V62.4023C269.551 62.4023 271.764 61.5234 274.043 59.7656C276.777 57.6172 278.177 54.8828 278.242 51.5625V2.05078H286.738V51.5625C286.738 58.8542 283.483 64.3555 276.973 68.0664C273.652 69.9544 270.462 70.8984 267.402 70.8984Z" fill="#ADADAD"/>
<path d="M195.969 54.9805L203.781 52.2461C204.172 54.9805 205.214 57.2266 206.906 58.9844C208.664 60.7422 210.324 61.8164 211.887 62.207L214.133 62.793V70.7031C208.404 70.7031 203.586 68.2617 199.68 63.3789C197.271 60.319 196.034 57.5195 195.969 54.9805ZM196.75 20.5078C196.75 13.4766 199.777 8.20312 205.832 4.6875C208.827 2.92969 211.594 2.05078 214.133 2.05078V10.0586C211.854 10.319 209.706 11.5234 207.688 13.6719C205.865 15.6901 204.953 18.0013 204.953 20.6055C204.953 24.5768 207.818 27.5716 213.547 29.5898C214.979 30.0456 217.16 30.6641 220.09 31.4453C223.15 32.2917 225.298 32.9427 226.535 33.3984C232.395 35.8073 236.138 39.0951 237.766 43.2617C238.612 45.3451 239.035 47.6888 239.035 50.293C239.035 55.957 236.854 60.8724 232.492 65.0391C228.521 68.8151 224.029 70.7031 219.016 70.7031V62.793C221.685 62.6628 224.257 61.3932 226.73 58.9844C229.204 56.4453 230.474 53.5482 230.539 50.293C230.539 45.7357 227.382 42.4154 221.066 40.332C219.699 39.8763 217.616 39.3229 214.816 38.6719C211.822 37.9557 209.803 37.3698 208.762 36.9141C203.228 34.6354 199.68 31.6406 198.117 27.9297C197.206 25.7812 196.75 23.3073 196.75 20.5078ZM219.016 10.0586V2.05078C224.68 2.05078 229.4 4.55729 233.176 9.57031C235.064 12.1094 236.105 14.388 236.301 16.4062L228.391 19.043C227.479 14.4857 224.875 11.5885 220.578 10.3516C219.536 10.1562 219.016 10.0586 219.016 10.0586Z" fill="#ADADAD"/>
<path d="M182.922 70.4102V2.05078H191.418V70.4102H182.922Z" fill="#ADADAD"/>
<path d="M135.414 2.05078H144.008L161.391 61.4258L158.266 70.4102H155.238L135.414 2.05078ZM159.242 38.2812L171.352 2.05078H179.945C179.359 3.9388 176.918 11.4909 172.621 24.707C167.608 40.0716 164.743 48.8932 164.027 51.1719H163.051L159.242 38.2812Z" fill="#ADADAD"/>
<path d="M85.7969 72.168L102.887 0H110.699L93.707 72.168H85.7969Z" fill="#ADADAD"/>
<path d="M49.375 70.4102V2.05078H57.8711V70.4102H49.375Z" fill="#ADADAD"/>
<path d="M0 51.5625V2.05078H8.59375V51.5625C8.59375 55.8594 10.8398 59.082 15.332 61.2305C16.9596 62.0117 18.3268 62.4023 19.4336 62.4023V70.8984C15.6576 70.8984 11.8815 69.5638 8.10547 66.8945C2.76693 63.0534 0.0651042 57.9427 0 51.5625ZM24.3164 70.8984V62.4023C26.4648 62.4023 28.6784 61.5234 30.957 59.7656C33.6914 57.6172 35.0911 54.8828 35.1562 51.5625V2.05078H43.6523V51.5625C43.6523 58.8542 40.3971 64.3555 33.8867 68.0664C30.5664 69.9544 27.3763 70.8984 24.3164 70.8984Z" fill="#ADADAD"/>
</svg>
