<svg width="352" height="113" viewBox="0 0 352 113" fill="none" xmlns="http://www.w3.org/2000/svg">
<path d="M346.5 5.5H4.5V108.5H346.5V5.5Z" fill="black" fill-opacity="0"/>
<path d="M346.5 5.5H4.5V108.5H346.5V5.5Z" fill="#D2F925" fill-opacity="0"/>
<path d="M347 5V109H4V5H347ZM5 108H346V6H5V108Z" fill="#E6EFFF" fill-opacity="0"/>
<path d="M298.075 99.6236C297.835 99.6236 297.427 99.4076 296.851 98.9756C296.707 98.8316 296.347 98.5196 295.771 98.0396C295.195 97.6076 294.667 97.1036 294.187 96.5276C293.659 95.9996 293.395 95.5437 293.395 95.1597C293.395 94.9197 293.635 94.4396 294.115 93.7197C294.595 93.0476 295.171 92.2557 295.843 91.3437C296.851 89.9517 298.075 88.2717 299.515 86.3036C301.003 84.3356 302.587 82.2237 304.267 79.9677C305.947 77.7597 307.627 75.5517 309.307 73.3437C310.987 71.0877 312.547 68.9996 313.987 67.0796C315.475 65.1116 316.723 63.4316 317.731 62.0396C318.787 60.5996 319.507 59.5917 319.891 59.0156C319.987 58.8717 319.819 59.0637 319.387 59.5917C318.955 60.0717 318.403 60.7197 317.731 61.5357C317.059 62.3037 316.411 63.0957 315.787 63.9116C315.211 64.6796 314.803 65.2557 314.563 65.6397C314.611 65.3997 314.899 64.9197 315.427 64.1997C315.955 63.4797 316.555 62.6637 317.227 61.7516C317.947 60.8397 318.595 59.9996 319.171 59.2316C319.795 58.4636 320.203 57.9356 320.395 57.6476C319.099 59.0876 317.563 60.6477 315.787 62.3277C314.059 63.9597 312.259 65.5916 310.387 67.2236C308.563 68.8557 306.859 70.3917 305.275 71.8317C303.739 73.2237 302.515 74.3997 301.603 75.3597C300.403 74.9757 299.539 74.3516 299.011 73.4876C298.531 72.5756 298.291 71.6636 298.291 70.7516C298.291 70.2237 298.363 69.7437 298.507 69.3117C299.035 68.2077 299.851 66.7917 300.955 65.0637C302.059 63.2877 303.235 61.4637 304.483 59.5917C305.731 57.7196 306.883 55.9916 307.939 54.4076C308.995 52.7756 309.763 51.5517 310.243 50.7357C310.099 50.4957 309.835 50.6877 309.451 51.3116C309.067 51.8877 308.635 52.6316 308.155 53.5436C307.675 54.4076 307.219 55.1996 306.787 55.9196C306.355 56.5916 306.067 56.9036 305.923 56.8556C305.923 56.8076 306.115 56.4236 306.499 55.7036C306.883 54.9836 307.315 54.1676 307.795 53.2556C308.323 52.2956 308.779 51.4557 309.163 50.7357C309.547 50.0157 309.739 49.6316 309.739 49.5837C309.643 49.3437 309.547 49.1277 309.451 48.9356C309.355 48.6957 309.307 48.5037 309.307 48.3597C309.307 47.8797 309.643 47.6396 310.315 47.6396C310.651 47.6396 311.107 47.7116 311.683 47.8556C312.019 47.9036 312.523 48.0476 313.195 48.2876C313.915 48.4796 314.587 48.8156 315.211 49.2956C315.835 49.7756 316.147 50.3996 316.147 51.1676C316.147 51.6956 315.979 52.2236 315.643 52.7516C315.067 53.4236 314.371 54.3836 313.555 55.6316C312.739 56.8316 311.899 58.1277 311.035 59.5197C310.171 60.8637 309.403 62.1117 308.731 63.2637C308.059 64.4157 307.579 65.2557 307.291 65.7837C308.155 65.1117 309.331 64.0316 310.819 62.5436C312.307 61.0556 313.915 59.3996 315.643 57.5756C317.371 55.7036 319.051 53.9037 320.683 52.1757C322.363 50.4477 323.803 49.0556 325.003 47.9996C325.723 48.2876 326.587 48.6716 327.595 49.1516C328.603 49.6317 329.419 50.1356 330.043 50.6636C330.667 51.1916 330.787 51.7196 330.403 52.2477C328.771 54.4557 327.331 56.3037 326.083 57.7917C324.835 59.2797 323.611 60.7437 322.411 62.1837C321.259 63.5757 319.915 65.2796 318.379 67.2956C317.035 69.0716 315.691 70.9197 314.347 72.8397C313.003 74.7117 311.683 76.5837 310.387 78.4557C308.803 80.7597 307.315 82.9677 305.923 85.0797C304.531 87.1917 303.211 89.1836 301.963 91.0556C302.011 90.8156 302.371 90.1197 303.043 88.9677C303.763 87.8157 304.603 86.4717 305.563 84.9357C306.523 83.4477 307.459 81.9836 308.371 80.5436C309.331 79.1036 310.123 77.9037 310.747 76.9437C311.371 75.9837 311.659 75.5277 311.611 75.5757C311.563 75.6237 311.251 76.0317 310.675 76.7997C310.147 77.5677 309.499 78.5037 308.731 79.6077C307.963 80.7117 307.243 81.7916 306.571 82.8476C305.899 83.9036 305.371 84.7677 304.987 85.4397C304.363 86.5437 303.691 87.6477 302.971 88.7517C302.299 89.8557 301.747 90.7677 301.315 91.4877C300.931 92.2557 300.835 92.6877 301.027 92.7837C301.747 92.4957 302.395 92.3517 302.971 92.3517C303.739 92.3517 304.267 92.5676 304.555 92.9996C304.747 93.2397 304.843 93.4557 304.843 93.6477C304.843 93.8397 304.627 93.9117 304.195 93.8637C303.907 93.8157 303.379 94.1037 302.611 94.7277C301.891 95.3517 301.267 95.9756 300.739 96.5996C300.259 97.2236 299.827 97.8716 299.443 98.5436C299.059 99.2636 298.603 99.6236 298.075 99.6236Z" fill="white"/>
<path d="M278.078 79.3204C277.022 78.4084 276.278 77.5444 275.846 76.7284C275.462 75.9604 275.27 75.2164 275.27 74.4964C275.27 74.2084 275.318 73.9444 275.414 73.7044C275.462 73.4164 275.51 73.1284 275.558 72.8404C275.798 72.1204 276.35 70.8964 277.214 69.1684C278.126 67.4404 279.206 65.4724 280.454 63.2644C281.75 61.0564 283.118 58.8244 284.558 56.5684C285.998 54.2644 287.366 52.2004 288.662 50.3764C288.23 50.4724 287.774 50.5444 287.294 50.5924C286.862 50.6404 286.43 50.6644 285.998 50.6644C284.798 50.6644 283.718 50.5924 282.758 50.4484C281.846 50.2564 281.318 50.1364 281.174 50.0884C280.694 49.9924 280.382 49.6804 280.238 49.1524C280.142 48.5764 280.118 48.0004 280.166 47.4244C280.022 47.3764 279.926 47.3044 279.878 47.2084C279.83 47.1124 279.782 47.0404 279.734 46.9924C279.734 46.8964 279.71 46.8004 279.662 46.7044C279.662 46.6084 279.662 46.5124 279.662 46.4164C279.662 45.9364 279.782 45.6244 280.022 45.4804C280.31 45.3364 280.622 45.2644 280.958 45.2644C281.342 45.2644 281.75 45.3124 282.182 45.4084C282.662 45.4564 283.142 45.4804 283.622 45.4804C284.438 45.4804 285.302 45.4084 286.214 45.2644C287.126 45.0724 287.654 44.8324 287.798 44.5444C287.942 44.2564 288.086 44.1124 288.23 44.1124C288.326 44.1124 288.47 44.3764 288.662 44.9044C288.662 44.9524 288.662 45.0004 288.662 45.0484C288.71 45.0964 288.734 45.1684 288.734 45.2644C288.734 45.6964 288.542 46.1524 288.158 46.6324H291.254C292.07 45.5764 292.958 44.4004 293.918 43.1044C294.926 41.7604 295.91 40.4404 296.87 39.1444C297.878 37.8004 298.766 36.6004 299.534 35.5444C300.35 34.4884 300.95 33.6724 301.334 33.0964C301.142 32.9044 301.046 32.6644 301.046 32.3764C301.046 31.9924 301.142 31.6084 301.334 31.2244C301.574 30.8404 301.694 30.5524 301.694 30.3604C301.694 30.2164 301.646 30.0484 301.55 29.8564C301.502 29.6644 301.478 29.4964 301.478 29.3524C301.478 28.9684 301.694 28.7764 302.126 28.7764C302.222 28.7764 302.462 28.8244 302.846 28.9204C303.47 29.1124 304.262 29.4964 305.222 30.0724C306.23 30.6484 307.094 31.2964 307.814 32.0164C308.534 32.7364 308.75 33.4804 308.462 34.2484C308.126 34.6324 307.526 35.3044 306.662 36.2644C305.846 37.2244 304.91 38.3284 303.854 39.5764C302.798 40.7764 301.742 42.0244 300.686 43.3204C299.678 44.5684 298.766 45.7204 297.95 46.7764C299.246 46.6804 300.566 46.6084 301.91 46.5604C303.302 46.5124 304.526 46.4644 305.582 46.4164C306.686 46.3684 307.406 46.3444 307.742 46.3444C308.606 46.3444 309.038 46.4644 309.038 46.7044C309.038 46.8964 308.846 47.0884 308.462 47.2804C308.078 47.4724 307.67 47.6164 307.238 47.7124C307.19 47.6644 306.518 47.7124 305.222 47.8564C303.974 48.0004 302.726 48.1444 301.478 48.2884C300.902 48.3364 300.158 48.4084 299.246 48.5044C298.382 48.5524 297.542 48.6004 296.726 48.6484L296.438 48.9364C297.494 48.8884 298.67 48.8404 299.966 48.7924C301.31 48.6964 302.366 48.6484 303.134 48.6484C302.318 48.7924 301.238 48.9124 299.894 49.0084C298.55 49.0564 297.254 49.1764 296.006 49.3684C295.046 50.4244 293.966 51.7444 292.766 53.3284C291.614 54.8644 290.39 56.5204 289.094 58.2964C287.846 60.0244 286.646 61.7284 285.494 63.4084C284.342 65.0404 283.31 66.5044 282.398 67.8004C281.486 69.0964 280.79 70.0564 280.31 70.6804C280.982 70.4404 281.774 70.1044 282.686 69.6724C283.598 69.1924 284.51 68.6884 285.422 68.1604C287.534 66.7684 289.79 65.2564 292.19 63.6244C294.638 61.9924 296.774 60.5764 298.598 59.3764C299.75 58.6564 300.878 57.8884 301.982 57.0724C303.134 56.2084 304.238 55.3204 305.294 54.4084C305.39 54.3124 305.438 54.3124 305.438 54.4084C305.486 54.5044 305.462 54.6004 305.366 54.6964L302.63 57.1444C302.678 57.3364 302.702 57.5284 302.702 57.7204C302.702 57.8644 302.702 58.0324 302.702 58.2244C302.702 58.6564 302.63 59.0644 302.486 59.4484C302.39 59.8324 302.174 60.1444 301.838 60.3844C301.022 60.9124 299.774 61.7764 298.094 62.9764C296.462 64.1764 294.614 65.5684 292.55 67.1524C290.486 68.6884 288.446 70.2484 286.43 71.8324C284.462 73.4164 282.71 74.8804 281.174 76.2244C279.638 77.5684 278.606 78.6004 278.078 79.3204ZM279.302 72.1204L282.758 69.9604L279.806 71.3284L279.302 72.1204Z" fill="white"/>
<path d="M275.11 45.4799C274.486 45.1919 273.838 44.6399 273.166 43.8239C272.494 43.0079 272.158 42.3119 272.158 41.7359C272.158 41.2559 272.374 41.0159 272.806 41.0159C273.046 41.0159 273.334 41.0639 273.67 41.1599C274.006 41.2079 274.342 41.2319 274.678 41.2319C275.11 41.2319 275.59 41.0879 276.118 40.7999C276.646 40.4639 277.174 40.2959 277.702 40.2959C278.374 40.2959 278.902 40.7519 279.286 41.6639C279.43 41.9039 279.31 42.2399 278.926 42.6719C278.542 43.1039 278.086 43.5119 277.558 43.8959C277.078 44.2799 276.67 44.5679 276.334 44.7599C276.574 44.7599 276.958 44.5919 277.486 44.2559C278.014 43.8719 278.446 43.5119 278.782 43.1759C278.158 43.9439 277.438 44.5439 276.622 44.9759C275.806 45.3599 275.302 45.5279 275.11 45.4799ZM259.486 74.7839C258.622 74.0159 258.022 73.3919 257.686 72.9119C257.398 72.3839 257.254 71.9039 257.254 71.4719C257.254 71.1359 257.302 70.7999 257.398 70.4639C257.542 70.1279 257.662 69.7679 257.758 69.3839C258.286 67.6079 259.15 65.6879 260.35 63.6239C261.55 61.5599 262.846 59.5439 264.238 57.5759C265.678 55.5599 266.95 53.7839 268.054 52.2479C267.958 52.1519 267.91 51.8639 267.91 51.3839C267.91 50.7119 268.03 49.9679 268.27 49.1519C268.558 48.2879 268.942 47.9519 269.422 48.1439C269.998 48.2879 270.67 48.5759 271.438 49.0079C272.254 49.4399 272.974 49.9439 273.598 50.5199C274.222 51.0959 274.534 51.7199 274.534 52.3919C274.534 52.5359 274.486 52.7519 274.39 53.0399H274.318C273.07 54.3839 271.846 55.8719 270.646 57.5039C269.446 59.1359 268.39 60.6719 267.478 62.1119C266.614 63.5039 266.014 64.5599 265.678 65.2799C265.966 65.1359 266.278 64.9439 266.614 64.7039C266.95 64.4639 267.31 64.1759 267.694 63.8399C267.454 63.9839 267.238 64.0799 267.046 64.1279C266.902 64.1759 266.878 64.1759 266.974 64.1279C268.222 63.1199 269.662 62.0879 271.294 61.0319C272.974 59.9759 274.678 59.0159 276.406 58.1519C278.134 57.2399 279.766 56.4959 281.302 55.9199H281.446C281.542 55.9199 281.47 55.9919 281.23 56.1359C281.038 56.2319 280.774 56.3519 280.438 56.4959C280.102 56.6399 279.646 56.8799 279.07 57.2159C278.494 57.5039 277.846 57.8639 277.126 58.2959C277.798 58.0079 278.494 57.6719 279.214 57.2879C279.934 56.9039 280.678 56.5919 281.446 56.3519C281.686 56.2559 281.902 56.1839 282.094 56.1359C282.334 56.0879 282.502 56.0639 282.598 56.0639C282.934 56.0639 283.102 56.1839 283.102 56.4239C283.102 56.7599 282.766 57.2399 282.094 57.8639C281.422 58.4879 280.558 59.0879 279.502 59.6639C278.878 59.9999 277.894 60.6239 276.55 61.5359C275.254 62.4479 273.766 63.5279 272.086 64.7759C270.406 65.9759 268.702 67.2239 266.974 68.5199C265.294 69.8159 263.782 71.0159 262.438 72.1199C261.094 73.2239 260.11 74.1119 259.486 74.7839ZM267.694 63.8399C267.934 63.7439 268.174 63.6239 268.414 63.4799C268.702 63.2879 268.894 63.1679 268.99 63.1199C269.902 62.4959 271.102 61.7759 272.59 60.9599C274.126 60.0959 275.638 59.2079 277.126 58.2959C274.726 59.4479 272.83 60.4559 271.438 61.3199C270.046 62.1839 268.798 63.0239 267.694 63.8399Z" fill="white"/>
<path d="M235.746 74.9999C234.93 74.9039 234.282 74.4479 233.802 73.6319C233.322 72.7679 233.082 71.9519 233.082 71.1839C233.082 70.5599 233.418 69.5759 234.09 68.2319C234.81 66.8879 235.698 65.3759 236.754 63.6959C237.858 61.9679 238.986 60.2879 240.138 58.6559C241.338 56.9759 242.394 55.4879 243.306 54.1919C244.266 52.8959 244.938 51.9839 245.322 51.4559C244.698 52.0319 244.122 52.6079 243.594 53.1839C243.066 53.7599 242.754 54.0479 242.658 54.0479C242.61 54.0479 242.85 53.6159 243.378 52.7519C243.954 51.8399 245.058 50.2079 246.69 47.8559C247.17 47.8559 247.746 48.1199 248.418 48.6479C249.09 49.1759 249.69 49.7759 250.218 50.4479C250.746 51.1199 251.01 51.6959 251.01 52.1759C250.482 53.0399 249.642 54.1439 248.49 55.4879C247.386 56.7839 246.21 58.1279 244.962 59.5199C243.762 60.9119 242.682 62.1839 241.722 63.3359C241.866 63.1919 242.442 62.6879 243.45 61.8239C244.506 60.9599 245.802 59.8799 247.338 58.5839C248.874 57.2879 250.506 55.9199 252.234 54.4799C254.01 53.0399 255.69 51.6959 257.274 50.4479C258.858 49.1519 260.202 48.1199 261.306 47.3519C262.458 46.5359 263.178 46.1279 263.466 46.1279C263.754 46.1279 264.162 46.4159 264.69 46.9919C265.266 47.5199 265.794 48.1199 266.274 48.7919C266.754 49.4639 266.994 50.0159 266.994 50.4479C266.994 50.4959 266.634 50.9039 265.914 51.6719C265.242 52.4399 264.378 53.4239 263.322 54.6239C262.314 55.7759 261.306 56.9999 260.298 58.2959C259.29 59.5439 258.426 60.7199 257.706 61.8239C257.034 62.9279 256.722 63.7439 256.77 64.2719C256.29 64.1759 255.882 63.7439 255.546 62.9759C255.21 62.1599 255.042 61.2479 255.042 60.2399C255.042 59.6639 255.21 58.9679 255.546 58.1519C255.93 57.3359 256.338 56.5439 256.77 55.7759C257.25 55.0079 257.658 54.3359 257.994 53.7599C258.378 53.1839 258.57 52.8719 258.57 52.8239C258.282 53.1599 257.874 53.7119 257.346 54.4799C256.866 55.2479 256.386 56.0159 255.906 56.7839C255.474 57.5039 255.186 58.0319 255.042 58.3679C255.186 57.7919 255.594 56.8559 256.266 55.5599C256.938 54.2639 257.826 52.9679 258.93 51.6719C258.402 52.1519 257.49 52.9679 256.194 54.1199C254.946 55.2239 253.506 56.5439 251.874 58.0799C250.242 59.6159 248.538 61.2239 246.762 62.9039C245.034 64.5359 243.378 66.1439 241.794 67.7279C240.21 69.3119 238.866 70.7519 237.762 72.0479C236.706 73.2959 236.034 74.2799 235.746 74.9999Z" fill="white"/>
<path d="M210.53 76.2243C210.242 76.2243 209.786 75.8883 209.162 75.2163C208.586 74.5923 207.986 73.8963 207.362 73.1283C206.786 72.3123 206.354 71.7123 206.066 71.3283C206.498 69.4563 207.242 67.5123 208.298 65.4963C209.402 63.4323 210.674 61.4163 212.114 59.4483C213.554 57.4803 214.994 55.6563 216.434 53.9763C217.922 52.2963 219.218 50.8803 220.322 49.7283C219.506 50.3523 218.642 51.1683 217.73 52.1763C216.818 53.1363 216.194 53.7843 215.858 54.1203C215.282 54.6963 214.706 55.2723 214.13 55.8483C213.554 56.3763 213.026 56.9043 212.546 57.4323C213.986 55.6563 215.402 54.0243 216.794 52.5363C218.234 51.0483 219.266 50.0643 219.89 49.5843C220.034 49.4403 220.226 49.2723 220.466 49.0803C220.754 48.8883 221.066 48.7683 221.402 48.7203L221.978 48.0723C223.274 48.1203 224.666 48.5283 226.154 49.2963C227.642 50.0163 228.914 50.9763 229.97 52.1763C231.074 53.3283 231.65 54.6483 231.698 56.1363C231.698 56.3283 231.602 56.5203 231.41 56.7123C231.218 56.8563 231.074 56.7603 230.978 56.4243C230.642 55.7043 230.258 55.0563 229.826 54.4803C229.394 53.9043 228.914 53.4483 228.386 53.1123C227.906 52.8243 227.402 52.6803 226.874 52.6803C226.298 52.6803 225.77 52.8723 225.29 53.2563C224.33 53.9763 223.178 55.0563 221.834 56.4963C220.538 57.8883 219.218 59.4003 217.874 61.0323C216.578 62.6643 215.402 64.2483 214.346 65.7843C213.338 67.3203 212.642 68.5923 212.258 69.6003C212.546 69.2643 213.05 68.7843 213.77 68.1603C214.49 67.5363 215.258 66.9123 216.074 66.2883C216.89 65.6163 217.586 65.0643 218.162 64.6323C218.354 64.4883 218.762 64.2003 219.386 63.7683C220.01 63.3363 220.658 62.8803 221.33 62.4003C222.05 61.9203 222.626 61.5603 223.058 61.3203C223.058 61.4163 222.77 61.6803 222.194 62.1123C221.666 62.5443 221.018 63.0243 220.25 63.5523C219.482 64.0803 218.762 64.5603 218.09 64.9923C217.466 65.4243 217.082 65.7123 216.938 65.8563C216.41 66.3363 215.786 66.8883 215.066 67.5123C214.394 68.1363 213.77 68.7123 213.194 69.2403C212.618 69.7683 212.234 70.1523 212.042 70.3923C211.946 70.5843 211.922 70.7043 211.97 70.7523C212.018 70.8003 212.114 70.7283 212.258 70.5363C212.69 69.9123 213.338 69.2403 214.202 68.5203C215.066 67.8003 216.002 67.0803 217.01 66.3603C218.066 65.5923 219.002 64.8963 219.818 64.2723C220.778 63.5523 221.642 62.9283 222.41 62.4003C223.226 61.8243 223.946 61.2963 224.57 60.8163C224.618 59.8083 224.978 59.1123 225.65 58.7283C226.37 58.3443 226.922 58.2243 227.306 58.3683C227.594 58.4643 228.026 58.6563 228.602 58.9443C229.226 59.1843 229.778 59.4963 230.258 59.8803C230.738 60.2163 230.882 60.6003 230.69 61.0323C230.354 61.8003 230.09 63.0003 229.898 64.6323C229.754 66.2163 229.682 67.6803 229.682 69.0243C229.682 70.9443 230.282 71.9043 231.482 71.9043C232.106 71.9043 232.946 71.5683 234.002 70.8963C234.386 70.6563 234.674 70.5363 234.866 70.5363C235.01 70.5363 235.082 70.6083 235.082 70.7523C235.082 70.9443 234.962 71.2323 234.722 71.6163C234.482 71.9523 234.314 72.1683 234.218 72.2643C233.642 72.8883 232.946 73.4643 232.13 73.9923C231.362 74.4723 230.57 74.7123 229.754 74.7123C229.418 74.7123 229.082 74.6643 228.746 74.5683C228.41 74.4723 228.074 74.3043 227.738 74.0643C226.538 73.2483 225.674 72.0003 225.146 70.3203C224.666 68.6403 224.426 67.2003 224.426 66.0003C224.426 65.7123 224.426 65.4483 224.426 65.2083C224.474 64.9683 224.522 64.7523 224.57 64.5603C224.042 64.9923 223.154 65.7363 221.906 66.7923C220.706 67.8003 219.362 68.9523 217.874 70.2483C216.386 71.4963 214.97 72.6723 213.626 73.7763C212.282 74.8803 211.25 75.6963 210.53 76.2243Z" fill="white"/>
<path d="M190.457 76.9437C189.113 75.8397 187.961 74.8077 187.001 73.8477C186.089 72.8877 185.633 71.9517 185.633 71.0397C185.633 70.7997 185.657 70.6078 185.705 70.4638C186.185 68.7838 187.049 66.7917 188.297 64.4877C189.593 62.1837 191.105 59.7117 192.833 57.0717C194.609 54.3837 196.481 51.6957 198.449 49.0077C200.417 46.2717 202.337 43.6797 204.209 41.2317C206.129 38.7357 207.881 36.5277 209.465 34.6077C211.049 32.6397 212.321 31.1037 213.281 29.9998C214.241 28.8958 214.745 28.3438 214.793 28.3438C215.273 28.4877 215.993 28.9677 216.953 29.7837C217.913 30.5517 218.561 31.3437 218.897 32.1597C218.993 32.2557 219.041 32.3517 219.041 32.4477C219.089 33.0237 219.425 33.5517 220.049 34.0317C220.673 34.5117 220.985 35.0397 220.985 35.6157C220.985 37.2477 220.361 39.0237 219.113 40.9437C217.865 42.8157 216.233 44.7358 214.217 46.7038C212.201 48.6717 210.017 50.6157 207.665 52.5357C205.313 54.4077 202.985 56.1598 200.681 57.7917C198.425 59.3757 196.457 60.7678 194.777 61.9678C193.337 63.9838 192.473 65.7838 192.185 67.3678C191.945 68.9518 191.849 70.1278 191.897 70.8958C194.249 69.3118 196.481 67.5357 198.593 65.5677C199.121 65.1357 199.889 64.5358 200.897 63.7678C201.953 62.9518 203.033 62.1597 204.137 61.3917C205.241 60.6237 206.081 60.0718 206.657 59.7358C207.185 59.4478 207.593 59.2077 207.881 59.0157C208.217 58.8237 208.193 58.8718 207.809 59.1597C206.657 60.0718 205.121 61.2237 203.201 62.6157C205.937 60.7917 208.673 59.4478 211.409 58.5837C211.937 58.3918 212.345 58.2957 212.633 58.2957C213.113 58.2957 213.089 58.5597 212.561 59.0877C212.033 59.5677 211.409 60.0718 210.689 60.5998C207.377 62.9998 203.969 65.5198 200.465 68.1598C196.961 70.7998 193.625 73.7277 190.457 76.9437ZM197.657 58.0077C199.481 56.6638 201.209 55.2238 202.841 53.6877C204.473 52.1037 206.105 50.5677 207.737 49.0797C210.569 46.3917 212.849 43.7757 214.577 41.2317C216.353 38.6877 217.481 36.4317 217.961 34.4637C217.097 35.4237 215.921 36.7437 214.433 38.4237C212.993 40.0557 211.385 41.9037 209.609 43.9677C207.833 45.9837 206.009 48.0717 204.137 50.2317C202.313 52.3917 200.585 54.4557 198.953 56.4237C198.809 56.5677 198.617 56.7837 198.377 57.0717C198.185 57.3117 197.945 57.6237 197.657 58.0077ZM193.121 71.6158C193.649 71.0878 194.321 70.4638 195.137 69.7438C195.953 69.0238 196.889 68.1358 197.945 67.0798C198.425 66.5998 199.145 65.9278 200.105 65.0638C201.113 64.1998 202.145 63.3837 203.201 62.6157C201.281 63.9597 199.601 65.2077 198.161 66.3597C196.721 67.5117 195.401 68.5917 194.201 69.5997L193.193 70.8238C192.905 71.1598 192.785 71.4238 192.833 71.6158C192.881 71.8078 192.977 71.8078 193.121 71.6158Z" fill="white"/>
<path d="M153.958 77.0879C152.806 77.0879 151.75 76.9199 150.79 76.5839C149.878 76.2959 149.422 75.8639 149.422 75.2879C149.422 74.9039 149.614 74.5919 149.998 74.3519C150.382 74.1119 150.814 73.9919 151.294 73.9919C148.126 73.3199 145.87 72.1679 144.526 70.5359C143.23 68.8559 142.582 66.9119 142.582 64.7039C142.582 62.8799 142.942 60.9599 143.662 58.9439C144.43 56.8799 145.414 54.8879 146.614 52.9679C149.158 48.8879 151.894 45.6239 154.822 43.1759C157.798 40.7279 161.086 38.4959 164.686 36.4799C163.774 36.9119 162.838 37.3679 161.878 37.8479C160.966 38.2799 160.102 38.7359 159.286 39.2159C158.95 39.4079 158.662 39.5039 158.422 39.5039C158.23 39.5039 158.302 39.4079 158.638 39.2159C160.222 38.3039 162.094 37.3439 164.254 36.3359C166.414 35.2799 168.31 34.3679 169.942 33.5999C174.07 31.6319 178.246 30.0959 182.47 28.9919C186.694 27.8879 190.39 27.3359 193.558 27.3359C195.43 27.3359 197.014 27.5519 198.31 27.9839C198.886 28.8959 199.294 29.7359 199.534 30.5039C199.774 31.2239 199.894 31.8719 199.894 32.4479C199.894 32.9279 199.822 33.3359 199.678 33.6719C199.582 34.0079 199.486 34.2959 199.39 34.5359C199.63 34.3919 199.846 34.1519 200.038 33.8159C200.278 33.4799 200.47 33.1439 200.614 32.8079C200.758 32.4719 200.83 32.1839 200.83 31.9439C200.878 31.7039 200.95 31.4639 201.046 31.2239C201.142 31.0799 201.406 31.1759 201.838 31.5119C202.27 31.8479 202.678 32.2799 203.062 32.8079C203.494 33.3359 203.686 33.8159 203.638 34.2479C203.59 35.0639 203.182 36.0479 202.414 37.1999C201.694 38.3519 200.782 39.4799 199.678 40.5839C198.622 41.6399 197.542 42.5279 196.438 43.2479C195.334 43.9199 194.374 44.2079 193.558 44.1119C192.79 44.9279 191.662 45.9119 190.174 47.0639C188.686 48.2159 187.03 49.3439 185.206 50.4479C183.43 51.5519 181.702 52.4879 180.022 53.2559C178.342 54.0239 176.95 54.4319 175.846 54.4799C175.606 54.3359 175.174 53.9519 174.55 53.3279C173.926 52.7039 173.35 52.0079 172.822 51.2399C172.294 50.4239 172.03 49.6799 172.03 49.0079C172.03 48.8639 172.078 48.6479 172.174 48.3599C172.366 48.0239 172.774 47.3999 173.398 46.4879C174.022 45.5759 174.838 44.6159 175.846 43.6079C176.902 42.5519 178.174 41.7359 179.662 41.1599C179.95 41.0159 180.166 40.9439 180.31 40.9439C180.55 40.9439 180.574 41.1359 180.382 41.5199C180.238 41.9039 179.662 42.6479 178.654 43.7519C178.462 43.9439 178.078 44.3519 177.502 44.9759C176.974 45.5999 176.47 46.2479 175.99 46.9199C175.558 47.5919 175.342 48.1679 175.342 48.6479C175.342 49.2239 175.822 49.4399 176.782 49.2959C178.078 49.1039 179.542 48.6479 181.174 47.9279C182.854 47.2079 184.534 46.3439 186.214 45.3359C187.894 44.3279 189.502 43.2719 191.038 42.1679C192.574 41.0639 193.87 40.0079 194.926 38.9999C196.702 37.2719 197.59 35.9279 197.59 34.9679C197.59 34.3439 197.302 33.8879 196.726 33.5999C196.198 33.3119 195.454 33.1679 194.494 33.1679C194.302 33.1679 194.062 33.1919 193.774 33.2399C193.534 33.2399 193.27 33.2639 192.982 33.3119C190.198 33.6959 187.198 34.3199 183.982 35.1839C180.814 36.0479 177.574 37.1999 174.262 38.6399C170.95 40.0319 167.758 41.7359 164.686 43.7519C161.662 45.7199 158.902 48.0239 156.406 50.6639C153.91 53.2559 151.87 56.2319 150.286 59.5919C149.182 61.8959 148.63 63.8879 148.63 65.5679C148.63 67.0559 149.086 68.2559 149.998 69.1679C150.958 70.0319 152.518 70.4639 154.678 70.4639C156.502 70.4639 158.83 70.0799 161.662 69.3119C164.542 68.5439 167.974 67.2719 171.958 65.4959C171.046 65.9279 170.23 66.3119 169.51 66.6479C168.79 66.9359 168.166 67.1999 167.638 67.4399C167.206 67.6319 166.534 67.8959 165.622 68.2319C164.758 68.5199 163.99 68.7839 163.318 69.0239C162.646 69.2159 162.358 69.3119 162.454 69.3119C163.27 69.3119 164.35 69.0959 165.694 68.6639C167.086 68.2319 168.478 67.7039 169.87 67.0799C171.31 66.4559 172.438 65.9039 173.254 65.4239C174.358 64.8479 175.51 64.2239 176.71 63.5519C177.91 62.8319 179.11 62.1359 180.31 61.4639C178.822 62.2319 177.358 62.9519 175.918 63.6239C174.526 64.2959 173.206 64.9199 171.958 65.4959L173.542 64.7039C173.878 64.5119 174.526 64.1519 175.486 63.6239C176.494 63.0479 177.646 62.3999 178.942 61.6799C180.238 60.9119 181.558 60.1679 182.902 59.4479C184.246 58.6799 185.422 58.0079 186.43 57.4319C187.486 56.8079 188.254 56.3759 188.734 56.1359C188.35 56.5199 187.342 57.2159 185.71 58.2239C184.126 59.2319 182.326 60.3119 180.31 61.4639C183.478 59.8319 186.982 57.9359 190.822 55.7759C191.494 55.3919 191.974 55.1999 192.262 55.1999C192.646 55.1999 192.718 55.4399 192.478 55.9199C192.286 56.3519 191.806 56.9759 191.038 57.7919C189.55 59.2799 187.582 60.9119 185.134 62.6879C182.686 64.4159 179.998 66.1439 177.07 67.8719C174.142 69.5519 171.166 71.0879 168.142 72.4799C165.118 73.8239 162.286 74.8559 159.646 75.5759V75.6479C159.646 75.8399 159.478 76.0559 159.142 76.2959C158.614 76.5839 157.846 76.7759 156.838 76.8719C155.83 77.0159 154.87 77.0879 153.958 77.0879ZM165.478 36.3359C168.598 34.8959 171.91 33.5999 175.414 32.4479C178.966 31.2959 182.374 30.4079 185.638 29.7839C188.902 29.1119 191.662 28.7759 193.918 28.7759C194.59 28.7759 194.926 28.7279 194.926 28.6319C194.926 28.5359 194.758 28.4639 194.422 28.4159C194.134 28.3199 193.822 28.2959 193.486 28.3439C192.094 28.4399 190.198 28.6559 187.798 28.9919C185.446 29.2799 182.854 29.7599 180.022 30.4319C177.19 31.1039 174.358 32.0639 171.526 33.3119C170.614 33.7439 169.606 34.2239 168.502 34.7519C167.398 35.2799 166.39 35.8079 165.478 36.3359Z" fill="white"/>
<path d="M118.802 75.3605C118.322 75.3605 117.794 75.1685 117.218 74.7845C116.69 74.4005 116.21 73.9925 115.778 73.5605C115.394 73.0805 115.202 72.6725 115.202 72.3365C115.202 72.0485 115.274 71.9045 115.418 71.9045C115.514 71.9045 115.658 71.9525 115.85 72.0485C116.042 72.0965 116.258 72.1685 116.498 72.2645C116.354 71.9285 116.234 71.6165 116.138 71.3285C116.042 71.0405 115.994 70.7525 115.994 70.4645C115.994 70.4165 116.234 69.9365 116.714 69.0245C117.194 68.0645 117.794 66.9125 118.514 65.5685C119.234 64.2245 119.978 62.8565 120.746 61.4645C121.514 60.0245 122.186 58.7765 122.762 57.7205C123.338 56.6645 123.698 55.9685 123.842 55.6325L123.698 55.8485C123.458 56.2325 123.074 56.8565 122.546 57.7205C122.018 58.5365 121.466 59.4005 120.89 60.3125C120.314 61.2245 119.834 61.9925 119.45 62.6165C119.066 63.2405 118.874 63.5285 118.874 63.4805C119.114 62.7605 119.426 61.9685 119.81 61.1045C120.194 60.2405 120.698 59.2325 121.322 58.0805C119.45 59.9045 117.434 61.8725 115.274 63.9845C113.162 66.0965 111.218 68.1365 109.442 70.1045C107.666 72.0245 106.322 73.6565 105.41 75.0005C104.354 74.0885 103.61 73.2485 103.178 72.4805C102.794 71.7125 102.602 70.9685 102.602 70.2485C102.602 69.9605 102.65 69.6725 102.746 69.3845C102.794 69.0965 102.842 68.8085 102.89 68.5205C103.178 67.5125 103.922 66.0005 105.122 63.9845C106.37 61.9685 107.882 59.6645 109.658 57.0725C111.434 54.4805 113.33 51.7925 115.346 49.0085C117.362 46.2245 119.306 43.5605 121.178 41.0165C123.05 38.4725 124.706 36.2405 126.146 34.3205C127.586 32.4005 128.594 31.0325 129.17 30.2165C129.17 30.1685 129.146 30.1445 129.098 30.1445C129.05 30.1445 128.93 30.2165 128.738 30.3605C128.546 30.5045 128.258 30.8165 127.874 31.2965C126.818 32.6405 125.738 34.0085 124.634 35.4005C123.53 36.7925 122.522 38.0645 121.61 39.2165C120.698 40.3685 119.954 41.2805 119.378 41.9525C118.802 42.6245 118.514 42.9365 118.514 42.8885C118.514 42.8405 118.85 42.3125 119.522 41.3045C120.242 40.2965 121.106 39.0725 122.114 37.6325C123.17 36.1925 124.226 34.7525 125.282 33.3125C126.338 31.8725 127.226 30.6725 127.946 29.7125C128.666 28.7525 129.05 28.2725 129.098 28.2725H129.17C129.362 28.2725 129.602 28.3445 129.89 28.4885C130.226 28.6325 130.49 28.7525 130.682 28.8485C131.066 28.9445 131.594 29.2805 132.266 29.8565C132.986 30.4325 133.586 31.0805 134.066 31.8005C134.594 32.4725 134.762 33.0725 134.57 33.6005C133.994 34.1765 133.082 35.1845 131.834 36.6245C130.586 38.0645 129.098 39.7685 127.37 41.7365C125.69 43.7045 123.914 45.8165 122.042 48.0725C120.17 50.2805 118.322 52.4885 116.498 54.6965C114.674 56.8565 112.994 58.8725 111.458 60.7445C109.922 62.5685 108.674 64.1045 107.714 65.3525C106.754 66.6005 106.202 67.3685 106.058 67.6565C106.49 67.4165 107.33 66.7925 108.578 65.7845C109.874 64.7765 111.362 63.5525 113.042 62.1125C114.77 60.6245 116.546 59.0645 118.37 57.4325C120.194 55.8005 121.898 54.2165 123.482 52.6805C125.066 51.1445 126.362 49.8485 127.37 48.7925L128.234 47.6405C128.858 47.8805 129.53 48.2165 130.25 48.6485C131.018 49.0325 131.666 49.4645 132.194 49.9445C132.77 50.3765 133.058 50.8325 133.058 51.3125C133.058 51.4565 132.986 51.6485 132.842 51.8885C130.49 55.2005 128.57 57.9125 127.082 60.0245C125.594 62.0885 124.73 63.3605 124.49 63.8405C125.066 63.5525 125.882 63.0725 126.938 62.4005C127.994 61.6805 129.194 60.9125 130.538 60.0965C132.074 59.1365 133.658 58.1525 135.29 57.1445C136.97 56.1365 138.626 55.2965 140.258 54.6245C140.642 54.4805 140.642 54.5525 140.258 54.8405C139.922 55.1285 139.442 55.4885 138.818 55.9205C138.194 56.3045 137.666 56.6165 137.234 56.8565C138.002 56.4725 138.65 56.1845 139.178 55.9925C139.754 55.7525 140.498 55.4405 141.41 55.0565C141.842 54.8645 142.202 54.7685 142.49 54.7685C142.826 54.7685 142.874 54.9365 142.634 55.2725C142.394 55.6085 142.01 56.0165 141.482 56.4965C141.002 56.9285 140.522 57.2885 140.042 57.5765C139.466 57.9125 138.41 58.6325 136.874 59.7365C135.338 60.8405 133.61 62.1125 131.69 63.5525C129.818 64.9445 128.042 66.3125 126.362 67.6565C125.546 68.2805 124.778 68.9285 124.058 69.6005C123.338 70.2725 122.69 70.8965 122.114 71.4725C122.306 71.5205 122.498 71.6405 122.69 71.8325C122.93 72.0245 123.05 72.2405 123.05 72.4805C123.05 72.8165 122.762 73.2245 122.186 73.7045C121.61 74.1365 120.986 74.5205 120.314 74.8565C119.642 75.1925 119.138 75.3605 118.802 75.3605ZM123.986 65.3525C124.61 64.8245 125.618 64.1045 127.01 63.1925C128.45 62.2325 129.986 61.2245 131.618 60.1685C133.298 59.1125 134.762 58.2245 136.01 57.5045C134.954 57.9845 133.802 58.5845 132.554 59.3045C131.306 59.9765 130.274 60.5765 129.458 61.1045C128.258 61.8725 127.25 62.5205 126.434 63.0485C125.618 63.5285 124.946 64.0325 124.418 64.5605C124.274 64.6565 124.13 64.8485 123.986 65.1365C123.842 65.3765 123.842 65.4485 123.986 65.3525Z" fill="white"/>
<path d="M82.3158 79.3204C81.2598 78.4084 80.5158 77.5444 80.0838 76.7284C79.6998 75.9604 79.5078 75.2164 79.5078 74.4964C79.5078 74.2084 79.5558 73.9444 79.6518 73.7044C79.6998 73.4164 79.7478 73.1284 79.7958 72.8404C80.0358 72.1204 80.5878 70.8964 81.4518 69.1684C82.3638 67.4404 83.4438 65.4724 84.6918 63.2644C85.9878 61.0564 87.3558 58.8244 88.7958 56.5684C90.2358 54.2644 91.6038 52.2004 92.8998 50.3764C92.4678 50.4724 92.0118 50.5444 91.5318 50.5924C91.0998 50.6404 90.6678 50.6644 90.2358 50.6644C89.0358 50.6644 87.9558 50.5924 86.9958 50.4484C86.0838 50.2564 85.5558 50.1364 85.4118 50.0884C84.9318 49.9924 84.6198 49.6804 84.4758 49.1524C84.3798 48.5764 84.3558 48.0004 84.4038 47.4244C84.2598 47.3764 84.1638 47.3044 84.1158 47.2084C84.0678 47.1124 84.0198 47.0404 83.9718 46.9924C83.9718 46.8964 83.9478 46.8004 83.8998 46.7044C83.8998 46.6084 83.8998 46.5124 83.8998 46.4164C83.8998 45.9364 84.0198 45.6244 84.2598 45.4804C84.5478 45.3364 84.8598 45.2644 85.1958 45.2644C85.5798 45.2644 85.9878 45.3124 86.4198 45.4084C86.8998 45.4564 87.3798 45.4804 87.8598 45.4804C88.6758 45.4804 89.5398 45.4084 90.4518 45.2644C91.3638 45.0724 91.8918 44.8324 92.0358 44.5444C92.1798 44.2564 92.3238 44.1124 92.4678 44.1124C92.5638 44.1124 92.7078 44.3764 92.8998 44.9044C92.8998 44.9524 92.8998 45.0004 92.8998 45.0484C92.9478 45.0964 92.9718 45.1684 92.9718 45.2644C92.9718 45.6964 92.7798 46.1524 92.3958 46.6324H95.4918C96.3078 45.5764 97.1958 44.4004 98.1558 43.1044C99.1638 41.7604 100.148 40.4404 101.108 39.1444C102.116 37.8004 103.004 36.6004 103.772 35.5444C104.588 34.4884 105.188 33.6724 105.572 33.0964C105.38 32.9044 105.284 32.6644 105.284 32.3764C105.284 31.9924 105.38 31.6084 105.572 31.2244C105.812 30.8404 105.932 30.5524 105.932 30.3604C105.932 30.2164 105.884 30.0484 105.788 29.8564C105.74 29.6644 105.716 29.4964 105.716 29.3524C105.716 28.9684 105.932 28.7764 106.364 28.7764C106.46 28.7764 106.7 28.8244 107.084 28.9204C107.708 29.1124 108.5 29.4964 109.46 30.0724C110.468 30.6484 111.332 31.2964 112.052 32.0164C112.772 32.7364 112.988 33.4804 112.7 34.2484C112.364 34.6324 111.764 35.3044 110.9 36.2644C110.084 37.2244 109.148 38.3284 108.092 39.5764C107.036 40.7764 105.98 42.0244 104.924 43.3204C103.916 44.5684 103.004 45.7204 102.188 46.7764C103.484 46.6804 104.804 46.6084 106.148 46.5604C107.54 46.5124 108.764 46.4644 109.82 46.4164C110.924 46.3684 111.644 46.3444 111.98 46.3444C112.844 46.3444 113.276 46.4644 113.276 46.7044C113.276 46.8964 113.084 47.0884 112.7 47.2804C112.316 47.4724 111.908 47.6164 111.476 47.7124C111.428 47.6644 110.756 47.7124 109.46 47.8564C108.212 48.0004 106.964 48.1444 105.716 48.2884C105.14 48.3364 104.396 48.4084 103.484 48.5044C102.62 48.5524 101.78 48.6004 100.964 48.6484L100.676 48.9364C101.732 48.8884 102.908 48.8404 104.204 48.7924C105.548 48.6964 106.604 48.6484 107.372 48.6484C106.556 48.7924 105.476 48.9124 104.132 49.0084C102.788 49.0564 101.492 49.1764 100.244 49.3684C99.2838 50.4244 98.2038 51.7444 97.0038 53.3284C95.8518 54.8644 94.6278 56.5204 93.3318 58.2964C92.0838 60.0244 90.8838 61.7284 89.7318 63.4084C88.5798 65.0404 87.5478 66.5044 86.6358 67.8004C85.7238 69.0964 85.0278 70.0564 84.5478 70.6804C85.2198 70.4404 86.0118 70.1044 86.9238 69.6724C87.8358 69.1924 88.7478 68.6884 89.6598 68.1604C91.7718 66.7684 94.0278 65.2564 96.4278 63.6244C98.8758 61.9924 101.012 60.5764 102.836 59.3764C103.988 58.6564 105.116 57.8884 106.22 57.0724C107.372 56.2084 108.476 55.3204 109.532 54.4084C109.628 54.3124 109.676 54.3124 109.676 54.4084C109.724 54.5044 109.7 54.6004 109.604 54.6964L106.868 57.1444C106.916 57.3364 106.94 57.5284 106.94 57.7204C106.94 57.8644 106.94 58.0324 106.94 58.2244C106.94 58.6564 106.868 59.0644 106.724 59.4484C106.628 59.8324 106.412 60.1444 106.076 60.3844C105.26 60.9124 104.012 61.7764 102.332 62.9764C100.7 64.1764 98.8518 65.5684 96.7878 67.1524C94.7238 68.6884 92.6838 70.2484 90.6678 71.8324C88.6998 73.4164 86.9478 74.8804 85.4118 76.2244C83.8758 77.5684 82.8438 78.6004 82.3158 79.3204ZM83.5398 72.1204L86.9958 69.9604L84.0438 71.3284L83.5398 72.1204Z" fill="white"/>
<path d="M79.3521 45.4799C78.7281 45.1919 78.0801 44.6399 77.4081 43.8239C76.7361 43.0079 76.4001 42.3119 76.4001 41.7359C76.4001 41.2559 76.6161 41.0159 77.0481 41.0159C77.2881 41.0159 77.5761 41.0639 77.9121 41.1599C78.2481 41.2079 78.5841 41.2319 78.9201 41.2319C79.3521 41.2319 79.8321 41.0879 80.3601 40.7999C80.8881 40.4639 81.4161 40.2959 81.9441 40.2959C82.6161 40.2959 83.1441 40.7519 83.5281 41.6639C83.6721 41.9039 83.5521 42.2399 83.1681 42.6719C82.7841 43.1039 82.3281 43.5119 81.8001 43.8959C81.3201 44.2799 80.9121 44.5679 80.5761 44.7599C80.8161 44.7599 81.2001 44.5919 81.7281 44.2559C82.2561 43.8719 82.6881 43.5119 83.0241 43.1759C82.4001 43.9439 81.6801 44.5439 80.8641 44.9759C80.0481 45.3599 79.5441 45.5279 79.3521 45.4799ZM63.7281 74.7839C62.8641 74.0159 62.2641 73.3919 61.9281 72.9119C61.6401 72.3839 61.4961 71.9039 61.4961 71.4719C61.4961 71.1359 61.5441 70.7999 61.6401 70.4639C61.7841 70.1279 61.9041 69.7679 62.0001 69.3839C62.5281 67.6079 63.3921 65.6879 64.5921 63.6239C65.7921 61.5599 67.0881 59.5439 68.4801 57.5759C69.9201 55.5599 71.1921 53.7839 72.2961 52.2479C72.2001 52.1519 72.1521 51.8639 72.1521 51.3839C72.1521 50.7119 72.2721 49.9679 72.5121 49.1519C72.8001 48.2879 73.1841 47.9519 73.6641 48.1439C74.2401 48.2879 74.9121 48.5759 75.6801 49.0079C76.4961 49.4399 77.2161 49.9439 77.8401 50.5199C78.4641 51.0959 78.7761 51.7199 78.7761 52.3919C78.7761 52.5359 78.7281 52.7519 78.6321 53.0399H78.5601C77.3121 54.3839 76.0881 55.8719 74.8881 57.5039C73.6881 59.1359 72.6321 60.6719 71.7201 62.1119C70.8561 63.5039 70.2561 64.5599 69.9201 65.2799C70.2081 65.1359 70.5201 64.9439 70.8561 64.7039C71.1921 64.4639 71.5521 64.1759 71.9361 63.8399C71.6961 63.9839 71.4801 64.0799 71.2881 64.1279C71.1441 64.1759 71.1201 64.1759 71.2161 64.1279C72.4641 63.1199 73.9041 62.0879 75.5361 61.0319C77.2161 59.9759 78.9201 59.0159 80.6481 58.1519C82.3761 57.2399 84.0081 56.4959 85.5441 55.9199H85.6881C85.7841 55.9199 85.7121 55.9919 85.4721 56.1359C85.2801 56.2319 85.0161 56.3519 84.6801 56.4959C84.3441 56.6399 83.8881 56.8799 83.3121 57.2159C82.7361 57.5039 82.0881 57.8639 81.3681 58.2959C82.0401 58.0079 82.7361 57.6719 83.4561 57.2879C84.1761 56.9039 84.9201 56.5919 85.6881 56.3519C85.9281 56.2559 86.1441 56.1839 86.3361 56.1359C86.5761 56.0879 86.7441 56.0639 86.8401 56.0639C87.1761 56.0639 87.3441 56.1839 87.3441 56.4239C87.3441 56.7599 87.0081 57.2399 86.3361 57.8639C85.6641 58.4879 84.8001 59.0879 83.7441 59.6639C83.1201 59.9999 82.1361 60.6239 80.7921 61.5359C79.4961 62.4479 78.0081 63.5279 76.3281 64.7759C74.6481 65.9759 72.9441 67.2239 71.2161 68.5199C69.5361 69.8159 68.0241 71.0159 66.6801 72.1199C65.3361 73.2239 64.3521 74.1119 63.7281 74.7839ZM71.9361 63.8399C72.1761 63.7439 72.4161 63.6239 72.6561 63.4799C72.9441 63.2879 73.1361 63.1679 73.2321 63.1199C74.1441 62.4959 75.3441 61.7759 76.8321 60.9599C78.3681 60.0959 79.8801 59.2079 81.3681 58.2959C78.9681 59.4479 77.0721 60.4559 75.6801 61.3199C74.2881 62.1839 73.0401 63.0239 71.9361 63.8399Z" fill="white"/>
<path d="M30.1045 76.0084C29.6245 76.0084 29.0725 75.7924 28.4485 75.3604C27.8245 74.9764 27.2725 74.5444 26.7925 74.0644C26.3605 73.5364 26.1445 73.1284 26.1445 72.8404C26.1445 72.5524 26.2405 72.4084 26.4325 72.4084C26.5285 72.4084 26.6725 72.4564 26.8645 72.5524C27.1045 72.6004 27.3445 72.6724 27.5845 72.7684C27.2965 72.1444 27.1045 71.4964 27.0085 70.8244C27.0085 70.7284 27.2725 70.2004 27.8005 69.2404C28.3285 68.2804 28.9765 67.1044 29.7445 65.7124C30.5605 64.3204 31.3525 62.9284 32.1205 61.5364C32.9365 60.1444 33.6085 58.9684 34.1365 58.0084C34.7125 57.0004 35.0005 56.4724 35.0005 56.4244C35.0485 56.2804 34.7365 56.6164 34.0645 57.4324C33.4405 58.2004 32.7445 59.1124 31.9765 60.1684C31.2085 61.2244 30.5845 62.1604 30.1045 62.9764C30.7285 61.6804 31.4005 60.3124 32.1205 58.8724C32.8885 57.4324 33.8965 55.7284 35.1445 53.7604C36.3925 51.7444 38.0965 49.2724 40.2565 46.3444C40.9285 46.6324 41.6725 46.9924 42.4885 47.4244C43.3045 47.8084 44.0005 48.2404 44.5765 48.7204C45.1525 49.2004 45.4405 49.7044 45.4405 50.2324C45.4405 50.4244 45.3685 50.6404 45.2245 50.8804C43.5445 53.1844 41.9845 55.3684 40.5445 57.4324C39.1525 59.4964 38.0245 61.2244 37.1605 62.6164C36.2965 64.0084 35.7685 64.8724 35.5765 65.2084C35.9125 65.0164 36.2965 64.8004 36.7285 64.5604C37.1605 64.3204 37.6405 64.0324 38.1685 63.6964L38.0245 63.8404C37.8805 63.9844 37.7365 64.1764 37.5925 64.4164C37.4485 64.6564 37.4485 64.7284 37.5925 64.6324C38.2645 64.1044 39.4645 63.2884 41.1925 62.1844C42.9205 61.0804 44.7205 59.9284 46.5925 58.7284L46.8085 58.1524C44.9845 59.4964 43.4485 60.5284 42.2005 61.2484C41.4805 61.6804 40.7845 62.0884 40.1125 62.4724C39.4885 62.8084 38.9125 63.1684 38.3845 63.5524C38.9605 63.0724 39.6565 62.5684 40.4725 62.0404C41.2885 61.5124 42.2965 60.8884 43.4965 60.1684C43.8805 59.9284 44.3845 59.6164 45.0085 59.2324C45.6325 58.8484 46.2805 58.4164 46.9525 57.9364L46.8085 58.1524L48.7525 56.7124L46.9525 57.9364L48.1765 55.4164C47.7925 55.5124 47.6965 55.2484 47.8885 54.6244C48.0805 54.0004 48.5125 53.3284 49.1845 52.6084C49.9045 51.8404 50.7445 51.3844 51.7045 51.2404C52.0405 51.1924 52.5205 51.4324 53.1445 51.9604C53.8165 52.4884 54.3925 53.0644 54.8725 53.6884C55.3525 54.3124 55.4485 54.7444 55.1605 54.9844C54.1525 55.8004 53.2645 56.8564 52.4965 58.1524C51.7765 59.4484 51.1525 60.7924 50.6245 62.1844C50.0965 63.5284 49.6645 64.8004 49.3285 66.0004C48.9925 67.1524 48.7525 68.0404 48.6085 68.6644C50.8645 66.9364 52.8565 65.3044 54.5845 63.7684C56.3605 62.2324 57.9925 60.5764 59.4805 58.8004C61.0165 57.0244 62.5525 54.9124 64.0885 52.4644C64.0885 52.2244 64.0645 51.9364 64.0165 51.6004C63.9685 51.2164 63.9445 50.7844 63.9445 50.3044C63.9445 49.7764 63.9925 49.1764 64.0885 48.5044C64.1845 47.8324 64.4005 47.1844 64.7365 46.5604C65.1205 45.7444 65.5285 45.1924 65.9605 44.9044C66.4405 44.5684 66.8965 44.4004 67.3285 44.4004C68.0485 44.4004 68.6725 44.7124 69.2005 45.3364C69.7765 45.9124 70.0645 46.4164 70.0645 46.8484C70.1125 47.8084 69.8725 49.0324 69.3445 50.5204C68.8645 51.9604 68.3365 53.4004 67.7605 54.8404C67.1845 56.2804 66.7285 57.4804 66.3925 58.4404C66.2485 58.8244 66.1045 59.0164 65.9605 59.0164C65.7685 59.0164 65.5765 58.7524 65.3845 58.2244C65.1925 57.6484 65.0725 57.2404 65.0245 57.0004C63.8245 58.7764 62.4805 60.5284 60.9925 62.2564C59.5045 63.9844 58.0165 65.5684 56.5285 67.0084C55.0885 68.4484 53.7685 69.6484 52.5685 70.6084C52.3765 71.9044 51.7765 73.1044 50.7685 74.2084C49.8085 75.2644 48.7285 75.7924 47.5285 75.7924C46.5685 75.7924 45.7045 75.3844 44.9365 74.5684C44.2165 73.7524 43.8565 72.8884 43.8565 71.9764C43.8565 71.3524 43.9525 70.8244 44.1445 70.3924C44.3845 69.9124 44.5045 69.5284 44.5045 69.2404C44.5045 68.5684 44.5765 67.6804 44.7205 66.5764C44.8645 65.4724 45.1045 64.2484 45.4405 62.9044C45.4405 62.8084 45.4405 62.7364 45.4405 62.6884C45.4885 62.5924 45.5125 62.5204 45.5125 62.4724C44.0245 63.7684 42.6085 64.9684 41.2645 66.0724C39.9205 67.1764 38.8165 68.0644 37.9525 68.7364L33.9205 71.9764C34.0645 72.0724 34.2325 72.2164 34.4245 72.4084C34.6165 72.6004 34.7125 72.8164 34.7125 73.0564C34.7125 73.3444 34.4005 73.7284 33.7765 74.2084C33.2005 74.6404 32.5525 75.0484 31.8325 75.4324C31.1125 75.8164 30.5365 76.0084 30.1045 76.0084ZM49.2565 68.9524C50.3605 68.2324 51.6565 67.2484 53.1445 66.0004C54.6805 64.7044 56.0005 63.4564 57.1045 62.2564C59.3125 59.8564 61.4245 57.2164 63.4405 54.3364C62.9605 54.9124 62.3125 55.6804 61.4965 56.6404C60.6805 57.6004 59.8405 58.5844 58.9765 59.5924C58.1605 60.5524 57.4405 61.3684 56.8165 62.0404C54.9925 64.1044 53.3365 65.6404 51.8485 66.6484C50.4085 67.6564 49.5685 68.2564 49.3285 68.4484C49.1365 68.5444 49.0165 68.6884 48.9685 68.8804C48.9685 69.0724 49.0645 69.0964 49.2565 68.9524ZM47.0965 58.3684L47.2405 58.2964L47.3845 57.8644L47.0965 58.3684Z" fill="white"/>
<path d="M352 5C352 7.76142 349.761 10 347 10C344.239 10 342 7.76142 342 5C342 2.23858 344.239 0 347 0C349.761 0 352 2.23858 352 5Z" fill="white" fill-opacity="0"/>
<path d="M351 5C351 2.79086 349.209 1 347 1C344.791 1 343 2.79086 343 5C343 7.20914 344.791 9 347 9V10C344.239 10 342 7.76142 342 5C342 2.23858 344.239 0 347 0C349.761 0 352 2.23858 352 5C352 7.76142 349.761 10 347 10V9C349.209 9 351 7.20914 351 5Z" fill="#1DF0FF" fill-opacity="0"/>
<path d="M352 108C352 110.761 349.761 113 347 113C344.239 113 342 110.761 342 108C342 105.239 344.239 103 347 103C349.761 103 352 105.239 352 108Z" fill="white" fill-opacity="0"/>
<path d="M351 108C351 105.791 349.209 104 347 104C344.791 104 343 105.791 343 108C343 110.209 344.791 112 347 112V113C344.239 113 342 110.761 342 108C342 105.239 344.239 103 347 103C349.761 103 352 105.239 352 108C352 110.761 349.761 113 347 113V112C349.209 112 351 110.209 351 108Z" fill="#1DF0FF" fill-opacity="0"/>
<path d="M10 108C10 110.761 7.76142 113 5 113C2.23858 113 0 110.761 0 108C0 105.239 2.23858 103 5 103C7.76142 103 10 105.239 10 108Z" fill="white" fill-opacity="0"/>
<path d="M9 108C9 105.791 7.20914 104 5 104C2.79086 104 1 105.791 1 108C1 110.209 2.79086 112 5 112V113C2.23858 113 0 110.761 0 108C0 105.239 2.23858 103 5 103C7.76142 103 10 105.239 10 108C10 110.761 7.76142 113 5 113V112C7.20914 112 9 110.209 9 108Z" fill="#1DF0FF" fill-opacity="0"/>
<path d="M10 5C10 7.76142 7.76142 10 5 10C2.23858 10 0 7.76142 0 5C0 2.23858 2.23858 0 5 0C7.76142 0 10 2.23858 10 5Z" fill="white" fill-opacity="0"/>
<path d="M9 5C9 2.79086 7.20914 1 5 1C2.79086 1 1 2.79086 1 5C1 7.20914 2.79086 9 5 9V10C2.23858 10 0 7.76142 0 5C0 2.23858 2.23858 0 5 0C7.76142 0 10 2.23858 10 5C10 7.76142 7.76142 10 5 10V9C7.20914 9 9 7.20914 9 5Z" fill="#1DF0FF" fill-opacity="0"/>
</svg>
