<svg width="929" height="70" viewBox="0 0 929 70" fill="none" xmlns="http://www.w3.org/2000/svg">
<path d="M885.883 8.78906V0.488281H928.168V8.78906H911.273V68.8477H902.68V8.78906H885.883Z" fill="#ADADAD"/>
<path d="M838.562 68.8477V15.4297H839.344L847.059 27.9297V68.8477H838.562ZM838.562 5.95703V0.488281H845.887L882.02 58.3984V68.8477H877.82L838.562 5.95703ZM873.523 36.2305V0.488281H882.02V48.7305H881.238L873.523 36.2305Z" fill="#ADADAD"/>
<path d="M797.109 68.8477V0.488281H832.656V8.88672H805.605V30.5664H823.477V39.0625H805.605V60.4492H832.656V68.8477H797.109Z" fill="#ADADAD"/>
<path d="M731.234 68.8477V20.0195H732.113L739.73 38.5742V68.8477H731.234ZM731.234 5.85938V0.488281H738.168L760.629 54.8828L776.645 18.6523H777.621V37.5977L763.852 68.8477H757.406L731.234 5.85938ZM782.504 68.8477V0.488281H791V68.8477H782.504Z" fill="#ADADAD"/>
<path d="M686.172 68.8477V0.488281H694.668V68.8477H686.172ZM699.551 38.2812V29.9805H708.828C715.273 29.9154 718.561 26.3346 718.691 19.2383C718.626 12.3372 715.306 8.82161 708.73 8.69141H699.551V0.488281H710.098C710.488 0.488281 710.879 0.488281 711.27 0.488281C722.012 1.07422 727.383 7.32422 727.383 19.2383C727.383 22.819 726.96 25.9115 726.113 28.5156C723.965 34.9609 718.626 38.2161 710.098 38.2812H699.551Z" fill="#ADADAD"/>
<path d="M636.508 49.8047V17.6758C636.508 14.2253 637.973 10.7096 640.902 7.12891C644.809 2.44141 649.757 0.0651042 655.746 0V8.49609C651.775 8.49609 648.682 10.5143 646.469 14.5508C645.557 16.3086 645.102 17.8711 645.102 19.2383V49.8047C645.102 53.9062 647.12 57.0964 651.156 59.375C652.849 60.3516 654.346 60.8398 655.648 60.8398V69.3359C651.938 69.3359 648.227 68.0013 644.516 65.332C639.242 61.4258 636.573 56.25 636.508 49.8047ZM661.02 69.3359V60.8398C663.298 60.8398 665.609 59.8307 667.953 57.8125C670.427 55.599 671.697 52.9297 671.762 49.8047V19.2383C671.762 16.6992 670.72 14.2578 668.637 11.9141C666.488 9.70052 663.949 8.5612 661.02 8.49609V0C667.595 0 672.868 2.83203 676.84 8.49609C679.118 11.7513 680.258 14.8112 680.258 17.6758V49.8047C680.258 57.0312 677.035 62.5651 670.59 66.4062C667.204 68.3594 664.014 69.3359 661.02 69.3359Z" fill="#ADADAD"/>
<path d="M596.219 68.8477V0.488281H604.715V60.4492H632.938V68.8477H596.219Z" fill="#ADADAD"/>
<path d="M554.859 68.8477V0.488281H590.406V8.88672H563.355V30.5664H581.227V39.0625H563.355V60.4492H590.406V68.8477H554.859Z" fill="#ADADAD"/>
<path d="M507.453 0.488281H516.047L533.43 59.8633L530.305 68.8477H527.277L507.453 0.488281ZM531.281 36.7188L543.391 0.488281H551.984C551.398 2.3763 548.957 9.92839 544.66 23.1445C539.647 38.5091 536.783 47.3307 536.066 49.6094H535.09L531.281 36.7188Z" fill="#ADADAD"/>
<path d="M469.219 68.8477V0.488281H504.766V8.88672H477.715V30.5664H495.586V39.0625H477.715V60.4492H504.766V68.8477H469.219Z" fill="#ADADAD"/>
<path d="M425.125 68.8477V0.488281H433.621V68.8477H425.125ZM438.504 68.8477V60.4492C445.145 60.4492 449.604 59.4076 451.883 57.3242C453.836 55.5013 454.812 52.9297 454.812 49.6094V19.7266C454.812 13.9974 451.525 10.5469 444.949 9.375C443.126 9.04948 440.978 8.88672 438.504 8.88672V0.488281C450.092 0.488281 457.677 3.8737 461.258 10.6445C462.69 13.2487 463.406 16.276 463.406 19.7266V49.6094C463.406 61.849 455.952 68.2617 441.043 68.8477C440.197 68.8477 439.35 68.8477 438.504 68.8477Z" fill="#ADADAD"/>
<path d="M359.594 68.8477V0.488281H368.09V68.8477H359.594ZM372.973 68.8477V60.4492C379.613 60.4492 384.073 59.4076 386.352 57.3242C388.305 55.5013 389.281 52.9297 389.281 49.6094V19.7266C389.281 13.9974 385.993 10.5469 379.418 9.375C377.595 9.04948 375.447 8.88672 372.973 8.88672V0.488281C384.561 0.488281 392.146 3.8737 395.727 10.6445C397.159 13.2487 397.875 16.276 397.875 19.7266V49.6094C397.875 61.849 390.421 68.2617 375.512 68.8477C374.665 68.8477 373.819 68.8477 372.973 68.8477Z" fill="#ADADAD"/>
<path d="M310.031 68.8477V15.4297H310.812L318.527 27.9297V68.8477H310.031ZM310.031 5.95703V0.488281H317.355L353.488 58.3984V68.8477H349.289L310.031 5.95703ZM344.992 36.2305V0.488281H353.488V48.7305H352.707L344.992 36.2305Z" fill="#ADADAD"/>
<path d="M268.57 68.8477V0.488281H304.117V8.88672H277.066V30.5664H294.938V39.0625H277.066V60.4492H304.117V68.8477H268.57Z" fill="#ADADAD"/>
<path d="M231.406 44.043V36.2305H262.266V44.043H231.406Z" fill="#ADADAD"/>
<path d="M185.07 8.78906V0.488281H227.355V8.78906H210.461V68.8477H201.867V8.78906H185.07Z" fill="#ADADAD"/>
<path d="M137.75 68.8477V15.4297H138.531L146.246 27.9297V68.8477H137.75ZM137.75 5.95703V0.488281H145.074L181.207 58.3984V68.8477H177.008L137.75 5.95703ZM172.711 36.2305V0.488281H181.207V48.7305H180.426L172.711 36.2305Z" fill="#ADADAD"/>
<path d="M88.0938 49.8047V17.6758C88.0938 14.2253 89.5586 10.7096 92.4883 7.12891C96.3945 2.44141 101.342 0.0651042 107.332 0V8.49609C103.361 8.49609 100.268 10.5143 98.0547 14.5508C97.1432 16.3086 96.6875 17.8711 96.6875 19.2383V49.8047C96.6875 53.9062 98.7057 57.0964 102.742 59.375C104.435 60.3516 105.932 60.8398 107.234 60.8398V69.3359C103.523 69.3359 99.8125 68.0013 96.1016 65.332C90.8281 61.4258 88.1589 56.25 88.0938 49.8047ZM112.605 69.3359V60.8398C114.884 60.8398 117.195 59.8307 119.539 57.8125C122.013 55.599 123.283 52.9297 123.348 49.8047V19.2383C123.348 16.6992 122.306 14.2578 120.223 11.9141C118.074 9.70052 115.535 8.5612 112.605 8.49609V0C119.181 0 124.454 2.83203 128.426 8.49609C130.704 11.7513 131.844 14.8112 131.844 17.6758V49.8047C131.844 57.0312 128.621 62.5651 122.176 66.4062C118.79 68.3594 115.6 69.3359 112.605 69.3359Z" fill="#ADADAD"/>
<path d="M40.875 68.8477V0.488281H49.3711V68.8477H40.875ZM54.2539 39.2578V31.543H63.1406C70.0417 31.4128 73.5247 27.5716 73.5898 20.0195C73.4596 12.2721 69.5208 8.36589 61.7734 8.30078H54.2539V0.488281H63.3359C72.776 0.813802 78.6029 4.7526 80.8164 12.3047C81.4674 14.4531 81.793 16.7969 81.793 19.3359C81.7279 26.888 79.4818 32.194 75.0547 35.2539C78.8307 37.2721 81.1094 40.9505 81.8906 46.2891C81.9557 46.7448 82.0208 47.2005 82.0859 47.6562L83.7461 68.8477H75.7383L74.2734 51.4648C73.7526 45.8659 72.3203 42.2852 69.9766 40.7227C68.4141 39.681 66.2982 39.1927 63.6289 39.2578H54.2539Z" fill="#ADADAD"/>
<path d="M0 68.75V0.488281H35.5469V8.88672H8.49609V30.5664H26.3672V39.0625H8.49609V68.75H0Z" fill="#ADADAD"/>
</svg>
