<svg width="616" height="139" viewBox="0 0 616 139" fill="none" xmlns="http://www.w3.org/2000/svg">
<path d="M0 137.891V1.17188H16.9922V137.891H0ZM26.7578 76.7578V60.1562H45.3125C58.2031 60.026 64.7786 52.8646 65.0391 38.6719C64.9089 24.8698 58.2682 17.8385 45.1172 17.5781H26.7578V1.17188H47.8516C48.6328 1.17188 49.4141 1.17188 50.1953 1.17188C71.6797 2.34375 82.4219 14.8438 82.4219 38.6719C82.4219 45.8333 81.5755 52.0182 79.8828 57.2266C75.5859 70.1172 64.9089 76.6276 47.8516 76.7578H26.7578ZM87.1406 137.891V1.17188H104.133V137.891H87.1406ZM113.898 78.7109V63.2812H131.672C145.474 63.0208 152.44 55.3385 152.57 40.2344C152.31 24.7396 144.432 16.9271 128.938 16.7969H113.898V1.17188H132.062C150.943 1.82292 162.596 9.70052 167.023 24.8047C168.326 29.1016 168.977 33.7891 168.977 38.8672C168.846 53.9714 164.354 64.5833 155.5 70.7031C163.052 74.7396 167.609 82.0964 169.172 92.7734C169.302 93.6849 169.432 94.5964 169.562 95.5078L172.883 137.891H156.867L153.938 103.125C152.896 91.9271 150.031 84.7656 145.344 81.6406C142.219 79.5573 137.987 78.5807 132.648 78.7109H113.898ZM178.578 99.8047V35.5469C178.578 28.6458 181.508 21.6146 187.367 14.4531C195.18 5.07812 205.076 0.325521 217.055 0.195312V17.1875C209.112 17.1875 202.927 21.224 198.5 29.2969C196.677 32.8125 195.766 35.9375 195.766 38.6719V99.8047C195.766 108.008 199.802 114.388 207.875 118.945C211.26 120.898 214.255 121.875 216.859 121.875V138.867C209.438 138.867 202.016 136.198 194.594 130.859C184.047 123.047 178.708 112.695 178.578 99.8047ZM227.602 138.867V121.875C232.159 121.875 236.781 119.857 241.469 115.82C246.417 111.393 248.956 106.055 249.086 99.8047V38.6719C249.086 33.5938 247.003 28.7109 242.836 24.0234C238.539 19.5964 233.461 17.3177 227.602 17.1875V0.195312C240.753 0.195312 251.299 5.85938 259.242 17.1875C263.799 23.6979 266.078 29.8177 266.078 35.5469V99.8047C266.078 114.258 259.633 125.326 246.742 133.008C239.971 136.914 233.591 138.867 227.602 138.867ZM270.211 100.195V90.625H287.203V99.4141C287.333 108.529 291.37 115.234 299.312 119.531C302.177 121.094 304.781 121.875 307.125 121.875V138.867C299.964 138.867 292.737 136.133 285.445 130.664C275.419 122.852 270.341 112.695 270.211 100.195ZM316.891 138.867V121.875C320.797 121.875 325.094 120.117 329.781 116.602C335.51 112.174 338.44 106.706 338.57 100.195V1.17188H355.562V100.195C355.562 114.648 349.052 125.586 336.031 133.008C329.26 136.914 322.88 138.867 316.891 138.867ZM363.602 137.891V1.17188H434.695V17.9688H380.594V61.3281H416.336V78.3203H380.594V121.094H434.695V137.891H363.602ZM442.93 102.539V36.7188C442.93 30.9896 444.818 24.9349 448.594 18.5547C455.885 6.1849 466.953 0.0651042 481.797 0.195312V16.9922C475.547 17.1224 470.273 19.3359 465.977 23.6328C462.07 27.7995 460.117 32.1615 460.117 36.7188V102.539C460.117 104.753 460.833 107.292 462.266 110.156C466.302 118.099 472.812 122.07 481.797 122.07V138.867C469.036 138.737 458.88 133.984 451.328 124.609C445.729 117.448 442.93 110.091 442.93 102.539ZM491.367 138.867V122.07L495.273 121.484C497.878 121.094 500.742 119.727 503.867 117.383C507.122 115.039 509.336 111.979 510.508 108.203C511.029 106.771 511.419 104.557 511.68 101.562C511.81 100.911 511.875 99.8698 511.875 98.4375L528.086 102.344C528.086 111.589 524.766 119.792 518.125 126.953C510.703 134.896 501.784 138.867 491.367 138.867ZM491.367 16.9922V0.195312C500.091 0.195312 508.229 3.64583 515.781 10.5469C523.984 18.3594 528.086 27.2135 528.086 37.1094L511.68 41.4062V38.2812C511.419 35.6771 511.029 33.5938 510.508 32.0312C508.034 25.651 503.542 21.0938 497.031 18.3594C493.255 17.4479 491.367 16.9922 491.367 16.9922ZM530.656 17.7734V1.17188H615.227V17.7734H581.438V137.891H564.25V17.7734H530.656Z" fill="#0004EB"/>
</svg>
