<svg width="672" height="138" viewBox="0 0 672 138" fill="none" xmlns="http://www.w3.org/2000/svg">
<path d="M0 136.523V0H71.0938V16.7969H16.9922V60.1562H52.7344V77.1484H16.9922V136.523H0ZM78.5469 136.719V0H149.641V16.7969H95.5391V60.1562H131.281V77.1484H95.5391V119.922H149.641V136.719H78.5469ZM156.312 136.719L182.289 21.2891H185.414L192.055 51.5625L173.109 136.719H156.312ZM187.562 114.844L191.273 98.2422H212.172L190.492 0.195312H207.484L238.344 136.719H221.352L216.469 114.844H187.562ZM239.742 16.6016V0H324.312V16.6016H290.523V136.719H273.336V16.6016H239.742ZM327.664 99.0234V0H344.852V99.0234C344.852 107.617 349.344 114.062 358.328 118.359C361.583 119.922 364.318 120.703 366.531 120.703V137.695C358.979 137.695 351.427 135.026 343.875 129.688C333.198 122.005 327.794 111.784 327.664 99.0234ZM376.297 137.695V120.703C380.594 120.703 385.021 118.945 389.578 115.43C395.047 111.133 397.846 105.664 397.977 99.0234V0H414.969V99.0234C414.969 113.607 408.458 124.609 395.438 132.031C388.797 135.807 382.417 137.695 376.297 137.695ZM423.398 136.719V0H440.391V136.719H423.398ZM450.156 77.5391V62.1094H467.93C481.732 61.849 488.698 54.1667 488.828 39.0625C488.568 23.5677 480.69 15.7552 465.195 15.625H450.156V0H468.32C487.201 0.651042 498.854 8.52865 503.281 23.6328C504.583 27.9297 505.234 32.6172 505.234 37.6953C505.104 52.7995 500.612 63.4115 491.758 69.5312C499.31 73.5677 503.867 80.9245 505.43 91.6016C505.56 92.513 505.69 93.4245 505.82 94.3359L509.141 136.719H493.125L490.195 101.953C489.154 90.7552 486.289 83.5938 481.602 80.4688C478.477 78.3854 474.245 77.4089 468.906 77.5391H450.156ZM515.227 136.719V0H586.32V16.7969H532.219V60.1562H567.961V77.1484H532.219V119.922H586.32V136.719H515.227ZM594.945 136.719V0H611.938V136.719H594.945ZM621.703 136.719V119.922C634.984 119.922 643.904 117.839 648.461 113.672C652.367 110.026 654.32 104.883 654.32 98.2422V38.4766C654.32 27.0182 647.745 20.1172 634.594 17.7734C630.948 17.1224 626.651 16.7969 621.703 16.7969V0C644.88 0 660.049 6.77083 667.211 20.3125C670.076 25.5208 671.508 31.5755 671.508 38.4766V98.2422C671.508 122.721 656.599 135.547 626.781 136.719C625.089 136.719 623.396 136.719 621.703 136.719Z" fill="#0004EB"/>
</svg>
