<svg width="1080" height="345" viewBox="0 0 1080 345" fill="none" xmlns="http://www.w3.org/2000/svg">
<path d="M969.891 335.209C969.891 331.178 971.682 328.322 975.266 326.643C976.609 325.971 977.953 325.635 979.297 325.635C983.216 325.635 986.072 327.482 987.863 331.178C988.423 332.521 988.703 333.865 988.703 335.209C988.703 339.016 986.967 341.76 983.496 343.439C982.04 344.111 980.641 344.447 979.297 344.447C975.378 344.447 972.578 342.712 970.898 339.24C970.227 337.896 969.891 336.553 969.891 335.209Z" fill="black"/>
<path d="M969.891 335.209C969.891 331.178 971.682 328.322 975.266 326.643C976.609 325.971 977.953 325.635 979.297 325.635C983.216 325.635 986.072 327.482 987.863 331.178C988.423 332.521 988.703 333.865 988.703 335.209C988.703 339.016 986.967 341.76 983.496 343.439C982.04 344.111 980.641 344.447 979.297 344.447C975.378 344.447 972.578 342.712 970.898 339.24C970.227 337.896 969.891 336.553 969.891 335.209Z" fill="black"/>
<path d="M892.883 343.775V226.197H954.023V240.643H907.496V277.932H938.234V292.545H907.496V329.33H954.023V343.775H892.883Z" fill="black"/>
<path d="M892.883 343.775V226.197H954.023V240.643H907.496V277.932H938.234V292.545H907.496V329.33H954.023V343.775H892.883Z" fill="black"/>
<path d="M806.969 240.475V226.197H879.699V240.475H850.641V343.775H835.859V240.475H806.969Z" fill="black"/>
<path d="M806.969 240.475V226.197H879.699V240.475H850.641V343.775H835.859V240.475H806.969Z" fill="black"/>
<path d="M778.836 343.775V226.197H793.449V343.775H778.836Z" fill="black"/>
<path d="M778.836 343.775V226.197H793.449V343.775H778.836Z" fill="black"/>
<path d="M689.898 317.236L703.336 312.533C704.008 317.236 705.799 321.1 708.711 324.123C711.734 327.146 714.59 328.994 717.277 329.666L721.141 330.674V344.279C711.286 344.279 703 340.08 696.281 331.682C692.138 326.419 690.01 321.604 689.898 317.236ZM691.242 257.943C691.242 245.85 696.449 236.779 706.863 230.732C712.014 227.709 716.773 226.197 721.141 226.197V239.971C717.221 240.419 713.526 242.49 710.055 246.186C706.919 249.657 705.352 253.632 705.352 258.111C705.352 264.942 710.279 270.093 720.133 273.564C722.596 274.348 726.348 275.412 731.387 276.756C736.65 278.212 740.345 279.331 742.473 280.115C752.551 284.258 758.99 289.913 761.789 297.08C763.245 300.663 763.973 304.695 763.973 309.174C763.973 318.916 760.221 327.37 752.719 334.537C745.888 341.032 738.161 344.279 729.539 344.279V330.674C734.13 330.45 738.553 328.266 742.809 324.123C747.064 319.756 749.247 314.773 749.359 309.174C749.359 301.335 743.928 295.624 733.066 292.041C730.715 291.257 727.132 290.305 722.316 289.186C717.165 287.954 713.694 286.946 711.902 286.162C702.384 282.243 696.281 277.092 693.594 270.709C692.026 267.014 691.242 262.758 691.242 257.943ZM729.539 239.971V226.197C739.281 226.197 747.4 230.508 753.895 239.131C757.142 243.498 758.934 247.417 759.27 250.889L745.664 255.424C744.096 247.585 739.617 242.602 732.227 240.475C730.435 240.139 729.539 239.971 729.539 239.971Z" fill="black"/>
<path d="M689.898 317.236L703.336 312.533C704.008 317.236 705.799 321.1 708.711 324.123C711.734 327.146 714.59 328.994 717.277 329.666L721.141 330.674V344.279C711.286 344.279 703 340.08 696.281 331.682C692.138 326.419 690.01 321.604 689.898 317.236ZM691.242 257.943C691.242 245.85 696.449 236.779 706.863 230.732C712.014 227.709 716.773 226.197 721.141 226.197V239.971C717.221 240.419 713.526 242.49 710.055 246.186C706.919 249.657 705.352 253.632 705.352 258.111C705.352 264.942 710.279 270.093 720.133 273.564C722.596 274.348 726.348 275.412 731.387 276.756C736.65 278.212 740.345 279.331 742.473 280.115C752.551 284.258 758.99 289.913 761.789 297.08C763.245 300.663 763.973 304.695 763.973 309.174C763.973 318.916 760.221 327.37 752.719 334.537C745.888 341.032 738.161 344.279 729.539 344.279V330.674C734.13 330.45 738.553 328.266 742.809 324.123C747.064 319.756 749.247 314.773 749.359 309.174C749.359 301.335 743.928 295.624 733.066 292.041C730.715 291.257 727.132 290.305 722.316 289.186C717.165 287.954 713.694 286.946 711.902 286.162C702.384 282.243 696.281 277.092 693.594 270.709C692.026 267.014 691.242 262.758 691.242 257.943ZM729.539 239.971V226.197C739.281 226.197 747.4 230.508 753.895 239.131C757.142 243.498 758.934 247.417 759.27 250.889L745.664 255.424C744.096 247.585 739.617 242.602 732.227 240.475C730.435 240.139 729.539 239.971 729.539 239.971Z" fill="black"/>
<path d="M603.984 343.775V226.197H618.598V343.775H603.984ZM626.996 343.943V330.842H635.898C642.281 330.842 647.656 329.554 652.023 326.979C658.406 322.947 661.598 317.012 661.598 309.174C661.598 307.27 661.374 305.479 660.926 303.799C658.798 295.512 652.471 291.369 641.945 291.369H626.996V278.268H641.945C643.849 278.268 645.641 278.1 647.32 277.764C656.615 276.084 661.262 270.373 661.262 260.631C661.262 257.271 660.478 254.024 658.91 250.889C655.103 243.162 648.44 239.299 638.922 239.299H626.996V226.197H640.602C650.568 226.197 658.686 228.941 664.957 234.428C672.236 240.811 675.875 249.265 675.875 259.791C675.875 261.247 675.763 262.758 675.539 264.326C674.419 273.285 670.668 280.115 664.285 284.818C672.124 290.865 676.099 299.264 676.211 310.014C676.211 317.292 674.251 323.843 670.332 329.666C663.837 339.184 654.039 343.943 640.938 343.943H626.996Z" fill="black"/>
<path d="M603.984 343.775V226.197H618.598V343.775H603.984ZM626.996 343.943V330.842H635.898C642.281 330.842 647.656 329.554 652.023 326.979C658.406 322.947 661.598 317.012 661.598 309.174C661.598 307.27 661.374 305.479 660.926 303.799C658.798 295.512 652.471 291.369 641.945 291.369H626.996V278.268H641.945C643.849 278.268 645.641 278.1 647.32 277.764C656.615 276.084 661.262 270.373 661.262 260.631C661.262 257.271 660.478 254.024 658.91 250.889C655.103 243.162 648.44 239.299 638.922 239.299H626.996V226.197H640.602C650.568 226.197 658.686 228.941 664.957 234.428C672.236 240.811 675.875 249.265 675.875 259.791C675.875 261.247 675.763 262.758 675.539 264.326C674.419 273.285 670.668 280.115 664.285 284.818C672.124 290.865 676.099 299.264 676.211 310.014C676.211 317.292 674.251 323.843 670.332 329.666C663.837 339.184 654.039 343.943 640.938 343.943H626.996Z" fill="black"/>
<path d="M526.977 343.775V226.197H588.117V240.643H541.59V277.932H572.328V292.545H541.59V329.33H588.117V343.775H526.977Z" fill="black"/>
<path d="M526.977 343.775V226.197H588.117V240.643H541.59V277.932H572.328V292.545H541.59V329.33H588.117V343.775H526.977Z" fill="black"/>
<path d="M385.297 226.197H400.078L429.641 327.314L424.434 343.775H419.395L385.297 226.197ZM425.609 287.002L442.238 226.197H457.02L484.902 327.986L479.695 343.775H474.656L449.629 252.736C440.783 284.65 435.464 303.519 433.672 309.342H431.992L425.609 287.002ZM482.215 287.002L500.188 226.197H514.969L490.445 309.342H488.766L482.215 287.002Z" fill="black"/>
<path d="M385.297 226.197H400.078L429.641 327.314L424.434 343.775H419.395L385.297 226.197ZM425.609 287.002L442.238 226.197H457.02L484.902 327.986L479.695 343.775H474.656L449.629 252.736C440.783 284.65 435.464 303.519 433.672 309.342H431.992L425.609 287.002ZM482.215 287.002L500.188 226.197H514.969L490.445 309.342H488.766L482.215 287.002Z" fill="black"/>
<path d="M260.836 240.475V226.197H333.566V240.475H304.508V343.775H289.727V240.475H260.836Z" fill="black"/>
<path d="M260.836 240.475V226.197H333.566V240.475H304.508V343.775H289.727V240.475H260.836Z" fill="black"/>
<path d="M181.312 343.775L208.691 282.971L183.328 226.197H197.605L215.914 264.998L234.223 226.197H248.5L223.137 282.971L250.516 343.775H235.566L215.914 301.615L196.262 343.775H181.312Z" fill="black"/>
<path d="M181.312 343.775L208.691 282.971L183.328 226.197H197.605L215.914 264.998L234.223 226.197H248.5L223.137 282.971L250.516 343.775H235.566L215.914 301.615L196.262 343.775H181.312Z" fill="black"/>
<path d="M106.312 343.775V226.197H167.453V240.643H120.926V277.932H151.664V292.545H120.926V329.33H167.453V343.775H106.312Z" fill="black"/>
<path d="M106.312 343.775V226.197H167.453V240.643H120.926V277.932H151.664V292.545H120.926V329.33H167.453V343.775H106.312Z" fill="black"/>
<path d="M14.1875 343.775L14.1875 251.896H15.5312L28.8008 273.396L28.8008 343.775H14.1875ZM14.1875 235.604V226.197H26.7852L88.9336 325.803V343.775H81.7109L14.1875 235.604ZM74.3203 287.674V226.197H88.9336V309.174H87.5898L74.3203 287.674Z" fill="black"/>
<path d="M14.1875 343.775L14.1875 251.896H15.5312L28.8008 273.396L28.8008 343.775H14.1875ZM14.1875 235.604V226.197H26.7852L88.9336 325.803V343.775H81.7109L14.1875 235.604ZM74.3203 287.674V226.197H88.9336V309.174H87.5898L74.3203 287.674Z" fill="black"/>
<path d="M1005.49 173.775V56.1973H1020.11V173.775H1005.49ZM1028.5 122.881V109.611H1043.79C1055.66 109.387 1061.65 102.781 1061.76 89.791C1061.54 76.4655 1054.76 69.7467 1041.44 69.6348H1028.5V56.1973H1044.12C1060.36 56.7572 1070.38 63.5319 1074.19 76.5215C1075.31 80.2168 1075.87 84.248 1075.87 88.6152C1075.76 101.605 1071.9 110.731 1064.28 115.994C1070.78 119.465 1074.7 125.792 1076.04 134.975C1076.15 135.758 1076.26 136.542 1076.37 137.326L1079.23 173.775H1065.46L1062.94 143.877C1062.04 134.247 1059.58 128.088 1055.55 125.4C1052.86 123.609 1049.22 122.769 1044.63 122.881H1028.5Z" fill="black"/>
<path d="M1005.49 173.775V56.1973H1020.11V173.775H1005.49ZM1028.5 122.881V109.611H1043.79C1055.66 109.387 1061.65 102.781 1061.76 89.791C1061.54 76.4655 1054.76 69.7467 1041.44 69.6348H1028.5V56.1973H1044.12C1060.36 56.7572 1070.38 63.5319 1074.19 76.5215C1075.31 80.2168 1075.87 84.248 1075.87 88.6152C1075.76 101.605 1071.9 110.731 1064.28 115.994C1070.78 119.465 1074.7 125.792 1076.04 134.975C1076.15 135.758 1076.26 136.542 1076.37 137.326L1079.23 173.775H1065.46L1062.94 143.877C1062.04 134.247 1059.58 128.088 1055.55 125.4C1052.86 123.609 1049.22 122.769 1044.63 122.881H1028.5Z" fill="black"/>
<path d="M913.703 141.357V56.1973H928.484V141.357C928.484 148.748 932.348 154.291 940.074 157.986C942.874 159.33 945.225 160.002 947.129 160.002V174.615C940.634 174.615 934.139 172.32 927.645 167.729C918.462 161.122 913.815 152.331 913.703 141.357ZM955.527 174.615V160.002C959.223 160.002 963.03 158.49 966.949 155.467C971.652 151.771 974.06 147.068 974.172 141.357V56.1973L988.785 56.1973V141.357C988.785 153.899 983.186 163.361 971.988 169.744C966.277 172.992 960.79 174.615 955.527 174.615Z" fill="black"/>
<path d="M913.703 141.357V56.1973H928.484V141.357C928.484 148.748 932.348 154.291 940.074 157.986C942.874 159.33 945.225 160.002 947.129 160.002V174.615C940.634 174.615 934.139 172.32 927.645 167.729C918.462 161.122 913.815 152.331 913.703 141.357ZM955.527 174.615V160.002C959.223 160.002 963.03 158.49 966.949 155.467C971.652 151.771 974.06 147.068 974.172 141.357V56.1973L988.785 56.1973V141.357C988.785 153.899 983.186 163.361 971.988 169.744C966.277 172.992 960.79 174.615 955.527 174.615Z" fill="black"/>
<path d="M822.414 141.021V85.7598C822.414 79.8249 824.934 73.778 829.973 67.6191C836.691 59.5566 845.202 55.4694 855.504 55.3574V69.9707C848.673 69.9707 843.354 73.4421 839.547 80.3848C837.979 83.4082 837.195 86.0957 837.195 88.4473V141.021C837.195 148.076 840.667 153.563 847.609 157.482C850.521 159.162 853.096 160.002 855.336 160.002V174.615C848.953 174.615 842.57 172.32 836.188 167.729C827.117 161.01 822.526 152.107 822.414 141.021ZM864.574 174.615V160.002C868.493 160.002 872.469 158.266 876.5 154.795C880.755 150.988 882.939 146.396 883.051 141.021V88.4473C883.051 84.0801 881.259 79.8809 877.676 75.8496C873.98 72.0423 869.613 70.0827 864.574 69.9707V55.3574C875.884 55.3574 884.954 60.2285 891.785 69.9707C895.704 75.5697 897.664 80.8327 897.664 85.7598V141.021C897.664 153.451 892.121 162.969 881.035 169.576C875.212 172.936 869.725 174.615 864.574 174.615Z" fill="black"/>
<path d="M822.414 141.021V85.7598C822.414 79.8249 824.934 73.778 829.973 67.6191C836.691 59.5566 845.202 55.4694 855.504 55.3574V69.9707C848.673 69.9707 843.354 73.4421 839.547 80.3848C837.979 83.4082 837.195 86.0957 837.195 88.4473V141.021C837.195 148.076 840.667 153.563 847.609 157.482C850.521 159.162 853.096 160.002 855.336 160.002V174.615C848.953 174.615 842.57 172.32 836.188 167.729C827.117 161.01 822.526 152.107 822.414 141.021ZM864.574 174.615V160.002C868.493 160.002 872.469 158.266 876.5 154.795C880.755 150.988 882.939 146.396 883.051 141.021V88.4473C883.051 84.0801 881.259 79.8809 877.676 75.8496C873.98 72.0423 869.613 70.0827 864.574 69.9707V55.3574C875.884 55.3574 884.954 60.2285 891.785 69.9707C895.704 75.5697 897.664 80.8327 897.664 85.7598V141.021C897.664 153.451 892.121 162.969 881.035 169.576C875.212 172.936 869.725 174.615 864.574 174.615Z" fill="black"/>
<path d="M737.172 56.1973H752.289L778.828 131.279V173.775H763.879V131.447L737.172 56.1973ZM776.477 97.3496L793.777 56.1973L808.895 56.1973L784.539 120.025H783.363L776.477 97.3496Z" fill="black"/>
<path d="M737.172 56.1973H752.289L778.828 131.279V173.775H763.879V131.447L737.172 56.1973ZM776.477 97.3496L793.777 56.1973L808.895 56.1973L784.539 120.025H783.363L776.477 97.3496Z" fill="black"/>
<path d="M612.375 173.775V56.1973H626.988V173.775H612.375ZM635.387 121.201V106.924H651.344C662.43 106.812 668.085 100.653 668.309 88.4473C668.197 76.5775 662.486 70.5306 651.176 70.3066H635.387V56.1973H653.527C654.199 56.1973 654.871 56.1973 655.543 56.1973C674.02 57.2051 683.258 67.9551 683.258 88.4473C683.258 94.6061 682.53 99.9251 681.074 104.404C677.379 115.49 668.197 121.089 653.527 121.201H635.387Z" fill="black"/>
<path d="M612.375 173.775V56.1973H626.988V173.775H612.375ZM635.387 121.201V106.924H651.344C662.43 106.812 668.085 100.653 668.309 88.4473C668.197 76.5775 662.486 70.5306 651.176 70.3066H635.387V56.1973H653.527C654.199 56.1973 654.871 56.1973 655.543 56.1973C674.02 57.2051 683.258 67.9551 683.258 88.4473C683.258 94.6061 682.53 99.9251 681.074 104.404C677.379 115.49 668.197 121.089 653.527 121.201H635.387Z" fill="black"/>
<path d="M580.219 173.775V56.1973H594.832V173.775H580.219Z" fill="black"/>
<path d="M580.219 173.775V56.1973H594.832V173.775H580.219Z" fill="black"/>
<path d="M495.141 173.775V56.1973H509.754V107.428H524.871V121.705H509.754V173.775H495.141ZM533.27 121.705V107.428H548.219V56.1973L563 56.1973V173.775H548.219V121.705H533.27Z" fill="black"/>
<path d="M495.141 173.775V56.1973H509.754V107.428H524.871V121.705H509.754V173.775H495.141ZM533.27 121.705V107.428H548.219V56.1973L563 56.1973V173.775H548.219V121.705H533.27Z" fill="black"/>
<path d="M406.539 147.236L419.977 142.533C420.648 147.236 422.44 151.1 425.352 154.123C428.375 157.146 431.23 158.994 433.918 159.666L437.781 160.674V174.279C427.927 174.279 419.641 170.08 412.922 161.682C408.779 156.419 406.651 151.604 406.539 147.236ZM407.883 87.9434C407.883 75.8496 413.09 66.7793 423.504 60.7324C428.655 57.709 433.414 56.1973 437.781 56.1973V69.9707C433.862 70.4186 430.167 72.4902 426.695 76.1855C423.56 79.6569 421.992 83.6322 421.992 88.1113C421.992 94.9421 426.919 100.093 436.773 103.564C439.237 104.348 442.988 105.412 448.027 106.756C453.29 108.212 456.986 109.331 459.113 110.115C469.191 114.258 475.63 119.913 478.43 127.08C479.885 130.663 480.613 134.695 480.613 139.174C480.613 148.916 476.862 157.37 469.359 164.537C462.529 171.032 454.802 174.279 446.18 174.279V160.674C450.771 160.45 455.194 158.266 459.449 154.123C463.704 149.756 465.888 144.773 466 139.174C466 131.335 460.569 125.624 449.707 122.041C447.355 121.257 443.772 120.305 438.957 119.186C433.806 117.954 430.335 116.946 428.543 116.162C419.025 112.243 412.922 107.092 410.234 100.709C408.667 97.0137 407.883 92.7585 407.883 87.9434ZM446.18 69.9707V56.1973C455.922 56.1973 464.04 60.5085 470.535 69.1309C473.783 73.498 475.574 77.4173 475.91 80.8887L462.305 85.4238C460.737 77.5853 456.258 72.6022 448.867 70.4746C447.076 70.1387 446.18 69.9707 446.18 69.9707Z" fill="black"/>
<path d="M406.539 147.236L419.977 142.533C420.648 147.236 422.44 151.1 425.352 154.123C428.375 157.146 431.23 158.994 433.918 159.666L437.781 160.674V174.279C427.927 174.279 419.641 170.08 412.922 161.682C408.779 156.419 406.651 151.604 406.539 147.236ZM407.883 87.9434C407.883 75.8496 413.09 66.7793 423.504 60.7324C428.655 57.709 433.414 56.1973 437.781 56.1973V69.9707C433.862 70.4186 430.167 72.4902 426.695 76.1855C423.56 79.6569 421.992 83.6322 421.992 88.1113C421.992 94.9421 426.919 100.093 436.773 103.564C439.237 104.348 442.988 105.412 448.027 106.756C453.29 108.212 456.986 109.331 459.113 110.115C469.191 114.258 475.63 119.913 478.43 127.08C479.885 130.663 480.613 134.695 480.613 139.174C480.613 148.916 476.862 157.37 469.359 164.537C462.529 171.032 454.802 174.279 446.18 174.279V160.674C450.771 160.45 455.194 158.266 459.449 154.123C463.704 149.756 465.888 144.773 466 139.174C466 131.335 460.569 125.624 449.707 122.041C447.355 121.257 443.772 120.305 438.957 119.186C433.806 117.954 430.335 116.946 428.543 116.162C419.025 112.243 412.922 107.092 410.234 100.709C408.667 97.0137 407.883 92.7585 407.883 87.9434ZM446.18 69.9707V56.1973C455.922 56.1973 464.04 60.5085 470.535 69.1309C473.783 73.498 475.574 77.4173 475.91 80.8887L462.305 85.4238C460.737 77.5853 456.258 72.6022 448.867 70.4746C447.076 70.1387 446.18 69.9707 446.18 69.9707Z" fill="black"/>
<path d="M276.711 147.236L290.148 142.533C290.82 147.236 292.612 151.1 295.523 154.123C298.547 157.146 301.402 158.994 304.09 159.666L307.953 160.674V174.279C298.099 174.279 289.812 170.08 283.094 161.682C278.951 156.419 276.823 151.604 276.711 147.236ZM278.055 87.9434C278.055 75.8496 283.262 66.7793 293.676 60.7324C298.827 57.709 303.586 56.1973 307.953 56.1973V69.9707C304.034 70.4186 300.339 72.4902 296.867 76.1855C293.732 79.6569 292.164 83.6322 292.164 88.1113C292.164 94.9421 297.091 100.093 306.945 103.564C309.409 104.348 313.16 105.412 318.199 106.756C323.462 108.212 327.158 109.331 329.285 110.115C339.363 114.258 345.802 119.913 348.602 127.08C350.057 130.663 350.785 134.695 350.785 139.174C350.785 148.916 347.034 157.37 339.531 164.537C332.701 171.032 324.974 174.279 316.352 174.279V160.674C320.943 160.45 325.366 158.266 329.621 154.123C333.876 149.756 336.06 144.773 336.172 139.174C336.172 131.335 330.741 125.624 319.879 122.041C317.527 121.257 313.944 120.305 309.129 119.186C303.978 117.954 300.507 116.946 298.715 116.162C289.197 112.243 283.094 107.092 280.406 100.709C278.839 97.0137 278.055 92.7585 278.055 87.9434ZM316.352 69.9707V56.1973C326.094 56.1973 334.212 60.5085 340.707 69.1309C343.954 73.498 345.746 77.4173 346.082 80.8887L332.477 85.4238C330.909 77.5853 326.43 72.6022 319.039 70.4746C317.247 70.1387 316.352 69.9707 316.352 69.9707Z" fill="black"/>
<path d="M276.711 147.236L290.148 142.533C290.82 147.236 292.612 151.1 295.523 154.123C298.547 157.146 301.402 158.994 304.09 159.666L307.953 160.674V174.279C298.099 174.279 289.812 170.08 283.094 161.682C278.951 156.419 276.823 151.604 276.711 147.236ZM278.055 87.9434C278.055 75.8496 283.262 66.7793 293.676 60.7324C298.827 57.709 303.586 56.1973 307.953 56.1973V69.9707C304.034 70.4186 300.339 72.4902 296.867 76.1855C293.732 79.6569 292.164 83.6322 292.164 88.1113C292.164 94.9421 297.091 100.093 306.945 103.564C309.409 104.348 313.16 105.412 318.199 106.756C323.462 108.212 327.158 109.331 329.285 110.115C339.363 114.258 345.802 119.913 348.602 127.08C350.057 130.663 350.785 134.695 350.785 139.174C350.785 148.916 347.034 157.37 339.531 164.537C332.701 171.032 324.974 174.279 316.352 174.279V160.674C320.943 160.45 325.366 158.266 329.621 154.123C333.876 149.756 336.06 144.773 336.172 139.174C336.172 131.335 330.741 125.624 319.879 122.041C317.527 121.257 313.944 120.305 309.129 119.186C303.978 117.954 300.507 116.946 298.715 116.162C289.197 112.243 283.094 107.092 280.406 100.709C278.839 97.0137 278.055 92.7585 278.055 87.9434ZM316.352 69.9707V56.1973C326.094 56.1973 334.212 60.5085 340.707 69.1309C343.954 73.498 345.746 77.4173 346.082 80.8887L332.477 85.4238C330.909 77.5853 326.43 72.6022 319.039 70.4746C317.247 70.1387 316.352 69.9707 316.352 69.9707Z" fill="black"/>
<path d="M249.586 95.6699V50.1504H263.191V95.6699H249.586Z" fill="black"/>
<path d="M249.586 95.6699V50.1504H263.191V95.6699H249.586Z" fill="black"/>
<path d="M164.68 70.4746V56.1973L237.41 56.1973V70.4746H208.352V173.775H193.57V70.4746H164.68Z" fill="black"/>
<path d="M164.68 70.4746V56.1973L237.41 56.1973V70.4746H208.352V173.775H193.57V70.4746H164.68Z" fill="black"/>
<path d="M90.5234 173.775V56.1973H151.664V70.6426H105.137V107.932H135.875V122.545H105.137V159.33H151.664V173.775H90.5234Z" fill="black"/>
<path d="M90.5234 173.775V56.1973H151.664V70.6426H105.137V107.932H135.875V122.545H105.137V159.33H151.664V173.775H90.5234Z" fill="black"/>
<path d="M14.0234 173.775L14.0234 56.1973H28.6367L28.6367 159.33H77.1797V173.775H14.0234Z" fill="black"/>
<path d="M14.0234 173.775L14.0234 56.1973H28.6367L28.6367 159.33H77.1797V173.775H14.0234Z" fill="black"/>
<path d="M119.505 34.655C118.801 34.047 118.305 33.471 118.017 32.927C117.761 32.415 117.633 31.919 117.633 31.439C117.633 31.247 117.665 31.071 117.729 30.911C117.761 30.719 117.793 30.527 117.825 30.335C117.985 29.855 118.353 29.039 118.929 27.887C119.537 26.735 120.257 25.423 121.089 23.951C121.953 22.479 122.865 20.991 123.825 19.487C124.785 17.951 125.697 16.575 126.561 15.359C126.273 15.423 125.969 15.471 125.649 15.503C125.361 15.535 125.073 15.551 124.785 15.551C123.985 15.551 123.265 15.503 122.625 15.407C122.017 15.279 121.665 15.199 121.569 15.167C121.249 15.103 121.041 14.895 120.945 14.543C120.881 14.159 120.865 13.775 120.897 13.391C120.801 13.359 120.737 13.311 120.705 13.247C120.673 13.183 120.641 13.135 120.609 13.103C120.609 13.039 120.593 12.975 120.561 12.911C120.561 12.847 120.561 12.783 120.561 12.719C120.561 12.399 120.641 12.191 120.801 12.095C120.993 11.999 121.201 11.951 121.425 11.951C121.681 11.951 121.953 11.983 122.241 12.047C122.561 12.079 122.881 12.095 123.201 12.095C123.745 12.095 124.321 12.047 124.929 11.951C125.537 11.823 125.889 11.663 125.985 11.471C126.081 11.279 126.177 11.183 126.273 11.183C126.337 11.183 126.433 11.359 126.561 11.711C126.561 11.743 126.561 11.775 126.561 11.807C126.593 11.839 126.609 11.887 126.609 11.951C126.609 12.239 126.481 12.543 126.225 12.863H128.289C128.833 12.159 129.425 11.375 130.065 10.511C130.737 9.61499 131.393 8.73498 132.033 7.87098C132.705 6.97498 133.297 6.17498 133.809 5.47098C134.353 4.76698 134.753 4.22298 135.009 3.83898C134.881 3.71098 134.817 3.55098 134.817 3.35898C134.817 3.10298 134.881 2.84698 135.009 2.59098C135.169 2.33498 135.249 2.14298 135.249 2.01499C135.249 1.91898 135.217 1.80698 135.153 1.67898C135.121 1.55098 135.105 1.43898 135.105 1.34299C135.105 1.08698 135.249 0.958984 135.537 0.958984C135.601 0.958984 135.761 0.990984 136.017 1.05498C136.433 1.18298 136.961 1.43898 137.601 1.82299C138.273 2.20698 138.849 2.63898 139.329 3.11899C139.809 3.59898 139.953 4.09498 139.761 4.60698C139.537 4.86298 139.137 5.31098 138.561 5.95098C138.017 6.59099 137.393 7.32698 136.689 8.15898C135.985 8.95898 135.281 9.79099 134.577 10.655C133.905 11.487 133.297 12.255 132.753 12.959C133.617 12.895 134.497 12.847 135.393 12.815C136.321 12.783 137.137 12.751 137.841 12.719C138.577 12.687 139.057 12.671 139.281 12.671C139.857 12.671 140.145 12.751 140.145 12.911C140.145 13.039 140.017 13.167 139.761 13.295C139.505 13.423 139.233 13.519 138.945 13.583C138.913 13.551 138.465 13.583 137.601 13.679C136.769 13.775 135.937 13.871 135.105 13.967C134.721 13.999 134.225 14.047 133.617 14.111C133.041 14.143 132.481 14.175 131.937 14.207L131.745 14.399C132.449 14.367 133.233 14.335 134.097 14.303C134.993 14.239 135.697 14.207 136.209 14.207C135.665 14.303 134.945 14.383 134.049 14.447C133.153 14.479 132.289 14.559 131.457 14.687C130.817 15.391 130.097 16.271 129.297 17.327C128.529 18.351 127.713 19.455 126.849 20.639C126.017 21.791 125.217 22.927 124.449 24.047C123.681 25.135 122.993 26.111 122.385 26.975C121.777 27.839 121.313 28.479 120.993 28.895C121.441 28.735 121.969 28.511 122.577 28.223C123.185 27.903 123.793 27.567 124.401 27.215C125.809 26.287 127.313 25.279 128.913 24.191C130.545 23.103 131.969 22.159 133.185 21.359C133.953 20.879 134.705 20.367 135.441 19.823C136.209 19.247 136.945 18.655 137.649 18.047C137.713 17.983 137.745 17.983 137.745 18.047C137.777 18.111 137.761 18.175 137.697 18.239L135.873 19.871C135.905 19.999 135.921 20.127 135.921 20.255C135.921 20.351 135.921 20.463 135.921 20.591C135.921 20.879 135.873 21.151 135.777 21.407C135.713 21.663 135.569 21.871 135.345 22.031C134.801 22.383 133.969 22.959 132.849 23.759C131.761 24.559 130.529 25.487 129.153 26.543C127.777 27.567 126.417 28.607 125.073 29.663C123.761 30.719 122.593 31.695 121.569 32.591C120.545 33.487 119.857 34.175 119.505 34.655ZM120.321 29.855L122.625 28.415L120.657 29.327L120.321 29.855Z" fill="black"/>
<path d="M107.855 32.1117C107.151 32.1117 106.399 31.8397 105.599 31.2957C104.799 30.7517 104.111 30.1117 103.535 29.3757C102.991 28.6397 102.719 27.9677 102.719 27.3597C102.719 26.3997 102.975 25.3757 103.487 24.2877C103.999 23.1677 104.671 22.0477 105.503 20.9277C106.335 19.8077 107.263 18.7677 108.287 17.8077C109.311 16.8157 110.335 15.9837 111.359 15.3117C111.423 14.9597 111.695 14.6077 112.175 14.2557C112.655 13.8717 113.231 13.6797 113.903 13.6797C114.287 13.6797 114.655 13.7437 115.007 13.8717C115.391 13.8717 115.839 14.1437 116.351 14.6877C116.863 15.1997 117.327 15.7597 117.743 16.3677C118.159 16.9757 118.399 17.4397 118.463 17.7597C118.463 18.2397 118.207 18.7517 117.695 19.2957C117.183 19.8077 116.623 20.2557 116.015 20.6397C115.439 21.0237 115.023 21.2157 114.767 21.2157C114.639 21.2157 114.575 21.1677 114.575 21.0717C114.575 20.8797 114.783 20.5277 115.199 20.0157C115.359 19.8557 115.551 19.5997 115.775 19.2477C115.999 18.8957 116.207 18.5437 116.399 18.1917C116.591 17.8397 116.687 17.5677 116.687 17.3757C116.079 17.4077 115.295 17.6797 114.335 18.1917C113.407 18.7037 112.431 19.3757 111.407 20.2077C110.415 21.0397 109.471 21.9357 108.575 22.8957C107.679 23.8557 106.943 24.8157 106.367 25.7757C105.823 26.7037 105.551 27.5197 105.551 28.2237C105.551 28.5437 105.631 28.8317 105.791 29.0877C105.951 29.3117 106.271 29.4077 106.751 29.3757C107.231 29.2157 107.791 28.9597 108.431 28.6077C109.103 28.2557 109.807 27.8557 110.543 27.4077L109.583 28.2717C109.487 28.3677 109.311 28.5757 109.055 28.8957C108.799 29.1837 108.735 29.2957 108.863 29.2317C109.503 28.6877 110.223 28.1117 111.023 27.5037C111.855 26.8637 112.719 26.2077 113.615 25.5357C113.103 25.8557 112.575 26.1917 112.031 26.5437C111.519 26.8637 111.023 27.1517 110.543 27.4077L113.183 25.4397C114.463 24.4797 115.663 23.6477 116.783 22.9437C117.903 22.2397 118.975 21.6637 119.999 21.2157C119.103 21.7597 118.127 22.3997 117.071 23.1357C116.047 23.8397 115.007 24.5597 113.951 25.2957C115.167 24.5277 116.367 23.7757 117.551 23.0397C118.767 22.3037 119.839 21.6797 120.767 21.1677C121.311 20.8797 121.711 20.7357 121.967 20.7357C122.191 20.7357 122.303 20.8157 122.303 20.9757C122.303 21.1037 122.159 21.3117 121.871 21.5997C121.615 21.8877 121.215 22.1757 120.671 22.4637C119.999 22.8157 119.215 23.3437 118.319 24.0477C117.423 24.7197 116.463 25.4717 115.439 26.3037C114.415 27.1357 113.407 27.9517 112.415 28.7517C111.455 29.5517 110.575 30.2557 109.775 30.8637C109.391 31.1517 109.039 31.4077 108.719 31.6317C108.399 31.8237 108.111 31.9837 107.855 32.1117Z" fill="black"/>
<path d="M87.1557 32.5922C86.9637 32.5922 86.6597 32.3682 86.2437 31.9202C85.8597 31.5042 85.4597 31.0402 85.0437 30.5282C84.6597 29.9842 84.3717 29.5842 84.1797 29.3282C84.4677 28.0802 84.9637 26.7842 85.6677 25.4402C86.4037 24.0642 87.2517 22.7202 88.2117 21.4082C89.1717 20.0962 90.1317 18.8802 91.0917 17.7602C92.0837 16.6402 92.9477 15.6962 93.6837 14.9282C93.1397 15.3442 92.5637 15.8882 91.9557 16.5602C91.3477 17.2002 90.9317 17.6322 90.7077 17.8562C90.3237 18.2402 89.9397 18.6242 89.5557 19.0082C89.1717 19.3602 88.8197 19.7122 88.4997 20.0642C89.4597 18.8802 90.4037 17.7922 91.3317 16.8002C92.2917 15.8082 92.9797 15.1522 93.3957 14.8322C93.4917 14.7362 93.6197 14.6242 93.7797 14.4962C93.9717 14.3682 94.1797 14.2882 94.4037 14.2562L94.7877 13.8242C95.6517 13.8562 96.5797 14.1282 97.5717 14.6402C98.5637 15.1202 99.4117 15.7602 100.116 16.5602C100.852 17.3282 101.236 18.2082 101.268 19.2002C101.268 19.3282 101.204 19.4562 101.076 19.5842C100.948 19.6802 100.852 19.6162 100.788 19.3922C100.564 18.9122 100.308 18.4802 100.02 18.0962C99.7317 17.7122 99.4117 17.4082 99.0597 17.1842C98.7397 16.9922 98.4037 16.8962 98.0517 16.8962C97.6677 16.8962 97.3157 17.0242 96.9957 17.2802C96.3557 17.7602 95.5877 18.4802 94.6917 19.4402C93.8277 20.3682 92.9477 21.3762 92.0517 22.4642C91.1877 23.5522 90.4037 24.6082 89.6997 25.6322C89.0277 26.6562 88.5637 27.5042 88.3077 28.1762C88.4997 27.9522 88.8357 27.6322 89.3157 27.2162C89.7957 26.8002 90.3077 26.3842 90.8517 25.9682C91.3957 25.5202 91.8597 25.1522 92.2437 24.8642C92.3717 24.7682 92.6437 24.5762 93.0597 24.2882C93.4757 24.0002 93.9077 23.6962 94.3557 23.3762C94.8357 23.0562 95.2197 22.8162 95.5077 22.6562C95.5077 22.7202 95.3157 22.8962 94.9317 23.1842C94.5797 23.4722 94.1477 23.7922 93.6357 24.1442C93.1237 24.4962 92.6437 24.8162 92.1957 25.1042C91.7797 25.3922 91.5237 25.5842 91.4277 25.6802C91.0757 26.0002 90.6597 26.3682 90.1797 26.7842C89.7317 27.2002 89.3157 27.5842 88.9317 27.9362C88.5477 28.2882 88.2917 28.5442 88.1637 28.7042C88.0997 28.8322 88.0837 28.9122 88.1157 28.9442C88.1477 28.9762 88.2117 28.9282 88.3077 28.8002C88.5957 28.3842 89.0277 27.9362 89.6037 27.4562C90.1797 26.9762 90.8037 26.4962 91.4757 26.0162C92.1797 25.5042 92.8037 25.0402 93.3477 24.6242C93.9877 24.1442 94.5637 23.7282 95.0757 23.3762C95.6197 22.9922 96.0997 22.6402 96.5157 22.3202C96.5477 21.6482 96.7877 21.1842 97.2357 20.9282C97.7157 20.6722 98.0837 20.5922 98.3397 20.6882C98.5317 20.7522 98.8197 20.8802 99.2037 21.0722C99.6197 21.2322 99.9877 21.4402 100.308 21.6962C100.628 21.9202 100.724 22.1762 100.596 22.4642C100.372 22.9762 100.196 23.7762 100.068 24.8642C99.9717 25.9202 99.9237 26.8962 99.9237 27.7922C99.9237 29.0722 100.324 29.7122 101.124 29.7122C101.54 29.7122 102.1 29.4882 102.804 29.0402C103.06 28.8802 103.252 28.8002 103.38 28.8002C103.476 28.8002 103.524 28.8482 103.524 28.9442C103.524 29.0722 103.444 29.2642 103.284 29.5202C103.124 29.7442 103.012 29.8882 102.948 29.9522C102.564 30.3682 102.1 30.7522 101.556 31.1042C101.044 31.4242 100.516 31.5842 99.9717 31.5842C99.7477 31.5842 99.5237 31.5522 99.2997 31.4882C99.0757 31.4242 98.8517 31.3122 98.6277 31.1522C97.8277 30.6082 97.2517 29.7762 96.8997 28.6562C96.5797 27.5362 96.4197 26.5762 96.4197 25.7762C96.4197 25.5842 96.4197 25.4082 96.4197 25.2482C96.4517 25.0882 96.4837 24.9442 96.5157 24.8162C96.1637 25.1042 95.5717 25.6002 94.7397 26.3042C93.9397 26.9762 93.0437 27.7442 92.0517 28.6082C91.0597 29.4402 90.1157 30.2242 89.2197 30.9602C88.3237 31.6962 87.6357 32.2402 87.1557 32.5922Z" fill="black"/>
<path d="M69.8408 34.655C69.1368 34.047 68.6408 33.471 68.3528 32.927C68.0968 32.415 67.9688 31.919 67.9688 31.439C67.9688 31.247 68.0008 31.071 68.0648 30.911C68.0968 30.719 68.1288 30.527 68.1608 30.335C68.3208 29.855 68.6887 29.039 69.2647 27.887C69.8727 26.735 70.5928 25.423 71.4248 23.951C72.2888 22.479 73.2008 20.991 74.1608 19.487C75.1208 17.951 76.0328 16.575 76.8968 15.359C76.6088 15.423 76.3047 15.471 75.9847 15.503C75.6967 15.535 75.4088 15.551 75.1208 15.551C74.3208 15.551 73.6008 15.503 72.9608 15.407C72.3528 15.279 72.0008 15.199 71.9048 15.167C71.5848 15.103 71.3768 14.895 71.2808 14.543C71.2168 14.159 71.2008 13.775 71.2327 13.391C71.1367 13.359 71.0727 13.311 71.0407 13.247C71.0087 13.183 70.9767 13.135 70.9447 13.103C70.9447 13.039 70.9288 12.975 70.8968 12.911C70.8968 12.847 70.8968 12.783 70.8968 12.719C70.8968 12.399 70.9767 12.191 71.1367 12.095C71.3287 11.999 71.5367 11.951 71.7607 11.951C72.0167 11.951 72.2888 11.983 72.5768 12.047C72.8968 12.079 73.2168 12.095 73.5368 12.095C74.0808 12.095 74.6567 12.047 75.2647 11.951C75.8727 11.823 76.2247 11.663 76.3207 11.471C76.4167 11.279 76.5127 11.183 76.6087 11.183C76.6727 11.183 76.7688 11.359 76.8968 11.711C76.8968 11.743 76.8968 11.775 76.8968 11.807C76.9288 11.839 76.9447 11.887 76.9447 11.951C76.9447 12.239 76.8168 12.543 76.5608 12.863H78.6247C79.1687 12.159 79.7607 11.375 80.4007 10.511C81.0728 9.61499 81.7288 8.73498 82.3688 7.87098C83.0408 6.97498 83.6328 6.17498 84.1448 5.47098C84.6888 4.76698 85.0887 4.22298 85.3447 3.83898C85.2167 3.71098 85.1527 3.55098 85.1527 3.35898C85.1527 3.10298 85.2167 2.84698 85.3447 2.59098C85.5047 2.33498 85.5847 2.14298 85.5847 2.01499C85.5847 1.91898 85.5528 1.80698 85.4888 1.67898C85.4568 1.55098 85.4408 1.43898 85.4408 1.34299C85.4408 1.08698 85.5847 0.958984 85.8727 0.958984C85.9367 0.958984 86.0968 0.990984 86.3528 1.05498C86.7688 1.18298 87.2968 1.43898 87.9368 1.82299C88.6088 2.20698 89.1847 2.63898 89.6647 3.11899C90.1447 3.59898 90.2887 4.09498 90.0967 4.60698C89.8727 4.86298 89.4728 5.31098 88.8968 5.95098C88.3528 6.59099 87.7288 7.32698 87.0247 8.15898C86.3208 8.95898 85.6168 9.79099 84.9128 10.655C84.2408 11.487 83.6328 12.255 83.0888 12.959C83.9528 12.895 84.8328 12.847 85.7288 12.815C86.6568 12.783 87.4727 12.751 88.1768 12.719C88.9128 12.687 89.3928 12.671 89.6168 12.671C90.1928 12.671 90.4808 12.751 90.4808 12.911C90.4808 13.039 90.3527 13.167 90.0967 13.295C89.8407 13.423 89.5688 13.519 89.2808 13.583C89.2488 13.551 88.8008 13.583 87.9368 13.679C87.1048 13.775 86.2727 13.871 85.4408 13.967C85.0568 13.999 84.5608 14.047 83.9528 14.111C83.3768 14.143 82.8168 14.175 82.2728 14.207L82.0807 14.399C82.7847 14.367 83.5688 14.335 84.4328 14.303C85.3288 14.239 86.0328 14.207 86.5448 14.207C86.0008 14.303 85.2808 14.383 84.3848 14.447C83.4888 14.479 82.6248 14.559 81.7928 14.687C81.1528 15.391 80.4328 16.271 79.6328 17.327C78.8648 18.351 78.0488 19.455 77.1848 20.639C76.3528 21.791 75.5528 22.927 74.7848 24.047C74.0168 25.135 73.3287 26.111 72.7207 26.975C72.1127 27.839 71.6488 28.479 71.3288 28.895C71.7768 28.735 72.3048 28.511 72.9128 28.223C73.5208 27.903 74.1287 27.567 74.7367 27.215C76.1447 26.287 77.6487 25.279 79.2487 24.191C80.8807 23.103 82.3048 22.159 83.5208 21.359C84.2888 20.879 85.0407 20.367 85.7767 19.823C86.5447 19.247 87.2807 18.655 87.9847 18.047C88.0487 17.983 88.0807 17.983 88.0807 18.047C88.1127 18.111 88.0968 18.175 88.0328 18.239L86.2088 19.871C86.2408 19.999 86.2568 20.127 86.2568 20.255C86.2568 20.351 86.2568 20.463 86.2568 20.591C86.2568 20.879 86.2088 21.151 86.1128 21.407C86.0488 21.663 85.9047 21.871 85.6807 22.031C85.1367 22.383 84.3048 22.959 83.1848 23.759C82.0968 24.559 80.8648 25.487 79.4888 26.543C78.1128 27.567 76.7528 28.607 75.4088 29.663C74.0968 30.719 72.9288 31.695 71.9048 32.591C70.8808 33.487 70.1928 34.175 69.8408 34.655ZM70.6568 29.855L72.9608 28.415L70.9928 29.327L70.6568 29.855Z" fill="black"/>
<path d="M48.5807 31.775C48.0367 31.711 47.6047 31.407 47.2847 30.863C46.9647 30.287 46.8047 29.743 46.8047 29.231C46.8047 28.815 47.0607 28.143 47.5727 27.215C48.0847 26.255 48.7247 25.183 49.4927 23.999C50.2927 22.783 51.1087 21.583 51.9407 20.399C52.8047 19.215 53.5727 18.175 54.2447 17.279C54.9167 16.351 55.3807 15.711 55.6367 15.359C54.8367 16.255 54.1807 17.007 53.6687 17.615C53.1887 18.191 52.9167 18.479 52.8527 18.479C52.8207 18.479 53.0767 18.063 53.6207 17.231C54.1967 16.399 55.1727 14.975 56.5487 12.959C56.8687 12.959 57.2687 13.103 57.7487 13.391C58.2287 13.679 58.6607 14.015 59.0447 14.399C59.4607 14.751 59.6687 15.087 59.6687 15.407C59.3807 15.855 58.9487 16.447 58.3727 17.183C57.7967 17.919 57.1407 18.703 56.4047 19.535C55.6687 20.367 54.9647 21.183 54.2927 21.983C53.6207 22.751 53.0447 23.423 52.5647 23.999C52.6607 23.903 53.0287 23.599 53.6687 23.087C54.3087 22.575 55.1087 21.935 56.0687 21.167C57.0287 20.367 58.0367 19.551 59.0927 18.719C60.1807 17.855 61.2207 17.055 62.2127 16.319C63.2047 15.551 64.0527 14.927 64.7567 14.447C65.4607 13.967 65.9087 13.727 66.1007 13.727C66.2607 13.727 66.4847 13.855 66.7727 14.111C67.0607 14.367 67.3487 14.687 67.6367 15.071C67.9567 15.423 68.1967 15.775 68.3567 16.127C68.5167 16.447 68.5327 16.671 68.4047 16.799C68.2127 16.991 67.7487 17.471 67.0127 18.239C66.3087 19.007 65.4767 19.919 64.5167 20.975C63.5887 22.031 62.6927 23.087 61.8287 24.143C60.9967 25.167 60.3567 26.047 59.9087 26.783L63.2687 24.671C63.5247 24.511 63.5247 24.527 63.2687 24.719C63.0127 24.911 62.6927 25.151 62.3087 25.439C61.9247 25.727 61.6367 25.951 61.4447 26.111C61.3487 26.207 61.2367 26.367 61.1087 26.591C60.9807 26.783 60.9647 26.831 61.0607 26.735C61.5407 26.319 62.1487 25.855 62.8847 25.343C63.6207 24.831 64.3887 24.319 65.1887 23.807C66.0207 23.263 66.7567 22.783 67.3967 22.367C66.8207 22.655 66.2607 22.943 65.7167 23.231C65.1727 23.519 64.5967 23.855 63.9887 24.239L64.6607 23.759C64.9487 23.535 65.3647 23.263 65.9087 22.943C66.4527 22.623 66.9967 22.319 67.5407 22.031C68.1167 21.743 68.5487 21.551 68.8367 21.455L67.4447 22.367C67.7967 22.207 68.1647 22.047 68.5487 21.887C68.9327 21.695 69.3327 21.503 69.7487 21.311C70.0047 21.215 70.1807 21.167 70.2767 21.167C70.5647 21.167 70.5807 21.343 70.3247 21.695C70.1007 22.047 69.7647 22.351 69.3167 22.607C68.6127 22.959 67.7807 23.503 66.8207 24.239C65.8607 24.975 64.8527 25.791 63.7967 26.687C62.7727 27.583 61.7807 28.479 60.8207 29.375C59.8607 30.239 59.0447 31.007 58.3727 31.679C57.7007 31.135 57.3487 30.591 57.3167 30.047C57.2847 29.503 57.2687 29.023 57.2687 28.607V28.415C57.2687 28.319 57.2687 28.207 57.2687 28.079C57.3007 27.919 57.3647 27.743 57.4607 27.551C57.4287 27.391 57.3007 27.279 57.0767 27.215C56.8527 27.119 56.7567 27.007 56.7887 26.879C56.9167 26.271 57.2207 25.567 57.7007 24.767C58.1807 23.967 58.7247 23.135 59.3327 22.271C59.9727 21.407 60.6127 20.575 61.2527 19.775C61.8927 18.975 62.4367 18.287 62.8847 17.711C63.3327 17.135 63.6207 16.735 63.7487 16.511C63.3967 16.831 62.8047 17.375 61.9727 18.143C61.1407 18.879 60.1807 19.743 59.0927 20.735C58.0367 21.695 56.9327 22.719 55.7807 23.807C54.6287 24.895 53.5407 25.967 52.5167 27.023C51.4927 28.047 50.6287 28.975 49.9247 29.807C49.2207 30.639 48.7727 31.295 48.5807 31.775Z" fill="black"/>
<path d="M34.6549 32.16C34.2069 32.16 33.7269 32.064 33.2149 31.872C32.7349 31.712 32.3029 31.456 31.9189 31.104C31.5349 30.752 31.1189 30.224 30.6709 29.52C30.2549 28.784 30.0469 28.064 30.0469 27.36C30.0469 27.072 30.0949 26.816 30.1909 26.592C31.2149 23.84 32.8789 21.328 35.1829 19.056C37.4869 16.752 40.3029 14.816 43.6309 13.248C44.0789 13.248 44.5429 13.424 45.0229 13.776C45.5029 14.096 45.9029 14.496 46.2229 14.976L47.0869 15.264C47.0549 14.912 46.9429 14.704 46.7509 14.64C46.5589 14.544 46.4629 14.416 46.4629 14.256C46.5269 13.968 46.7349 13.808 47.0869 13.776C47.4389 13.712 47.6949 13.68 47.8549 13.68C48.3669 13.68 48.7829 13.92 49.1029 14.4C49.4549 14.848 49.6469 15.344 49.6789 15.888C50.4469 15.984 51.2469 16.048 52.0789 16.08C52.9109 16.112 53.6309 16.144 54.2389 16.176C54.8789 16.176 55.2309 16.176 55.2949 16.176H55.4389C55.5349 16.176 55.5829 16.24 55.5829 16.368C55.5829 16.592 55.4549 16.784 55.1989 16.944C54.8789 17.2 54.1269 17.376 52.9429 17.472C51.7909 17.536 50.5749 17.568 49.2949 17.568C49.1349 18.048 48.8949 18.56 48.5749 19.104C48.2549 19.648 47.8869 20.208 47.4709 20.784C47.1829 21.2 46.7509 21.76 46.1749 22.464C45.5989 23.136 45.0069 23.824 44.3989 24.528C43.7909 25.232 43.2789 25.824 42.8629 26.304C43.1509 26.048 43.6149 25.6 44.2549 24.96C44.9269 24.288 45.4709 23.696 45.8869 23.184C46.0469 22.992 46.2869 22.688 46.6069 22.272C46.9269 21.824 47.2309 21.408 47.5189 21.024C47.8389 20.608 48.0309 20.336 48.0949 20.208C47.6789 21.072 47.1509 21.904 46.5109 22.704C45.8709 23.504 45.2309 24.224 44.5909 24.864C43.9509 25.504 43.4069 26.032 42.9589 26.448C42.5109 26.832 42.2549 27.056 42.1909 27.12C40.8469 28.528 39.4869 29.728 38.1109 30.72C36.7669 31.68 35.6149 32.16 34.6549 32.16ZM33.1189 30.528C33.2789 30.528 33.4709 30.48 33.6949 30.384C34.0469 30.192 34.4949 29.888 35.0389 29.472C35.6149 29.056 36.2069 28.624 36.8149 28.176C37.3589 27.728 37.9669 27.184 38.6389 26.544C39.3109 25.872 40.0469 25.088 40.8469 24.192C41.5509 23.392 42.3029 22.528 43.1029 21.6C43.9029 20.64 44.6869 19.648 45.4549 18.624L44.7349 19.296C44.9589 19.072 45.2309 18.768 45.5509 18.384C45.9029 17.968 46.1909 17.648 46.4149 17.424C45.4229 17.36 44.8309 17.312 44.6389 17.28C44.6069 17.344 44.5589 17.376 44.4949 17.376C44.4309 17.376 44.3989 17.264 44.3989 17.04C44.3989 16.976 44.3989 16.896 44.3989 16.8C44.3989 16.672 44.4149 16.544 44.4469 16.416C44.1269 16.384 43.7749 16.432 43.3909 16.56C43.0069 16.688 42.5749 16.96 42.0949 17.376C41.5509 17.888 40.8469 18.528 39.9829 19.296C39.1189 20.064 38.2229 20.944 37.2949 21.936C36.3669 22.896 35.4869 23.936 34.6549 25.056C33.8549 26.176 33.2149 27.36 32.7349 28.608C32.5749 28.992 32.4949 29.376 32.4949 29.76C32.4949 30.304 32.7349 30.464 33.2149 30.24C33.0549 30.336 32.9749 30.4 32.9749 30.432C32.9749 30.496 33.0229 30.528 33.1189 30.528ZM33.2149 30.24C33.8229 29.92 34.7829 29.248 36.0949 28.224C37.4389 27.168 38.7989 25.888 40.1749 24.384C40.6229 23.904 41.1349 23.36 41.7109 22.752C42.2869 22.112 42.8469 21.504 43.3909 20.928C43.9349 20.352 44.3509 19.904 44.6389 19.584C43.9029 20.48 43.2149 21.296 42.5749 22.032C41.9669 22.736 41.3749 23.408 40.7989 24.048C39.4549 25.488 38.0789 26.784 36.6709 27.936C35.2949 29.088 34.1429 29.856 33.2149 30.24Z" fill="black"/>
<path d="M7.584 33.168C6.816 33.168 6.112 33.056 5.472 32.832C4.864 32.64 4.56 32.352 4.56 31.968C4.56 31.712 4.688 31.504 4.944 31.344C5.2 31.184 5.488 31.104 5.808 31.104C3.696 30.656 2.192 29.888 1.296 28.8C0.432 27.68 0 26.384 0 24.912C0 23.696 0.24 22.416 0.72 21.072C1.232 19.696 1.888 18.368 2.688 17.088C4.384 14.368 6.208 12.192 8.16 10.56C10.144 8.928 12.336 7.44 14.736 6.096C14.128 6.384 13.504 6.688 12.864 7.008C12.256 7.296 11.68 7.6 11.136 7.92C10.912 8.048 10.72 8.112 10.56 8.112C10.432 8.112 10.48 8.048 10.704 7.92C11.76 7.312 13.008 6.672 14.448 6C15.888 5.296 17.152 4.688 18.24 4.176C20.992 2.864 23.776 1.84 26.592 1.104C29.408 0.368 31.872 0 33.984 0C35.232 0 36.288 0.144 37.152 0.432C37.536 1.04 37.808 1.6 37.968 2.112C38.128 2.592 38.208 3.024 38.208 3.408C38.208 3.728 38.16 4 38.064 4.224C38 4.448 37.936 4.64 37.872 4.8C38.032 4.704 38.176 4.544 38.304 4.32C38.464 4.096 38.592 3.872 38.688 3.648C38.784 3.424 38.832 3.232 38.832 3.072C38.864 2.912 38.912 2.752 38.976 2.592C39.04 2.496 39.216 2.56 39.504 2.784C39.792 3.008 40.064 3.296 40.32 3.648C40.608 4 40.736 4.32 40.704 4.608C40.672 5.152 40.4 5.808 39.888 6.576C39.408 7.344 38.8 8.096 38.064 8.832C37.36 9.536 36.64 10.128 35.904 10.608C35.168 11.056 34.528 11.248 33.984 11.184C33.472 11.728 32.72 12.384 31.728 13.152C30.736 13.92 29.632 14.672 28.416 15.408C27.232 16.144 26.08 16.768 24.96 17.28C23.84 17.792 22.912 18.064 22.176 18.096C22.016 18 21.728 17.744 21.312 17.328C20.896 16.912 20.512 16.448 20.16 15.936C19.808 15.392 19.632 14.896 19.632 14.448C19.632 14.352 19.664 14.208 19.728 14.016C19.856 13.792 20.128 13.376 20.544 12.768C20.96 12.16 21.504 11.52 22.176 10.848C22.88 10.144 23.728 9.6 24.72 9.216C24.912 9.12 25.056 9.072 25.152 9.072C25.312 9.072 25.328 9.2 25.2 9.456C25.104 9.712 24.72 10.208 24.048 10.944C23.92 11.072 23.664 11.344 23.28 11.76C22.928 12.176 22.592 12.608 22.272 13.056C21.984 13.504 21.84 13.888 21.84 14.208C21.84 14.592 22.16 14.736 22.8 14.64C23.664 14.512 24.64 14.208 25.728 13.728C26.848 13.248 27.968 12.672 29.088 12C30.208 11.328 31.28 10.624 32.304 9.888C33.328 9.152 34.192 8.448 34.896 7.776C36.08 6.624 36.672 5.728 36.672 5.088C36.672 4.672 36.48 4.368 36.096 4.176C35.744 3.984 35.248 3.888 34.608 3.888C34.48 3.888 34.32 3.904 34.128 3.936C33.968 3.936 33.792 3.952 33.6 3.984C31.744 4.24 29.744 4.656 27.6 5.232C25.488 5.808 23.328 6.576 21.12 7.536C18.912 8.464 16.784 9.6 14.736 10.944C12.72 12.256 10.88 13.792 9.216 15.552C7.552 17.28 6.192 19.264 5.136 21.504C4.4 23.04 4.032 24.368 4.032 25.488C4.032 26.48 4.336 27.28 4.944 27.888C5.584 28.464 6.624 28.752 8.064 28.752C9.28 28.752 10.832 28.496 12.72 27.984C14.64 27.472 16.928 26.624 19.584 25.44C18.976 25.728 18.432 25.984 17.952 26.208C17.472 26.4 17.056 26.576 16.704 26.736C16.416 26.864 15.968 27.04 15.36 27.264C14.784 27.456 14.272 27.632 13.824 27.792C13.376 27.92 13.184 27.984 13.248 27.984C13.792 27.984 14.512 27.84 15.408 27.552C16.336 27.264 17.264 26.912 18.192 26.496C19.152 26.08 19.904 25.712 20.448 25.392C21.184 25.008 21.952 24.592 22.752 24.144C23.552 23.664 24.352 23.2 25.152 22.752C24.16 23.264 23.184 23.744 22.224 24.192C21.296 24.64 20.416 25.056 19.584 25.44L20.64 24.912C20.864 24.784 21.296 24.544 21.936 24.192C22.608 23.808 23.376 23.376 24.24 22.896C25.104 22.384 25.984 21.888 26.88 21.408C27.776 20.896 28.56 20.448 29.232 20.064C29.936 19.648 30.448 19.36 30.768 19.2C30.512 19.456 29.84 19.92 28.752 20.592C27.696 21.264 26.496 21.984 25.152 22.752C27.264 21.664 29.6 20.4 32.16 18.96C32.608 18.704 32.928 18.576 33.12 18.576C33.376 18.576 33.424 18.736 33.264 19.056C33.136 19.344 32.816 19.76 32.304 20.304C31.312 21.296 30 22.384 28.368 23.568C26.736 24.72 24.944 25.872 22.992 27.024C21.04 28.144 19.056 29.168 17.04 30.096C15.024 30.992 13.136 31.68 11.376 32.16V32.208C11.376 32.336 11.264 32.48 11.04 32.64C10.688 32.832 10.176 32.96 9.504 33.024C8.832 33.12 8.192 33.168 7.584 33.168ZM15.264 6C17.344 5.04 19.552 4.176 21.888 3.408C24.256 2.64 26.528 2.048 28.704 1.632C30.88 1.184 32.72 0.960002 34.224 0.960002C34.672 0.960002 34.896 0.928001 34.896 0.864C34.896 0.800001 34.784 0.752002 34.56 0.720002C34.368 0.656001 34.16 0.640001 33.936 0.672003C33.008 0.736002 31.744 0.880001 30.144 1.104C28.576 1.296 26.848 1.616 24.96 2.064C23.072 2.512 21.184 3.152 19.296 3.984C18.688 4.272 18.016 4.592 17.28 4.944C16.544 5.296 15.872 5.648 15.264 6Z" fill="black"/>
</svg>
