<svg width="1326" height="393" viewBox="0 0 1326 393" fill="none" xmlns="http://www.w3.org/2000/svg">
<path d="M151.454 47.8C152.721 45.6667 154.254 42.9 156.054 39.5C157.921 36.0333 159.887 32.3333 161.954 28.4C164.087 24.4 166.187 20.5333 168.254 16.8C170.321 13.0667 172.154 9.86666 173.754 7.2C174.221 6.4 174.854 5.83333 175.654 5.5C176.454 5.16667 177.287 5 178.154 5C179.421 5 180.554 5.3 181.554 5.9C182.554 6.5 182.921 7.26667 182.654 8.2C182.121 9.86667 181.054 11.6667 179.454 13.6C177.921 15.5333 176.287 17.6333 174.554 19.9C174.087 20.5 173.854 20.8333 173.854 20.9C173.854 20.9667 173.887 21.0333 173.954 21.1C173.621 21.5 173.287 21.9 172.954 22.3C172.687 22.7 172.387 23.1 172.054 23.5C170.654 25.2333 169.287 26.9667 167.954 28.7C166.621 30.3667 165.487 31.8 164.554 33C164.354 33.2667 163.987 33.7333 163.454 34.4C162.987 35.0667 162.587 35.6333 162.254 36.1C161.987 36.5 161.954 36.5667 162.154 36.3L166.454 31.3C164.387 33.9 162.421 36.4 160.554 38.8C158.687 41.2 156.987 43.2333 155.454 44.9C153.921 46.5 152.587 47.4667 151.454 47.8ZM170.854 25.7L173.254 22.4C173.587 21.8667 173.787 21.5333 173.854 21.4C173.921 21.2667 173.954 21.1667 173.954 21.1C175.687 18.9 177.287 16.8 178.754 14.8C180.221 12.7333 181.254 11.2 181.854 10.2C182.054 9.86667 182.187 9.7 182.254 9.7C182.321 9.7 182.187 10.0667 181.854 10.8C181.587 11.4667 181.321 11.9667 181.054 12.3C180.254 13.4333 179.054 15.1 177.454 17.3C175.854 19.4333 174.054 21.7333 172.054 24.2L170.854 25.7ZM167.954 29.4L170.854 25.7C170.387 26.3667 169.921 27 169.454 27.6C168.987 28.2 168.487 28.8 167.954 29.4ZM147.054 65.3C146.321 64.9667 145.521 64.4 144.654 63.6C143.854 62.8 143.154 61.9667 142.554 61.1C142.021 60.1667 141.754 59.3667 141.754 58.7C141.754 57.9 142.154 57.5 142.954 57.5C143.421 57.5 143.921 57.5667 144.454 57.7C144.987 57.7667 145.587 57.8 146.254 57.8C147.054 57.8 147.987 57.7 149.054 57.5C150.187 57.2333 151.321 57.1 152.454 57.1C152.987 57.1 153.521 57.1333 154.054 57.2C154.654 57.2667 155.187 57.4333 155.654 57.7C155.987 57.8333 155.921 58.2 155.454 58.8C155.054 59.4 154.421 60.0667 153.554 60.8C152.754 61.4667 151.921 62.1333 151.054 62.8C150.254 63.4 149.621 63.8333 149.154 64.1C149.621 64.0333 150.287 63.7 151.154 63.1C152.087 62.5 152.887 61.8667 153.554 61.2C152.421 62.6 151.121 63.6667 149.654 64.4C148.254 65.1333 147.387 65.4333 147.054 65.3Z" fill="black"/>
<path d="M151.454 47.8C152.721 45.6667 154.254 42.9 156.054 39.5C157.921 36.0333 159.887 32.3333 161.954 28.4C164.087 24.4 166.187 20.5333 168.254 16.8C170.321 13.0667 172.154 9.86666 173.754 7.2C174.221 6.4 174.854 5.83333 175.654 5.5C176.454 5.16667 177.287 5 178.154 5C179.421 5 180.554 5.3 181.554 5.9C182.554 6.5 182.921 7.26667 182.654 8.2C182.121 9.86667 181.054 11.6667 179.454 13.6C177.921 15.5333 176.287 17.6333 174.554 19.9C174.087 20.5 173.854 20.8333 173.854 20.9C173.854 20.9667 173.887 21.0333 173.954 21.1C173.621 21.5 173.287 21.9 172.954 22.3C172.687 22.7 172.387 23.1 172.054 23.5C170.654 25.2333 169.287 26.9667 167.954 28.7C166.621 30.3667 165.487 31.8 164.554 33C164.354 33.2667 163.987 33.7333 163.454 34.4C162.987 35.0667 162.587 35.6333 162.254 36.1C161.987 36.5 161.954 36.5667 162.154 36.3L166.454 31.3C164.387 33.9 162.421 36.4 160.554 38.8C158.687 41.2 156.987 43.2333 155.454 44.9C153.921 46.5 152.587 47.4667 151.454 47.8ZM170.854 25.7L173.254 22.4C173.587 21.8667 173.787 21.5333 173.854 21.4C173.921 21.2667 173.954 21.1667 173.954 21.1C175.687 18.9 177.287 16.8 178.754 14.8C180.221 12.7333 181.254 11.2 181.854 10.2C182.054 9.86667 182.187 9.7 182.254 9.7C182.321 9.7 182.187 10.0667 181.854 10.8C181.587 11.4667 181.321 11.9667 181.054 12.3C180.254 13.4333 179.054 15.1 177.454 17.3C175.854 19.4333 174.054 21.7333 172.054 24.2L170.854 25.7ZM167.954 29.4L170.854 25.7C170.387 26.3667 169.921 27 169.454 27.6C168.987 28.2 168.487 28.8 167.954 29.4ZM147.054 65.3C146.321 64.9667 145.521 64.4 144.654 63.6C143.854 62.8 143.154 61.9667 142.554 61.1C142.021 60.1667 141.754 59.3667 141.754 58.7C141.754 57.9 142.154 57.5 142.954 57.5C143.421 57.5 143.921 57.5667 144.454 57.7C144.987 57.7667 145.587 57.8 146.254 57.8C147.054 57.8 147.987 57.7 149.054 57.5C150.187 57.2333 151.321 57.1 152.454 57.1C152.987 57.1 153.521 57.1333 154.054 57.2C154.654 57.2667 155.187 57.4333 155.654 57.7C155.987 57.8333 155.921 58.2 155.454 58.8C155.054 59.4 154.421 60.0667 153.554 60.8C152.754 61.4667 151.921 62.1333 151.054 62.8C150.254 63.4 149.621 63.8333 149.154 64.1C149.621 64.0333 150.287 63.7 151.154 63.1C152.087 62.5 152.887 61.8667 153.554 61.2C152.421 62.6 151.121 63.6667 149.654 64.4C148.254 65.1333 147.387 65.4333 147.054 65.3Z" fill="black"/>
<path d="M104.312 98.7996C103.979 98.7996 103.413 98.4996 102.613 97.8996C102.413 97.6996 101.913 97.2663 101.113 96.5996C100.313 95.9996 99.5792 95.2996 98.9125 94.4996C98.1792 93.7663 97.8125 93.1329 97.8125 92.5996C97.8125 92.2663 98.1458 91.5996 98.8125 90.5996C99.4792 89.6663 100.279 88.5663 101.213 87.2996C102.613 85.3663 104.312 83.0329 106.312 80.2996C108.379 77.5663 110.579 74.6329 112.912 71.4996C115.246 68.4329 117.579 65.3663 119.912 62.2996C122.246 59.1663 124.413 56.2663 126.413 53.5996C128.479 50.8663 130.212 48.5329 131.612 46.5996C133.079 44.5996 134.079 43.1996 134.612 42.3996C134.746 42.1996 134.512 42.4663 133.912 43.1996C133.313 43.8663 132.546 44.7663 131.612 45.8996C130.679 46.9663 129.779 48.0663 128.913 49.1996C128.113 50.2663 127.546 51.0663 127.213 51.5996C127.279 51.2663 127.679 50.5996 128.413 49.5996C129.146 48.5996 129.979 47.4663 130.912 46.1996C131.912 44.9329 132.812 43.7663 133.612 42.6996C134.479 41.6329 135.046 40.8996 135.313 40.4996C133.513 42.4996 131.379 44.6663 128.913 46.9996C126.513 49.2663 124.012 51.5329 121.412 53.7996C118.879 56.0663 116.513 58.1996 114.312 60.1996C112.179 62.1329 110.479 63.7663 109.213 65.0996C107.546 64.5663 106.346 63.6996 105.613 62.4996C104.946 61.2329 104.613 59.9663 104.613 58.6996C104.613 57.9663 104.712 57.2996 104.912 56.6996C105.646 55.1663 106.779 53.1996 108.312 50.7996C109.846 48.3329 111.479 45.7996 113.213 43.1996C114.946 40.5996 116.546 38.1996 118.013 35.9996C119.479 33.7329 120.546 32.0329 121.213 30.8996C121.013 30.5663 120.646 30.8329 120.113 31.6996C119.579 32.4996 118.979 33.5329 118.312 34.7996C117.646 35.9996 117.012 37.0996 116.412 38.0996C115.812 39.0329 115.413 39.4663 115.213 39.3996C115.213 39.3329 115.479 38.7996 116.013 37.7996C116.546 36.7996 117.146 35.6663 117.812 34.3996C118.546 33.0663 119.179 31.8996 119.713 30.8996C120.246 29.8996 120.513 29.3663 120.513 29.2996C120.379 28.9663 120.246 28.6663 120.113 28.3996C119.979 28.0663 119.912 27.7996 119.912 27.5996C119.912 26.9329 120.379 26.5996 121.312 26.5996C121.779 26.5996 122.413 26.6996 123.213 26.8996C123.679 26.9663 124.379 27.1663 125.312 27.4996C126.312 27.7663 127.246 28.2329 128.113 28.8996C128.979 29.5663 129.412 30.4329 129.412 31.4996C129.412 32.2329 129.179 32.9663 128.713 33.6996C127.913 34.6329 126.946 35.9663 125.812 37.6996C124.679 39.3663 123.513 41.1663 122.312 43.0996C121.113 44.9663 120.046 46.6996 119.113 48.2996C118.179 49.8996 117.513 51.0663 117.113 51.7996C118.313 50.8663 119.946 49.3663 122.013 47.2996C124.079 45.2329 126.313 42.9329 128.713 40.3996C131.113 37.7996 133.446 35.2996 135.713 32.8996C138.046 30.4996 140.046 28.5663 141.713 27.0996C142.713 27.4996 143.913 28.0329 145.313 28.6996C146.713 29.3663 147.846 30.0663 148.713 30.7996C149.579 31.5329 149.746 32.2663 149.213 32.9996C146.946 36.0663 144.946 38.6329 143.213 40.6996C141.479 42.7663 139.779 44.7996 138.113 46.7996C136.513 48.7329 134.646 51.0996 132.513 53.8996C130.646 56.3663 128.779 58.9329 126.912 61.5996C125.046 64.1996 123.212 66.7996 121.412 69.3996C119.212 72.5996 117.146 75.6663 115.213 78.5996C113.279 81.5329 111.446 84.2996 109.713 86.8996C109.779 86.5663 110.279 85.5996 111.213 83.9996C112.213 82.3996 113.379 80.5329 114.713 78.3996C116.046 76.3329 117.346 74.2996 118.613 72.2996C119.946 70.2996 121.046 68.6329 121.913 67.2996C122.779 65.9663 123.179 65.3329 123.113 65.3996C123.046 65.4663 122.612 66.0329 121.812 67.0996C121.079 68.1663 120.179 69.4663 119.113 70.9996C118.046 72.5329 117.046 74.0329 116.113 75.4996C115.179 76.9663 114.446 78.1663 113.912 79.0996C113.046 80.6329 112.113 82.1663 111.113 83.6996C110.179 85.2329 109.412 86.4996 108.812 87.4996C108.279 88.5663 108.146 89.1663 108.412 89.2996C109.412 88.8996 110.313 88.6996 111.113 88.6996C112.179 88.6996 112.913 88.9996 113.312 89.5996C113.579 89.9329 113.713 90.2329 113.713 90.4996C113.713 90.7663 113.412 90.8663 112.812 90.7996C112.412 90.733 111.679 91.133 110.613 91.9996C109.613 92.8663 108.746 93.7329 108.013 94.5996C107.346 95.4663 106.746 96.3663 106.213 97.2996C105.679 98.2996 105.046 98.7996 104.312 98.7996Z" fill="black"/>
<path d="M104.312 98.7996C103.979 98.7996 103.413 98.4996 102.613 97.8996C102.413 97.6996 101.913 97.2663 101.113 96.5996C100.313 95.9996 99.5792 95.2996 98.9125 94.4996C98.1792 93.7663 97.8125 93.1329 97.8125 92.5996C97.8125 92.2663 98.1458 91.5996 98.8125 90.5996C99.4792 89.6663 100.279 88.5663 101.213 87.2996C102.613 85.3663 104.312 83.0329 106.312 80.2996C108.379 77.5663 110.579 74.6329 112.912 71.4996C115.246 68.4329 117.579 65.3663 119.912 62.2996C122.246 59.1663 124.413 56.2663 126.413 53.5996C128.479 50.8663 130.212 48.5329 131.612 46.5996C133.079 44.5996 134.079 43.1996 134.612 42.3996C134.746 42.1996 134.512 42.4663 133.912 43.1996C133.313 43.8663 132.546 44.7663 131.612 45.8996C130.679 46.9663 129.779 48.0663 128.913 49.1996C128.113 50.2663 127.546 51.0663 127.213 51.5996C127.279 51.2663 127.679 50.5996 128.413 49.5996C129.146 48.5996 129.979 47.4663 130.912 46.1996C131.912 44.9329 132.812 43.7663 133.612 42.6996C134.479 41.6329 135.046 40.8996 135.313 40.4996C133.513 42.4996 131.379 44.6663 128.913 46.9996C126.513 49.2663 124.012 51.5329 121.412 53.7996C118.879 56.0663 116.513 58.1996 114.312 60.1996C112.179 62.1329 110.479 63.7663 109.213 65.0996C107.546 64.5663 106.346 63.6996 105.613 62.4996C104.946 61.2329 104.613 59.9663 104.613 58.6996C104.613 57.9663 104.712 57.2996 104.912 56.6996C105.646 55.1663 106.779 53.1996 108.312 50.7996C109.846 48.3329 111.479 45.7996 113.213 43.1996C114.946 40.5996 116.546 38.1996 118.013 35.9996C119.479 33.7329 120.546 32.0329 121.213 30.8996C121.013 30.5663 120.646 30.8329 120.113 31.6996C119.579 32.4996 118.979 33.5329 118.312 34.7996C117.646 35.9996 117.012 37.0996 116.412 38.0996C115.812 39.0329 115.413 39.4663 115.213 39.3996C115.213 39.3329 115.479 38.7996 116.013 37.7996C116.546 36.7996 117.146 35.6663 117.812 34.3996C118.546 33.0663 119.179 31.8996 119.713 30.8996C120.246 29.8996 120.513 29.3663 120.513 29.2996C120.379 28.9663 120.246 28.6663 120.113 28.3996C119.979 28.0663 119.912 27.7996 119.912 27.5996C119.912 26.9329 120.379 26.5996 121.312 26.5996C121.779 26.5996 122.413 26.6996 123.213 26.8996C123.679 26.9663 124.379 27.1663 125.312 27.4996C126.312 27.7663 127.246 28.2329 128.113 28.8996C128.979 29.5663 129.412 30.4329 129.412 31.4996C129.412 32.2329 129.179 32.9663 128.713 33.6996C127.913 34.6329 126.946 35.9663 125.812 37.6996C124.679 39.3663 123.513 41.1663 122.312 43.0996C121.113 44.9663 120.046 46.6996 119.113 48.2996C118.179 49.8996 117.513 51.0663 117.113 51.7996C118.313 50.8663 119.946 49.3663 122.013 47.2996C124.079 45.2329 126.313 42.9329 128.713 40.3996C131.113 37.7996 133.446 35.2996 135.713 32.8996C138.046 30.4996 140.046 28.5663 141.713 27.0996C142.713 27.4996 143.913 28.0329 145.313 28.6996C146.713 29.3663 147.846 30.0663 148.713 30.7996C149.579 31.5329 149.746 32.2663 149.213 32.9996C146.946 36.0663 144.946 38.6329 143.213 40.6996C141.479 42.7663 139.779 44.7996 138.113 46.7996C136.513 48.7329 134.646 51.0996 132.513 53.8996C130.646 56.3663 128.779 58.9329 126.912 61.5996C125.046 64.1996 123.212 66.7996 121.412 69.3996C119.212 72.5996 117.146 75.6663 115.213 78.5996C113.279 81.5329 111.446 84.2996 109.713 86.8996C109.779 86.5663 110.279 85.5996 111.213 83.9996C112.213 82.3996 113.379 80.5329 114.713 78.3996C116.046 76.3329 117.346 74.2996 118.613 72.2996C119.946 70.2996 121.046 68.6329 121.913 67.2996C122.779 65.9663 123.179 65.3329 123.113 65.3996C123.046 65.4663 122.612 66.0329 121.812 67.0996C121.079 68.1663 120.179 69.4663 119.113 70.9996C118.046 72.5329 117.046 74.0329 116.113 75.4996C115.179 76.9663 114.446 78.1663 113.912 79.0996C113.046 80.6329 112.113 82.1663 111.113 83.6996C110.179 85.2329 109.412 86.4996 108.812 87.4996C108.279 88.5663 108.146 89.1663 108.412 89.2996C109.412 88.8996 110.313 88.6996 111.113 88.6996C112.179 88.6996 112.913 88.9996 113.312 89.5996C113.579 89.9329 113.713 90.2329 113.713 90.4996C113.713 90.7663 113.412 90.8663 112.812 90.7996C112.412 90.733 111.679 91.133 110.613 91.9996C109.613 92.8663 108.746 93.7329 108.013 94.5996C107.346 95.4663 106.746 96.3663 106.213 97.2996C105.679 98.2996 105.046 98.7996 104.312 98.7996Z" fill="black"/>
<path d="M84.8367 65.2998C83.37 65.2998 81.8034 64.7331 80.1367 63.5998C78.4701 62.4665 77.0367 61.1331 75.8367 59.5998C74.7034 58.0665 74.1367 56.6665 74.1367 55.3998C74.1367 52.9998 74.8367 50.4331 76.2367 47.6998C77.7034 44.8998 79.57 42.1665 81.8367 39.4998C84.17 36.8331 86.6367 34.4665 89.2367 32.3998C91.8367 30.3331 94.3367 28.8331 96.7367 27.8998C97.4034 27.6331 98.0034 27.4665 98.5367 27.3998C99.07 27.3331 99.4701 27.2998 99.7367 27.2998C100.537 27.2998 101.47 27.8665 102.537 28.9998C103.603 30.0665 104.57 31.2331 105.437 32.4998C106.303 33.7665 106.803 34.7331 106.937 35.3998C106.937 36.4665 106.303 37.7665 105.037 39.2998C103.837 40.7665 102.237 42.2998 100.237 43.8998C98.2367 45.4331 96.0701 46.8665 93.7367 48.1998C91.4701 49.5331 89.2701 50.5998 87.1367 51.3998C85.0034 52.1331 83.1701 52.4665 81.6367 52.3998C80.5701 54.3331 80.0367 55.9331 80.0367 57.1998C80.0367 57.8665 80.2034 58.4665 80.5367 58.9998C80.87 59.4665 81.5367 59.6665 82.5367 59.5998C84.1367 59.0665 86.1367 58.0998 88.5367 56.6998C90.9367 55.2998 93.5034 53.7331 96.2367 51.9998C99.0367 50.1998 101.77 48.4665 104.437 46.7998C107.17 45.0665 109.603 43.6331 111.737 42.4998C112.87 41.8998 113.703 41.5998 114.237 41.5998C114.703 41.5998 114.937 41.7665 114.937 42.0998C114.937 42.3665 114.637 42.7998 114.037 43.3998C113.503 43.9998 112.67 44.5998 111.537 45.1998C110.937 45.5331 110.27 45.9331 109.537 46.3998C108.803 46.8665 108.037 47.3998 107.237 47.9998C105.37 49.3331 103.37 50.8665 101.237 52.5998C99.1701 54.3331 97.07 56.0665 94.9367 57.7998C92.87 59.5331 90.9367 61.0665 89.1367 62.3998C87.4034 63.7331 85.97 64.6998 84.8367 65.2998ZM83.7367 49.0998C85.7367 48.3665 87.8701 47.3331 90.1367 45.9998C92.4034 44.6665 94.5367 43.2665 96.5367 41.7998C98.5367 40.2665 100.137 38.8998 101.337 37.6998L101.837 37.1998C101.837 37.0665 101.437 37.2998 100.637 37.8998L92.2367 44.0998C92.1701 44.1665 92.07 44.1998 91.9367 44.1998C91.87 44.1998 91.9034 44.1331 92.0367 43.9998C92.17 43.7998 92.4034 43.5998 92.7367 43.3998C94.0701 42.4665 95.4367 41.4331 96.8367 40.2998C98.2367 39.0998 99.57 37.9665 100.837 36.8998C102.437 35.6331 103.237 34.8665 103.237 34.5998C101.703 34.5998 99.7367 35.3331 97.3367 36.7998C94.9367 38.2665 92.5034 40.0998 90.0367 42.2998C87.6367 44.4998 85.5367 46.7665 83.7367 49.0998Z" fill="black"/>
<path d="M84.8367 65.2998C83.37 65.2998 81.8034 64.7331 80.1367 63.5998C78.4701 62.4665 77.0367 61.1331 75.8367 59.5998C74.7034 58.0665 74.1367 56.6665 74.1367 55.3998C74.1367 52.9998 74.8367 50.4331 76.2367 47.6998C77.7034 44.8998 79.57 42.1665 81.8367 39.4998C84.17 36.8331 86.6367 34.4665 89.2367 32.3998C91.8367 30.3331 94.3367 28.8331 96.7367 27.8998C97.4034 27.6331 98.0034 27.4665 98.5367 27.3998C99.07 27.3331 99.4701 27.2998 99.7367 27.2998C100.537 27.2998 101.47 27.8665 102.537 28.9998C103.603 30.0665 104.57 31.2331 105.437 32.4998C106.303 33.7665 106.803 34.7331 106.937 35.3998C106.937 36.4665 106.303 37.7665 105.037 39.2998C103.837 40.7665 102.237 42.2998 100.237 43.8998C98.2367 45.4331 96.0701 46.8665 93.7367 48.1998C91.4701 49.5331 89.2701 50.5998 87.1367 51.3998C85.0034 52.1331 83.1701 52.4665 81.6367 52.3998C80.5701 54.3331 80.0367 55.9331 80.0367 57.1998C80.0367 57.8665 80.2034 58.4665 80.5367 58.9998C80.87 59.4665 81.5367 59.6665 82.5367 59.5998C84.1367 59.0665 86.1367 58.0998 88.5367 56.6998C90.9367 55.2998 93.5034 53.7331 96.2367 51.9998C99.0367 50.1998 101.77 48.4665 104.437 46.7998C107.17 45.0665 109.603 43.6331 111.737 42.4998C112.87 41.8998 113.703 41.5998 114.237 41.5998C114.703 41.5998 114.937 41.7665 114.937 42.0998C114.937 42.3665 114.637 42.7998 114.037 43.3998C113.503 43.9998 112.67 44.5998 111.537 45.1998C110.937 45.5331 110.27 45.9331 109.537 46.3998C108.803 46.8665 108.037 47.3998 107.237 47.9998C105.37 49.3331 103.37 50.8665 101.237 52.5998C99.1701 54.3331 97.07 56.0665 94.9367 57.7998C92.87 59.5331 90.9367 61.0665 89.1367 62.3998C87.4034 63.7331 85.97 64.6998 84.8367 65.2998ZM83.7367 49.0998C85.7367 48.3665 87.8701 47.3331 90.1367 45.9998C92.4034 44.6665 94.5367 43.2665 96.5367 41.7998C98.5367 40.2665 100.137 38.8998 101.337 37.6998L101.837 37.1998C101.837 37.0665 101.437 37.2998 100.637 37.8998L92.2367 44.0998C92.1701 44.1665 92.07 44.1998 91.9367 44.1998C91.87 44.1998 91.9034 44.1331 92.0367 43.9998C92.17 43.7998 92.4034 43.5998 92.7367 43.3998C94.0701 42.4665 95.4367 41.4331 96.8367 40.2998C98.2367 39.0998 99.57 37.9665 100.837 36.8998C102.437 35.6331 103.237 34.8665 103.237 34.5998C101.703 34.5998 99.7367 35.3331 97.3367 36.7998C94.9367 38.2665 92.5034 40.0998 90.0367 42.2998C87.6367 44.4998 85.5367 46.7665 83.7367 49.0998Z" fill="black"/>
<path d="M19 2.9C22.0667 1.96666 25.2667 1.26667 28.6 0.800001C31.9333 0.266667 35.4333 0 39.1 0C39.9667 0 40.8333 0.0333327 41.7 0.0999985C42.6333 0.0999985 43.5333 0.133331 44.4 0.199997C43.8 0.199997 43.1667 0.199997 42.5 0.199997C41.9 0.133331 41.3 0.0999985 40.7 0.0999985C37.4333 0.0999985 34.2667 0.266665 31.2 0.599998C28.2 0.866666 25.6333 1.23333 23.5 1.7C22.8333 1.9 22.1 2.1 21.3 2.3C20.5667 2.43333 19.8 2.63333 19 2.9ZM61.1 67C58.7667 66.6667 57.1333 65.6667 56.2 64C55.3333 62.2667 54.9 60.2667 54.9 58C54.9 55.8667 55.1667 53.7 55.7 51.5C56.2333 49.2333 56.8333 47.2 57.5 45.4C58.1667 43.5333 58.7 42.1667 59.1 41.3C59.1667 41.2333 59.0333 41.6 58.7 42.4C58.4333 43.2 58.1333 44.0667 57.8 45C57.5333 45.8667 57.3667 46.4333 57.3 46.7C57.5667 46.2333 57.9333 45.4333 58.4 44.3C58.9333 43.1 59.5 41.8667 60.1 40.6C60.7 39.3333 61.1667 38.3667 61.5 37.7C58.3 38.1667 54.8667 38.6333 51.2 39.1C47.5333 39.5667 43.7 40.0667 39.7 40.6C37.7 43.2667 35.9 45.7 34.3 47.9C32.7 50.1 31.5333 51.8667 30.8 53.2C30.3333 53.9333 29.9 54.8333 29.5 55.9C29.1667 56.9667 28.9667 57.5667 28.9 57.7C30.5667 57.9667 31.7667 58.4 32.5 59C33.2333 59.5333 33.6 60.1333 33.6 60.8C33.6 61.8 32.8667 62.7667 31.4 63.7C29.9333 64.6333 27.9333 65.2333 25.4 65.5C23.8667 65.1667 22.8 64.4667 22.2 63.4C21.6667 62.2667 21.4 61.1 21.4 59.9C21.4 58.6333 21.5667 57.5 21.9 56.5C22.1667 55.7 22.6333 54.7 23.3 53.5C23.9667 52.2333 24.7333 50.8333 25.6 49.3C25.1333 49.7667 24.7333 50.1667 24.4 50.5C24.1333 50.7667 23.9667 50.9 23.9 50.9C23.8333 50.9 24.2 50.3667 25 49.3C25.8667 48.2333 26.8 47.1 27.8 45.9C28.2 45.2333 28.6333 44.5667 29.1 43.9C29.5667 43.1667 30.0333 42.4667 30.5 41.8C25.8333 42.3333 22.2333 42.8333 19.7 43.3C17.1667 43.7 15.2333 44.0333 13.9 44.3C12.6333 44.5667 11.4667 44.7667 10.4 44.9C9.93333 45.1667 9.5 45.3 9.1 45.3C8.63333 45.3 8.26667 45.0667 8 44.6C7.73333 44.0667 7.6 43.4667 7.6 42.8C7.6 42.0667 7.7 41.3 7.9 40.5C8.16667 39.6333 8.46667 38.8333 8.8 38.1H9C9 36.9667 9.56667 36.4 10.7 36.4C11.2333 36.4 11.8 36.4667 12.4 36.6C13.0667 36.7333 13.7333 36.8 14.4 36.8C15.5333 36.7333 16.7333 36.6 18 36.4C19.2667 36.1333 20 35.8 20.2 35.4C20.4667 35 20.6667 34.8 20.8 34.8C21 34.8 21.2 35.1333 21.4 35.8C21.4667 35.9333 21.5 36.1 21.5 36.3C21.5 36.9667 21.2667 37.5667 20.8 38.1C24.7333 37.9667 28.9333 37.7667 33.4 37.5C35.4667 34.5 37.6 31.5 39.8 28.5C42.0667 25.4333 44.2333 22.5 46.3 19.7C48.3667 16.9 50.2 14.4 51.8 12.2C53.4667 10 54.7333 8.3 55.6 7.1C54.2667 8.16667 53.1667 9.33333 52.3 10.6C51.5 11.8 50.7667 12.4667 50.1 12.6C50.9 11.6667 51.9667 10.4333 53.3 8.9C54.6333 7.36666 55.4667 5.96666 55.8 4.7C55.2667 4.56667 54.6667 4.5 54 4.5C53.3333 4.5 52.6333 4.5 51.9 4.5C48.7667 4.5 44.9667 4.76666 40.5 5.3C36.0333 5.83333 31.8 6.53333 27.8 7.4C27.1333 7.53333 26 7.9 24.4 8.5C22.8 9.03333 20.9667 9.73333 18.9 10.6C16.9 11.4667 14.9 12.4667 12.9 13.6C10.9 14.7333 9.16667 15.9667 7.7 17.3C6.3 18.5667 5.4 19.9 5 21.3C5.26667 21.8333 5.4 22.3333 5.4 22.8C5.4 23.7333 4.93333 24.2 4 24.2C3.2 24.2 2.33333 23.7333 1.4 22.8C0.466667 21.8667 0 20.5667 0 18.9C0 18.0333 0.133333 17.2 0.4 16.4C0.733333 15.3333 1.16667 14.3667 1.7 13.5C2.3 12.5667 3 11.7 3.8 10.9C4.4 10.6333 5.56667 10 7.3 9C9.1 8 11 7 13 6C15.0667 4.93333 16.8333 4.16667 18.3 3.7C21.2333 2.7 24.5 1.9 28.1 1.3C31.7667 0.633335 35.7333 0.300001 40 0.300001C42.5333 0.300001 45.2333 0.433334 48.1 0.699997C50.9667 0.966664 53.9333 1.4 57 2C57.4667 2.13333 57.7 2.1 57.7 1.9C57.7 1.76667 57.4333 1.66667 56.9 1.6C55.2333 1.26666 53.5667 0.999999 51.9 0.800001C50.2333 0.533334 48.6 0.366667 47 0.300001C48.6 0.366667 50.1667 0.5 51.7 0.699997C53.3 0.833333 54.8333 1.06667 56.3 1.4V1.1C56.3 0.633332 56.5667 0.4 57.1 0.4C57.2333 0.4 57.5667 0.466667 58.1 0.599998C58.9 0.866666 59.9333 1.33333 61.2 2C62.4667 2.66666 63.5667 3.46666 64.5 4.4C65.5 5.26667 66 6.2 66 7.2C66 7.53333 65.9667 7.8 65.9 8C65.1667 8.8 63.9667 10.2 62.3 12.2C60.7 14.1333 58.8 16.4667 56.6 19.2C54.4 21.8667 52.1 24.7333 49.7 27.8C47.3 30.8 44.9667 33.8 42.7 36.8C45.6333 36.5333 48.8333 36.2667 52.3 36C55.8333 35.6667 59.4333 35.3 63.1 34.9C64.5 32.7 66.1333 30.3 68 27.7C69.8667 25.1 71.7333 22.5667 73.6 20.1C75.4667 17.5667 77.0667 15.4333 78.4 13.7L74.7 17.8C75.1 17.2667 75.7 16.3667 76.5 15.1C77.3 13.7667 77.7333 12.6667 77.8 11.8C77.8667 10.5333 78.2 9.36666 78.8 8.3C79.4667 7.23333 80.2 6.3 81 5.5C81.8667 4.7 82.5333 4.06667 83 3.6C83.6667 3.06667 84.3 2.8 84.9 2.8C85.7667 2.8 86.6333 3.13333 87.5 3.8C88.4333 4.46667 89.1667 5.3 89.7 6.3C90.3 7.3 90.5667 8.33333 90.5 9.4C90.5 9.46667 90 10.1667 89 11.5C88 12.8333 86.6667 14.6333 85 16.9C83.3333 19.1 81.4667 21.6667 79.4 24.6C77.4 27.4667 75.3667 30.4667 73.3 33.6C74.9 33.4 76.4667 33.1667 78 32.9C79.5333 32.5667 81.0333 32.2667 82.5 32C82.8333 31.9333 83.1 31.9 83.3 31.9C83.5667 31.8333 83.7667 31.8 83.9 31.8C84.4333 31.8 84.7 31.9 84.7 32.1C84.7 32.5 84.1 32.9667 82.9 33.5C81.4333 34.1 77.7333 34.9333 71.8 36C70.9333 37.3333 70.0667 38.6667 69.2 40C68.4 41.3333 67.6333 42.6667 66.9 44C64.9667 47.4667 63.3667 50.7333 62.1 53.8C60.8333 56.8667 60.2 59.4333 60.2 61.5C60.2 63.3667 60.7667 64.6667 61.9 65.4C62.3 65.6667 62.5 65.9667 62.5 66.3C62.5 66.9 62.0333 67.1333 61.1 67ZM17.1 3.5H17.2L17.3 3.4H17.4H17.5C17.5667 3.33333 17.6 3.3 17.6 3.3C17.6667 3.3 17.7 3.3 17.7 3.3C17.7667 3.3 17.8 3.3 17.8 3.3C17.8667 3.23333 17.9 3.2 17.9 3.2C17.9667 3.2 18 3.2 18 3.2C18.0667 3.2 18.1 3.2 18.1 3.2C18.1667 3.13333 18.2 3.1 18.2 3.1C18.2667 3.1 18.2667 3.1 18.2 3.1C18.2667 3.1 18.3333 3.1 18.4 3.1H18.2L18.1 3.2H18H17.9L17.8 3.3H17.7C17.7 3.3 17.6667 3.3 17.6 3.3C17.6 3.3 17.5667 3.33333 17.5 3.4C17.5 3.4 17.4667 3.4 17.4 3.4C17.4 3.4 17.3667 3.4 17.3 3.4C17.3 3.46667 17.2667 3.5 17.2 3.5C17.2 3.5 17.1667 3.5 17.1 3.5ZM15.7 4H15.8H15.9L16 3.9C16.0667 3.9 16.1 3.9 16.1 3.9C16.1667 3.83333 16.1667 3.8 16.1 3.8C16.1667 3.8 16.2 3.8 16.2 3.8H16.1V3.9C16.1 3.9 16.0667 3.9 16 3.9C15.9333 3.9 15.9 3.93333 15.9 4C15.9 4 15.8667 4 15.8 4C15.8667 4 15.8667 4 15.8 4C15.7333 4 15.7 4 15.7 4ZM4.5 10.3C5.96667 8.9 7.66667 7.7 9.6 6.7C11.6 5.7 13.6333 4.8 15.7 4C11.8333 5.53333 8.36667 7.43334 5.3 9.7L4.5 10.3ZM4.2 10.5C4.2 10.5 4.16667 10.5333 4.1 10.6C4.1 10.6 4 10.7 3.8 10.9C3.53333 11.0333 3.4 11.1 3.4 11.1C3.4 11.1 3.46667 11.0667 3.6 11C3.73333 10.8667 3.93333 10.7 4.2 10.5L3.8 10.7L4.5 10.3L4.2 10.5Z" fill="black"/>
<path d="M19 2.9C22.0667 1.96666 25.2667 1.26667 28.6 0.800001C31.9333 0.266667 35.4333 0 39.1 0C39.9667 0 40.8333 0.0333327 41.7 0.0999985C42.6333 0.0999985 43.5333 0.133331 44.4 0.199997C43.8 0.199997 43.1667 0.199997 42.5 0.199997C41.9 0.133331 41.3 0.0999985 40.7 0.0999985C37.4333 0.0999985 34.2667 0.266665 31.2 0.599998C28.2 0.866666 25.6333 1.23333 23.5 1.7C22.8333 1.9 22.1 2.1 21.3 2.3C20.5667 2.43333 19.8 2.63333 19 2.9ZM61.1 67C58.7667 66.6667 57.1333 65.6667 56.2 64C55.3333 62.2667 54.9 60.2667 54.9 58C54.9 55.8667 55.1667 53.7 55.7 51.5C56.2333 49.2333 56.8333 47.2 57.5 45.4C58.1667 43.5333 58.7 42.1667 59.1 41.3C59.1667 41.2333 59.0333 41.6 58.7 42.4C58.4333 43.2 58.1333 44.0667 57.8 45C57.5333 45.8667 57.3667 46.4333 57.3 46.7C57.5667 46.2333 57.9333 45.4333 58.4 44.3C58.9333 43.1 59.5 41.8667 60.1 40.6C60.7 39.3333 61.1667 38.3667 61.5 37.7C58.3 38.1667 54.8667 38.6333 51.2 39.1C47.5333 39.5667 43.7 40.0667 39.7 40.6C37.7 43.2667 35.9 45.7 34.3 47.9C32.7 50.1 31.5333 51.8667 30.8 53.2C30.3333 53.9333 29.9 54.8333 29.5 55.9C29.1667 56.9667 28.9667 57.5667 28.9 57.7C30.5667 57.9667 31.7667 58.4 32.5 59C33.2333 59.5333 33.6 60.1333 33.6 60.8C33.6 61.8 32.8667 62.7667 31.4 63.7C29.9333 64.6333 27.9333 65.2333 25.4 65.5C23.8667 65.1667 22.8 64.4667 22.2 63.4C21.6667 62.2667 21.4 61.1 21.4 59.9C21.4 58.6333 21.5667 57.5 21.9 56.5C22.1667 55.7 22.6333 54.7 23.3 53.5C23.9667 52.2333 24.7333 50.8333 25.6 49.3C25.1333 49.7667 24.7333 50.1667 24.4 50.5C24.1333 50.7667 23.9667 50.9 23.9 50.9C23.8333 50.9 24.2 50.3667 25 49.3C25.8667 48.2333 26.8 47.1 27.8 45.9C28.2 45.2333 28.6333 44.5667 29.1 43.9C29.5667 43.1667 30.0333 42.4667 30.5 41.8C25.8333 42.3333 22.2333 42.8333 19.7 43.3C17.1667 43.7 15.2333 44.0333 13.9 44.3C12.6333 44.5667 11.4667 44.7667 10.4 44.9C9.93333 45.1667 9.5 45.3 9.1 45.3C8.63333 45.3 8.26667 45.0667 8 44.6C7.73333 44.0667 7.6 43.4667 7.6 42.8C7.6 42.0667 7.7 41.3 7.9 40.5C8.16667 39.6333 8.46667 38.8333 8.8 38.1H9C9 36.9667 9.56667 36.4 10.7 36.4C11.2333 36.4 11.8 36.4667 12.4 36.6C13.0667 36.7333 13.7333 36.8 14.4 36.8C15.5333 36.7333 16.7333 36.6 18 36.4C19.2667 36.1333 20 35.8 20.2 35.4C20.4667 35 20.6667 34.8 20.8 34.8C21 34.8 21.2 35.1333 21.4 35.8C21.4667 35.9333 21.5 36.1 21.5 36.3C21.5 36.9667 21.2667 37.5667 20.8 38.1C24.7333 37.9667 28.9333 37.7667 33.4 37.5C35.4667 34.5 37.6 31.5 39.8 28.5C42.0667 25.4333 44.2333 22.5 46.3 19.7C48.3667 16.9 50.2 14.4 51.8 12.2C53.4667 10 54.7333 8.3 55.6 7.1C54.2667 8.16667 53.1667 9.33333 52.3 10.6C51.5 11.8 50.7667 12.4667 50.1 12.6C50.9 11.6667 51.9667 10.4333 53.3 8.9C54.6333 7.36666 55.4667 5.96666 55.8 4.7C55.2667 4.56667 54.6667 4.5 54 4.5C53.3333 4.5 52.6333 4.5 51.9 4.5C48.7667 4.5 44.9667 4.76666 40.5 5.3C36.0333 5.83333 31.8 6.53333 27.8 7.4C27.1333 7.53333 26 7.9 24.4 8.5C22.8 9.03333 20.9667 9.73333 18.9 10.6C16.9 11.4667 14.9 12.4667 12.9 13.6C10.9 14.7333 9.16667 15.9667 7.7 17.3C6.3 18.5667 5.4 19.9 5 21.3C5.26667 21.8333 5.4 22.3333 5.4 22.8C5.4 23.7333 4.93333 24.2 4 24.2C3.2 24.2 2.33333 23.7333 1.4 22.8C0.466667 21.8667 0 20.5667 0 18.9C0 18.0333 0.133333 17.2 0.4 16.4C0.733333 15.3333 1.16667 14.3667 1.7 13.5C2.3 12.5667 3 11.7 3.8 10.9C4.4 10.6333 5.56667 10 7.3 9C9.1 8 11 7 13 6C15.0667 4.93333 16.8333 4.16667 18.3 3.7C21.2333 2.7 24.5 1.9 28.1 1.3C31.7667 0.633335 35.7333 0.300001 40 0.300001C42.5333 0.300001 45.2333 0.433334 48.1 0.699997C50.9667 0.966664 53.9333 1.4 57 2C57.4667 2.13333 57.7 2.1 57.7 1.9C57.7 1.76667 57.4333 1.66667 56.9 1.6C55.2333 1.26666 53.5667 0.999999 51.9 0.800001C50.2333 0.533334 48.6 0.366667 47 0.300001C48.6 0.366667 50.1667 0.5 51.7 0.699997C53.3 0.833333 54.8333 1.06667 56.3 1.4V1.1C56.3 0.633332 56.5667 0.4 57.1 0.4C57.2333 0.4 57.5667 0.466667 58.1 0.599998C58.9 0.866666 59.9333 1.33333 61.2 2C62.4667 2.66666 63.5667 3.46666 64.5 4.4C65.5 5.26667 66 6.2 66 7.2C66 7.53333 65.9667 7.8 65.9 8C65.1667 8.8 63.9667 10.2 62.3 12.2C60.7 14.1333 58.8 16.4667 56.6 19.2C54.4 21.8667 52.1 24.7333 49.7 27.8C47.3 30.8 44.9667 33.8 42.7 36.8C45.6333 36.5333 48.8333 36.2667 52.3 36C55.8333 35.6667 59.4333 35.3 63.1 34.9C64.5 32.7 66.1333 30.3 68 27.7C69.8667 25.1 71.7333 22.5667 73.6 20.1C75.4667 17.5667 77.0667 15.4333 78.4 13.7L74.7 17.8C75.1 17.2667 75.7 16.3667 76.5 15.1C77.3 13.7667 77.7333 12.6667 77.8 11.8C77.8667 10.5333 78.2 9.36666 78.8 8.3C79.4667 7.23333 80.2 6.3 81 5.5C81.8667 4.7 82.5333 4.06667 83 3.6C83.6667 3.06667 84.3 2.8 84.9 2.8C85.7667 2.8 86.6333 3.13333 87.5 3.8C88.4333 4.46667 89.1667 5.3 89.7 6.3C90.3 7.3 90.5667 8.33333 90.5 9.4C90.5 9.46667 90 10.1667 89 11.5C88 12.8333 86.6667 14.6333 85 16.9C83.3333 19.1 81.4667 21.6667 79.4 24.6C77.4 27.4667 75.3667 30.4667 73.3 33.6C74.9 33.4 76.4667 33.1667 78 32.9C79.5333 32.5667 81.0333 32.2667 82.5 32C82.8333 31.9333 83.1 31.9 83.3 31.9C83.5667 31.8333 83.7667 31.8 83.9 31.8C84.4333 31.8 84.7 31.9 84.7 32.1C84.7 32.5 84.1 32.9667 82.9 33.5C81.4333 34.1 77.7333 34.9333 71.8 36C70.9333 37.3333 70.0667 38.6667 69.2 40C68.4 41.3333 67.6333 42.6667 66.9 44C64.9667 47.4667 63.3667 50.7333 62.1 53.8C60.8333 56.8667 60.2 59.4333 60.2 61.5C60.2 63.3667 60.7667 64.6667 61.9 65.4C62.3 65.6667 62.5 65.9667 62.5 66.3C62.5 66.9 62.0333 67.1333 61.1 67ZM17.1 3.5H17.2L17.3 3.4H17.4H17.5C17.5667 3.33333 17.6 3.3 17.6 3.3C17.6667 3.3 17.7 3.3 17.7 3.3C17.7667 3.3 17.8 3.3 17.8 3.3C17.8667 3.23333 17.9 3.2 17.9 3.2C17.9667 3.2 18 3.2 18 3.2C18.0667 3.2 18.1 3.2 18.1 3.2C18.1667 3.13333 18.2 3.1 18.2 3.1C18.2667 3.1 18.2667 3.1 18.2 3.1C18.2667 3.1 18.3333 3.1 18.4 3.1H18.2L18.1 3.2H18H17.9L17.8 3.3H17.7C17.7 3.3 17.6667 3.3 17.6 3.3C17.6 3.3 17.5667 3.33333 17.5 3.4C17.5 3.4 17.4667 3.4 17.4 3.4C17.4 3.4 17.3667 3.4 17.3 3.4C17.3 3.46667 17.2667 3.5 17.2 3.5C17.2 3.5 17.1667 3.5 17.1 3.5ZM15.7 4H15.8H15.9L16 3.9C16.0667 3.9 16.1 3.9 16.1 3.9C16.1667 3.83333 16.1667 3.8 16.1 3.8C16.1667 3.8 16.2 3.8 16.2 3.8H16.1V3.9C16.1 3.9 16.0667 3.9 16 3.9C15.9333 3.9 15.9 3.93333 15.9 4C15.9 4 15.8667 4 15.8 4C15.8667 4 15.8667 4 15.8 4C15.7333 4 15.7 4 15.7 4ZM4.5 10.3C5.96667 8.9 7.66667 7.7 9.6 6.7C11.6 5.7 13.6333 4.8 15.7 4C11.8333 5.53333 8.36667 7.43334 5.3 9.7L4.5 10.3ZM4.2 10.5C4.2 10.5 4.16667 10.5333 4.1 10.6C4.1 10.6 4 10.7 3.8 10.9C3.53333 11.0333 3.4 11.1 3.4 11.1C3.4 11.1 3.46667 11.0667 3.6 11C3.73333 10.8667 3.93333 10.7 4.2 10.5L3.8 10.7L4.5 10.3L4.2 10.5Z" fill="black"/>
<path d="M1297.04 325.76C1297.04 319.51 1299.87 315.018 1305.53 312.283C1307.48 311.502 1309.44 311.111 1311.39 311.111C1317.64 311.111 1322.04 314.041 1324.57 319.9C1325.36 321.854 1325.75 323.807 1325.75 325.76C1325.75 332.01 1322.91 336.404 1317.25 338.943C1315.3 339.725 1313.34 340.115 1311.39 340.115C1305.14 340.115 1300.75 337.283 1298.21 331.619C1297.43 329.666 1297.04 327.713 1297.04 325.76ZM1299.67 287.967V131.521H1323.7V287.967H1299.67Z" fill="black"/>
<path d="M1297.04 325.76C1297.04 319.51 1299.87 315.018 1305.53 312.283C1307.48 311.502 1309.44 311.111 1311.39 311.111C1317.64 311.111 1322.04 314.041 1324.57 319.9C1325.36 321.854 1325.75 323.807 1325.75 325.76C1325.75 332.01 1322.91 336.404 1317.25 338.943C1315.3 339.725 1313.34 340.115 1311.39 340.115C1305.14 340.115 1300.75 337.283 1298.21 331.619C1297.43 329.666 1297.04 327.713 1297.04 325.76ZM1299.67 287.967V131.521H1323.7V287.967H1299.67Z" fill="black"/>
<path d="M1172.37 178.104H1198.45L1242.98 302.029L1212.8 392.264H1187.9L1216.61 301.736L1172.37 178.104ZM1237.12 246.072L1263.78 178.104H1289.56L1250.59 280.35H1247.96L1237.12 246.072Z" fill="black"/>
<path d="M1172.37 178.104H1198.45L1242.98 302.029L1212.8 392.264H1187.9L1216.61 301.736L1172.37 178.104ZM1237.12 246.072L1263.78 178.104H1289.56L1250.59 280.35H1247.96L1237.12 246.072Z" fill="black"/>
<path d="M1055.62 293.24V220.877C1055.81 210.33 1060.6 200.564 1069.97 191.58C1079.15 182.791 1089.89 178.396 1102.2 178.396H1125.34V202.127H1102.49C1094.48 202.127 1087.94 205.74 1082.86 212.967C1080.71 216.287 1079.64 219.412 1079.64 222.342V292.654C1079.64 298.904 1083.16 304.275 1090.19 308.768C1094.29 311.502 1098.49 312.869 1102.79 312.869H1125.34V336.6H1103.08C1085.7 336.6 1072.22 329.08 1062.65 314.041C1057.96 306.619 1055.62 299.686 1055.62 293.24ZM1139.41 336.6L1139.7 129.471H1164.89V336.6H1139.41Z" fill="black"/>
<path d="M1055.62 293.24V220.877C1055.81 210.33 1060.6 200.564 1069.97 191.58C1079.15 182.791 1089.89 178.396 1102.2 178.396H1125.34V202.127H1102.49C1094.48 202.127 1087.94 205.74 1082.86 212.967C1080.71 216.287 1079.64 219.412 1079.64 222.342V292.654C1079.64 298.904 1083.16 304.275 1090.19 308.768C1094.29 311.502 1098.49 312.869 1102.79 312.869H1125.34V336.6H1103.08C1085.7 336.6 1072.22 329.08 1062.65 314.041C1057.96 306.619 1055.62 299.686 1055.62 293.24ZM1139.41 336.6L1139.7 129.471H1164.89V336.6H1139.41Z" fill="black"/>
<path d="M925.387 299.686V285.623C925.387 272.928 930.367 263.65 940.328 257.791C943.453 256.229 955.465 252.518 976.363 246.658C999.605 240.213 1011.23 234.549 1011.23 229.666V224.1C1011.23 219.412 1010.05 215.115 1007.71 211.209C1003.22 203.787 996.383 200.076 987.203 200.076V177.518C1000.68 177.518 1011.91 181.814 1020.89 190.408C1030.46 199.783 1035.25 210.721 1035.25 223.221V303.494C1035.45 309.549 1038.08 312.771 1043.16 313.162V336.307C1033.39 336.307 1025.48 332.889 1019.43 326.053C1011.62 332.693 1000.88 336.111 987.203 336.307V313.455C988.961 313.455 990.816 313.357 992.77 313.162C1005.07 311.209 1011.23 303.885 1011.23 291.189V257.498C1006.15 260.232 996.383 263.357 981.93 266.873C963.375 271.365 952.926 274.686 950.582 276.834C948.434 278.787 947.262 281.912 947.066 286.209V294.119C947.262 306.619 955.855 313.064 972.848 313.455V336.307C960.738 336.307 950.191 333.182 941.207 326.932C930.66 319.51 925.387 310.428 925.387 299.686ZM927.438 217.361C927.438 207.986 931.148 199.588 938.57 192.166C948.141 182.4 959.664 177.518 973.141 177.518V200.369C969.43 200.369 965.914 201.15 962.594 202.713C953.609 207.01 949.117 214.627 949.117 225.564L927.438 217.361Z" fill="black"/>
<path d="M925.387 299.686V285.623C925.387 272.928 930.367 263.65 940.328 257.791C943.453 256.229 955.465 252.518 976.363 246.658C999.605 240.213 1011.23 234.549 1011.23 229.666V224.1C1011.23 219.412 1010.05 215.115 1007.71 211.209C1003.22 203.787 996.383 200.076 987.203 200.076V177.518C1000.68 177.518 1011.91 181.814 1020.89 190.408C1030.46 199.783 1035.25 210.721 1035.25 223.221V303.494C1035.45 309.549 1038.08 312.771 1043.16 313.162V336.307C1033.39 336.307 1025.48 332.889 1019.43 326.053C1011.62 332.693 1000.88 336.111 987.203 336.307V313.455C988.961 313.455 990.816 313.357 992.77 313.162C1005.07 311.209 1011.23 303.885 1011.23 291.189V257.498C1006.15 260.232 996.383 263.357 981.93 266.873C963.375 271.365 952.926 274.686 950.582 276.834C948.434 278.787 947.262 281.912 947.066 286.209V294.119C947.262 306.619 955.855 313.064 972.848 313.455V336.307C960.738 336.307 950.191 333.182 941.207 326.932C930.66 319.51 925.387 310.428 925.387 299.686ZM927.438 217.361C927.438 207.986 931.148 199.588 938.57 192.166C948.141 182.4 959.664 177.518 973.141 177.518V200.369C969.43 200.369 965.914 201.15 962.594 202.713C953.609 207.01 949.117 214.627 949.117 225.564L927.438 217.361Z" fill="black"/>
<path d="M799.551 337.479V129.764H822.695V190.994C829.922 184.549 838.809 181.229 849.355 181.033V203.885C840.566 203.885 833.145 207.791 827.09 215.604C824.355 219.314 822.988 222.732 822.988 225.857V337.479H799.551ZM863.125 203.885V181.033C881.289 181.033 894.961 187.576 904.141 200.662C909.023 207.693 911.465 215.213 911.465 223.221V337.479H888.027V225.857C888.027 218.436 884.707 212.479 878.066 207.986C873.77 205.252 868.789 203.885 863.125 203.885Z" fill="black"/>
<path d="M799.551 337.479V129.764H822.695V190.994C829.922 184.549 838.809 181.229 849.355 181.033V203.885C840.566 203.885 833.145 207.791 827.09 215.604C824.355 219.314 822.988 222.732 822.988 225.857V337.479H799.551ZM863.125 203.885V181.033C881.289 181.033 894.961 187.576 904.141 200.662C909.023 207.693 911.465 215.213 911.465 223.221V337.479H888.027V225.857C888.027 218.436 884.707 212.479 878.066 207.986C873.77 205.252 868.789 203.885 863.125 203.885Z" fill="black"/>
<path d="M666.098 299.686V285.623C666.098 272.928 671.078 263.65 681.039 257.791C684.164 256.229 696.176 252.518 717.074 246.658C740.316 240.213 751.938 234.549 751.938 229.666V224.1C751.938 219.412 750.766 215.115 748.422 211.209C743.93 203.787 737.094 200.076 727.914 200.076V177.518C741.391 177.518 752.621 181.814 761.605 190.408C771.176 199.783 775.961 210.721 775.961 223.221V303.494C776.156 309.549 778.793 312.771 783.871 313.162V336.307C774.105 336.307 766.195 332.889 760.141 326.053C752.328 332.693 741.586 336.111 727.914 336.307V313.455C729.672 313.455 731.527 313.357 733.48 313.162C745.785 311.209 751.938 303.885 751.938 291.189V257.498C746.859 260.232 737.094 263.357 722.641 266.873C704.086 271.365 693.637 274.686 691.293 276.834C689.145 278.787 687.973 281.912 687.777 286.209V294.119C687.973 306.619 696.566 313.064 713.559 313.455V336.307C701.449 336.307 690.902 333.182 681.918 326.932C671.371 319.51 666.098 310.428 666.098 299.686ZM668.148 217.361C668.148 207.986 671.859 199.588 679.281 192.166C688.852 182.4 700.375 177.518 713.852 177.518V200.369C710.141 200.369 706.625 201.15 703.305 202.713C694.32 207.01 689.828 214.627 689.828 225.564L668.148 217.361Z" fill="black"/>
<path d="M666.098 299.686V285.623C666.098 272.928 671.078 263.65 681.039 257.791C684.164 256.229 696.176 252.518 717.074 246.658C740.316 240.213 751.938 234.549 751.938 229.666V224.1C751.938 219.412 750.766 215.115 748.422 211.209C743.93 203.787 737.094 200.076 727.914 200.076V177.518C741.391 177.518 752.621 181.814 761.605 190.408C771.176 199.783 775.961 210.721 775.961 223.221V303.494C776.156 309.549 778.793 312.771 783.871 313.162V336.307C774.105 336.307 766.195 332.889 760.141 326.053C752.328 332.693 741.586 336.111 727.914 336.307V313.455C729.672 313.455 731.527 313.357 733.48 313.162C745.785 311.209 751.938 303.885 751.938 291.189V257.498C746.859 260.232 737.094 263.357 722.641 266.873C704.086 271.365 693.637 274.686 691.293 276.834C689.145 278.787 687.973 281.912 687.777 286.209V294.119C687.973 306.619 696.566 313.064 713.559 313.455V336.307C701.449 336.307 690.902 333.182 681.918 326.932C671.371 319.51 666.098 310.428 666.098 299.686ZM668.148 217.361C668.148 207.986 671.859 199.588 679.281 192.166C688.852 182.4 700.375 177.518 713.852 177.518V200.369C710.141 200.369 706.625 201.15 703.305 202.713C694.32 207.01 689.828 214.627 689.828 225.564L668.148 217.361Z" fill="black"/>
<path d="M470.828 336.6V190.115H473.465L496.316 245.779V336.6H470.828ZM470.828 147.635V131.521H491.629L559.012 294.705L607.059 186.014H609.988V242.85L568.68 336.6H549.344L470.828 147.635ZM624.637 336.6V131.521H650.125V336.6H624.637Z" fill="black"/>
<path d="M470.828 336.6V190.115H473.465L496.316 245.779V336.6H470.828ZM470.828 147.635V131.521H491.629L559.012 294.705L607.059 186.014H609.988V242.85L568.68 336.6H549.344L470.828 147.635ZM624.637 336.6V131.521H650.125V336.6H624.637Z" fill="black"/>
<path d="M197.77 336.6V220.877C197.77 209.939 201.871 200.174 210.074 191.58C219.254 182.205 230.875 177.518 244.938 177.518V201.541C234.391 201.541 227.457 206.131 224.137 215.311C223.16 218.24 222.672 221.17 222.672 224.1V336.6H197.77ZM258.121 201.541V177.518C272.965 177.908 284.684 183.084 293.277 193.045C303.043 183.084 314.762 177.908 328.434 177.518V201.541C317.887 201.541 310.855 206.131 307.34 215.311C306.363 218.045 305.875 220.975 305.875 224.1V336.6H280.973V224.1C280.973 214.139 276.773 207.303 268.375 203.592C265.25 202.225 261.832 201.541 258.121 201.541ZM341.617 201.541V177.518C360.172 177.518 373.941 185.135 382.926 200.369C387.027 207.4 389.078 214.236 389.078 220.877V336.6H364.176V224.1C364.176 213.357 359.684 206.326 350.699 203.006C347.965 202.029 344.938 201.541 341.617 201.541Z" fill="black"/>
<path d="M197.77 336.6V220.877C197.77 209.939 201.871 200.174 210.074 191.58C219.254 182.205 230.875 177.518 244.938 177.518V201.541C234.391 201.541 227.457 206.131 224.137 215.311C223.16 218.24 222.672 221.17 222.672 224.1V336.6H197.77ZM258.121 201.541V177.518C272.965 177.908 284.684 183.084 293.277 193.045C303.043 183.084 314.762 177.908 328.434 177.518V201.541C317.887 201.541 310.855 206.131 307.34 215.311C306.363 218.045 305.875 220.975 305.875 224.1V336.6H280.973V224.1C280.973 214.139 276.773 207.303 268.375 203.592C265.25 202.225 261.832 201.541 258.121 201.541ZM341.617 201.541V177.518C360.172 177.518 373.941 185.135 382.926 200.369C387.027 207.4 389.078 214.236 389.078 220.877V336.6H364.176V224.1C364.176 213.357 359.684 206.326 350.699 203.006C347.965 202.029 344.938 201.541 341.617 201.541Z" fill="black"/>
<path d="M158.652 200.369V120.975H182.383V200.369H158.652Z" fill="black"/>
<path d="M158.652 200.369V120.975H182.383V200.369H158.652Z" fill="black"/>
<path d="M116.605 336.6V131.521H142.094V336.6H116.605Z" fill="black"/>
<path d="M116.605 336.6V131.521H142.094V336.6H116.605Z" fill="black"/>
</svg>
