<svg width="872" height="279" viewBox="0 0 872 279" fill="none" xmlns="http://www.w3.org/2000/svg">
<path d="M826.818 276.581C826.53 276.581 826.098 276.437 825.522 276.149C824.946 275.909 824.418 275.573 823.938 275.141C823.506 274.709 823.29 274.301 823.29 273.917C823.29 273.677 823.41 273.365 823.65 272.981L823.722 272.837C823.05 271.925 822.666 271.229 822.57 270.749C823.146 268.637 824.082 266.501 825.378 264.341C826.674 262.133 828.066 260.021 829.554 258.005C828.786 258.773 828.066 259.565 827.394 260.381C826.77 261.149 826.218 261.773 825.738 262.253C826.554 261.005 827.61 259.685 828.906 258.293C830.202 256.901 831.378 255.605 832.434 254.405C831.954 254.981 831.474 255.557 830.994 256.133C830.514 256.709 830.034 257.333 829.554 258.005C829.842 257.717 830.106 257.429 830.346 257.141C830.634 256.853 830.922 256.589 831.21 256.349C831.498 256.061 831.954 255.581 832.578 254.909C833.25 254.237 833.97 253.493 834.738 252.677C835.554 251.861 836.298 251.117 836.97 250.445C837.69 249.773 838.242 249.317 838.626 249.077C839.25 248.645 839.394 248.429 839.058 248.429C838.818 248.429 838.41 248.669 837.834 249.149C837.306 249.629 836.778 250.133 836.25 250.661C835.77 251.189 835.458 251.525 835.314 251.669L832.434 254.405C833.826 252.821 835.122 251.405 836.322 250.157C837.57 248.861 838.602 247.829 839.418 247.061C840.426 247.109 841.53 247.373 842.73 247.853C843.93 248.285 844.962 248.933 845.826 249.797C847.314 251.189 848.202 252.653 848.49 254.189C850.17 251.837 851.874 249.461 853.602 247.061C855.378 244.613 857.058 242.309 858.642 240.149C860.274 237.989 861.69 236.117 862.89 234.533C864.09 232.901 864.954 231.701 865.482 230.933C865.338 230.693 865.194 230.477 865.05 230.285C864.906 230.093 864.834 229.925 864.834 229.781C864.834 229.493 865.242 229.373 866.058 229.421C866.73 229.469 867.498 229.757 868.362 230.285C869.274 230.813 870.042 231.413 870.666 232.085C871.29 232.709 871.506 233.285 871.314 233.813C870.738 234.389 869.802 235.397 868.506 236.837C867.21 238.277 865.674 239.981 863.898 241.949C862.17 243.917 860.346 246.029 858.426 248.285C856.506 250.493 854.634 252.677 852.81 254.837C852.522 255.173 852.042 255.821 851.37 256.781C850.698 257.741 849.93 258.893 849.066 260.237C848.202 261.533 847.362 262.925 846.546 264.413C845.778 265.853 845.13 267.269 844.602 268.661C844.074 270.005 843.81 271.157 843.81 272.117C843.81 273.413 844.266 274.181 845.178 274.421C845.802 274.613 846.114 274.805 846.114 274.997C846.114 275.237 845.778 275.357 845.106 275.357C844.578 275.357 844.002 275.261 843.378 275.069C842.226 274.733 841.41 274.181 840.93 273.413C840.498 272.597 840.282 271.709 840.282 270.749C840.282 269.309 840.594 267.821 841.218 266.285C841.89 264.701 842.514 263.381 843.09 262.325C841.602 263.717 839.946 265.277 838.122 267.005C836.298 268.685 834.546 270.245 832.866 271.685C832.962 271.685 833.058 271.733 833.154 271.829C833.346 271.925 833.178 272.237 832.65 272.765C832.17 273.245 831.522 273.797 830.706 274.421C829.89 274.997 829.098 275.501 828.33 275.933C827.61 276.365 827.106 276.581 826.818 276.581ZM829.41 270.965C830.082 270.533 831.018 269.885 832.218 269.021C833.418 268.109 834.762 267.077 836.25 265.925C837.786 264.725 839.346 263.477 840.93 262.181C842.514 260.837 843.978 259.565 845.322 258.365C845.13 258.269 845.034 258.053 845.034 257.717C845.034 257.381 845.13 257.021 845.322 256.637C845.754 255.821 846.066 255.101 846.258 254.477C846.45 253.853 846.546 253.301 846.546 252.821C846.546 251.669 846.09 251.093 845.178 251.093C844.458 251.093 843.642 251.453 842.73 252.173C841.914 252.797 840.882 253.757 839.634 255.053C838.386 256.301 837.09 257.717 835.746 259.301C834.45 260.837 833.226 262.373 832.074 263.909C830.97 265.397 830.106 266.741 829.482 267.941C828.906 269.093 828.714 269.933 828.906 270.461L839.778 262.469C839.874 262.373 839.946 262.301 839.994 262.253C840.09 262.205 840.138 262.181 840.138 262.181C840.186 262.181 840.09 262.325 839.85 262.613C839.61 262.853 839.37 263.093 839.13 263.333C838.458 263.861 837.498 264.605 836.25 265.565C835.002 266.477 833.73 267.413 832.434 268.373C831.186 269.285 830.13 270.101 829.266 270.821C829.074 270.965 828.978 271.061 828.978 271.109C829.026 271.157 829.17 271.109 829.41 270.965Z" fill="white"/>
<path d="M826.818 276.581C826.53 276.581 826.098 276.437 825.522 276.149C824.946 275.909 824.418 275.573 823.938 275.141C823.506 274.709 823.29 274.301 823.29 273.917C823.29 273.677 823.41 273.365 823.65 272.981L823.722 272.837C823.05 271.925 822.666 271.229 822.57 270.749C823.146 268.637 824.082 266.501 825.378 264.341C826.674 262.133 828.066 260.021 829.554 258.005C828.786 258.773 828.066 259.565 827.394 260.381C826.77 261.149 826.218 261.773 825.738 262.253C826.554 261.005 827.61 259.685 828.906 258.293C830.202 256.901 831.378 255.605 832.434 254.405C831.954 254.981 831.474 255.557 830.994 256.133C830.514 256.709 830.034 257.333 829.554 258.005C829.842 257.717 830.106 257.429 830.346 257.141C830.634 256.853 830.922 256.589 831.21 256.349C831.498 256.061 831.954 255.581 832.578 254.909C833.25 254.237 833.97 253.493 834.738 252.677C835.554 251.861 836.298 251.117 836.97 250.445C837.69 249.773 838.242 249.317 838.626 249.077C839.25 248.645 839.394 248.429 839.058 248.429C838.818 248.429 838.41 248.669 837.834 249.149C837.306 249.629 836.778 250.133 836.25 250.661C835.77 251.189 835.458 251.525 835.314 251.669L832.434 254.405C833.826 252.821 835.122 251.405 836.322 250.157C837.57 248.861 838.602 247.829 839.418 247.061C840.426 247.109 841.53 247.373 842.73 247.853C843.93 248.285 844.962 248.933 845.826 249.797C847.314 251.189 848.202 252.653 848.49 254.189C850.17 251.837 851.874 249.461 853.602 247.061C855.378 244.613 857.058 242.309 858.642 240.149C860.274 237.989 861.69 236.117 862.89 234.533C864.09 232.901 864.954 231.701 865.482 230.933C865.338 230.693 865.194 230.477 865.05 230.285C864.906 230.093 864.834 229.925 864.834 229.781C864.834 229.493 865.242 229.373 866.058 229.421C866.73 229.469 867.498 229.757 868.362 230.285C869.274 230.813 870.042 231.413 870.666 232.085C871.29 232.709 871.506 233.285 871.314 233.813C870.738 234.389 869.802 235.397 868.506 236.837C867.21 238.277 865.674 239.981 863.898 241.949C862.17 243.917 860.346 246.029 858.426 248.285C856.506 250.493 854.634 252.677 852.81 254.837C852.522 255.173 852.042 255.821 851.37 256.781C850.698 257.741 849.93 258.893 849.066 260.237C848.202 261.533 847.362 262.925 846.546 264.413C845.778 265.853 845.13 267.269 844.602 268.661C844.074 270.005 843.81 271.157 843.81 272.117C843.81 273.413 844.266 274.181 845.178 274.421C845.802 274.613 846.114 274.805 846.114 274.997C846.114 275.237 845.778 275.357 845.106 275.357C844.578 275.357 844.002 275.261 843.378 275.069C842.226 274.733 841.41 274.181 840.93 273.413C840.498 272.597 840.282 271.709 840.282 270.749C840.282 269.309 840.594 267.821 841.218 266.285C841.89 264.701 842.514 263.381 843.09 262.325C841.602 263.717 839.946 265.277 838.122 267.005C836.298 268.685 834.546 270.245 832.866 271.685C832.962 271.685 833.058 271.733 833.154 271.829C833.346 271.925 833.178 272.237 832.65 272.765C832.17 273.245 831.522 273.797 830.706 274.421C829.89 274.997 829.098 275.501 828.33 275.933C827.61 276.365 827.106 276.581 826.818 276.581ZM829.41 270.965C830.082 270.533 831.018 269.885 832.218 269.021C833.418 268.109 834.762 267.077 836.25 265.925C837.786 264.725 839.346 263.477 840.93 262.181C842.514 260.837 843.978 259.565 845.322 258.365C845.13 258.269 845.034 258.053 845.034 257.717C845.034 257.381 845.13 257.021 845.322 256.637C845.754 255.821 846.066 255.101 846.258 254.477C846.45 253.853 846.546 253.301 846.546 252.821C846.546 251.669 846.09 251.093 845.178 251.093C844.458 251.093 843.642 251.453 842.73 252.173C841.914 252.797 840.882 253.757 839.634 255.053C838.386 256.301 837.09 257.717 835.746 259.301C834.45 260.837 833.226 262.373 832.074 263.909C830.97 265.397 830.106 266.741 829.482 267.941C828.906 269.093 828.714 269.933 828.906 270.461L839.778 262.469C839.874 262.373 839.946 262.301 839.994 262.253C840.09 262.205 840.138 262.181 840.138 262.181C840.186 262.181 840.09 262.325 839.85 262.613C839.61 262.853 839.37 263.093 839.13 263.333C838.458 263.861 837.498 264.605 836.25 265.565C835.002 266.477 833.73 267.413 832.434 268.373C831.186 269.285 830.13 270.101 829.266 270.821C829.074 270.965 828.978 271.061 828.978 271.109C829.026 271.157 829.17 271.109 829.41 270.965Z" fill="white"/>
<path d="M809.446 274.925C808.39 274.925 807.262 274.517 806.062 273.701C804.862 272.885 803.83 271.925 802.966 270.821C802.15 269.717 801.742 268.709 801.742 267.797C801.742 266.069 802.246 264.221 803.254 262.253C804.31 260.237 805.654 258.269 807.286 256.349C808.966 254.429 810.742 252.725 812.614 251.237C814.486 249.749 816.286 248.669 818.014 247.997C818.494 247.805 818.926 247.685 819.31 247.637C819.694 247.589 819.982 247.565 820.174 247.565C820.75 247.565 821.422 247.973 822.19 248.789C822.958 249.557 823.654 250.397 824.278 251.309C824.902 252.221 825.262 252.917 825.358 253.397C825.358 254.165 824.902 255.101 823.99 256.205C823.126 257.261 821.974 258.365 820.534 259.517C819.094 260.621 817.534 261.653 815.854 262.613C814.222 263.573 812.638 264.341 811.102 264.917C809.566 265.445 808.246 265.685 807.142 265.637C806.374 267.029 805.99 268.181 805.99 269.093C805.99 269.573 806.11 270.005 806.35 270.389C806.59 270.725 807.07 270.869 807.79 270.821C808.942 270.437 810.382 269.741 812.11 268.733C813.838 267.725 815.686 266.597 817.654 265.349C819.67 264.053 821.638 262.805 823.558 261.605C825.526 260.357 827.278 259.325 828.814 258.509C829.63 258.077 830.23 257.861 830.614 257.861C830.95 257.861 831.118 257.981 831.118 258.221C831.118 258.413 830.902 258.725 830.47 259.157C830.086 259.589 829.486 260.021 828.67 260.453C828.238 260.693 827.758 260.981 827.23 261.317C826.702 261.653 826.15 262.037 825.574 262.469C824.23 263.429 822.79 264.533 821.254 265.781C819.766 267.029 818.254 268.277 816.718 269.525C815.23 270.773 813.838 271.877 812.542 272.837C811.294 273.797 810.262 274.493 809.446 274.925ZM808.654 263.261C810.094 262.733 811.63 261.989 813.262 261.029C814.894 260.069 816.43 259.061 817.87 258.005C819.31 256.901 820.462 255.917 821.326 255.053L821.686 254.693C821.686 254.597 821.398 254.765 820.822 255.197L814.774 259.661C814.726 259.709 814.654 259.733 814.558 259.733C814.51 259.733 814.534 259.685 814.63 259.589C814.726 259.445 814.894 259.301 815.134 259.157C816.094 258.485 817.078 257.741 818.086 256.925C819.094 256.061 820.054 255.245 820.966 254.477C822.118 253.565 822.694 253.013 822.694 252.821C821.59 252.821 820.174 253.349 818.446 254.405C816.718 255.461 814.966 256.781 813.19 258.365C811.462 259.949 809.95 261.581 808.654 263.261Z" fill="white"/>
<path d="M809.446 274.925C808.39 274.925 807.262 274.517 806.062 273.701C804.862 272.885 803.83 271.925 802.966 270.821C802.15 269.717 801.742 268.709 801.742 267.797C801.742 266.069 802.246 264.221 803.254 262.253C804.31 260.237 805.654 258.269 807.286 256.349C808.966 254.429 810.742 252.725 812.614 251.237C814.486 249.749 816.286 248.669 818.014 247.997C818.494 247.805 818.926 247.685 819.31 247.637C819.694 247.589 819.982 247.565 820.174 247.565C820.75 247.565 821.422 247.973 822.19 248.789C822.958 249.557 823.654 250.397 824.278 251.309C824.902 252.221 825.262 252.917 825.358 253.397C825.358 254.165 824.902 255.101 823.99 256.205C823.126 257.261 821.974 258.365 820.534 259.517C819.094 260.621 817.534 261.653 815.854 262.613C814.222 263.573 812.638 264.341 811.102 264.917C809.566 265.445 808.246 265.685 807.142 265.637C806.374 267.029 805.99 268.181 805.99 269.093C805.99 269.573 806.11 270.005 806.35 270.389C806.59 270.725 807.07 270.869 807.79 270.821C808.942 270.437 810.382 269.741 812.11 268.733C813.838 267.725 815.686 266.597 817.654 265.349C819.67 264.053 821.638 262.805 823.558 261.605C825.526 260.357 827.278 259.325 828.814 258.509C829.63 258.077 830.23 257.861 830.614 257.861C830.95 257.861 831.118 257.981 831.118 258.221C831.118 258.413 830.902 258.725 830.47 259.157C830.086 259.589 829.486 260.021 828.67 260.453C828.238 260.693 827.758 260.981 827.23 261.317C826.702 261.653 826.15 262.037 825.574 262.469C824.23 263.429 822.79 264.533 821.254 265.781C819.766 267.029 818.254 268.277 816.718 269.525C815.23 270.773 813.838 271.877 812.542 272.837C811.294 273.797 810.262 274.493 809.446 274.925ZM808.654 263.261C810.094 262.733 811.63 261.989 813.262 261.029C814.894 260.069 816.43 259.061 817.87 258.005C819.31 256.901 820.462 255.917 821.326 255.053L821.686 254.693C821.686 254.597 821.398 254.765 820.822 255.197L814.774 259.661C814.726 259.709 814.654 259.733 814.558 259.733C814.51 259.733 814.534 259.685 814.63 259.589C814.726 259.445 814.894 259.301 815.134 259.157C816.094 258.485 817.078 257.741 818.086 256.925C819.094 256.061 820.054 255.245 820.966 254.477C822.118 253.565 822.694 253.013 822.694 252.821C821.59 252.821 820.174 253.349 818.446 254.405C816.718 255.461 814.966 256.781 813.19 258.365C811.462 259.949 809.95 261.581 808.654 263.261Z" fill="white"/>
<path d="M780.164 274.422C779.348 274.326 778.7 273.87 778.22 273.054C777.74 272.19 777.5 271.374 777.5 270.606C777.5 269.982 777.836 268.998 778.508 267.654C779.228 266.31 780.116 264.798 781.172 263.118C782.276 261.39 783.404 259.71 784.556 258.078C785.756 256.398 786.812 254.91 787.724 253.614C788.684 252.318 789.356 251.406 789.74 250.878C789.116 251.454 788.54 252.03 788.012 252.606C787.484 253.182 787.172 253.47 787.076 253.47C787.028 253.47 787.268 253.038 787.796 252.174C788.372 251.262 789.476 249.63 791.108 247.278C791.588 247.278 792.164 247.542 792.836 248.07C793.508 248.598 794.108 249.198 794.636 249.87C795.164 250.542 795.428 251.118 795.428 251.598C794.9 252.462 794.06 253.566 792.908 254.91C791.804 256.206 790.628 257.55 789.38 258.942C788.18 260.334 787.1 261.606 786.14 262.758C786.284 262.614 786.86 262.11 787.868 261.246C788.924 260.382 790.22 259.302 791.756 258.006C793.292 256.71 794.924 255.342 796.652 253.902C798.428 252.462 800.108 251.118 801.692 249.87C803.276 248.574 804.62 247.542 805.724 246.774C806.876 245.958 807.596 245.55 807.884 245.55C808.172 245.55 808.58 245.838 809.108 246.414C809.684 246.942 810.212 247.542 810.692 248.214C811.172 248.886 811.412 249.438 811.412 249.87C811.412 249.918 811.052 250.326 810.332 251.094C809.66 251.862 808.796 252.846 807.74 254.046C806.732 255.198 805.724 256.422 804.716 257.718C803.708 258.966 802.844 260.142 802.124 261.246C801.452 262.35 801.14 263.166 801.188 263.694C800.708 263.598 800.3 263.166 799.964 262.398C799.628 261.582 799.46 260.67 799.46 259.662C799.46 259.086 799.628 258.39 799.964 257.574C800.348 256.758 800.756 255.966 801.188 255.198C801.668 254.43 802.076 253.758 802.412 253.182C802.796 252.606 802.988 252.294 802.988 252.246C802.7 252.582 802.292 253.134 801.764 253.902C801.284 254.67 800.804 255.438 800.324 256.206C799.892 256.926 799.604 257.454 799.46 257.79C799.604 257.214 800.012 256.278 800.684 254.982C801.356 253.686 802.244 252.39 803.348 251.094C802.82 251.574 801.908 252.39 800.612 253.542C799.364 254.646 797.924 255.966 796.292 257.502C794.66 259.038 792.956 260.646 791.18 262.326C789.452 263.958 787.796 265.566 786.212 267.15C784.628 268.734 783.284 270.174 782.18 271.47C781.124 272.718 780.452 273.702 780.164 274.422Z" fill="white"/>
<path d="M780.164 274.422C779.348 274.326 778.7 273.87 778.22 273.054C777.74 272.19 777.5 271.374 777.5 270.606C777.5 269.982 777.836 268.998 778.508 267.654C779.228 266.31 780.116 264.798 781.172 263.118C782.276 261.39 783.404 259.71 784.556 258.078C785.756 256.398 786.812 254.91 787.724 253.614C788.684 252.318 789.356 251.406 789.74 250.878C789.116 251.454 788.54 252.03 788.012 252.606C787.484 253.182 787.172 253.47 787.076 253.47C787.028 253.47 787.268 253.038 787.796 252.174C788.372 251.262 789.476 249.63 791.108 247.278C791.588 247.278 792.164 247.542 792.836 248.07C793.508 248.598 794.108 249.198 794.636 249.87C795.164 250.542 795.428 251.118 795.428 251.598C794.9 252.462 794.06 253.566 792.908 254.91C791.804 256.206 790.628 257.55 789.38 258.942C788.18 260.334 787.1 261.606 786.14 262.758C786.284 262.614 786.86 262.11 787.868 261.246C788.924 260.382 790.22 259.302 791.756 258.006C793.292 256.71 794.924 255.342 796.652 253.902C798.428 252.462 800.108 251.118 801.692 249.87C803.276 248.574 804.62 247.542 805.724 246.774C806.876 245.958 807.596 245.55 807.884 245.55C808.172 245.55 808.58 245.838 809.108 246.414C809.684 246.942 810.212 247.542 810.692 248.214C811.172 248.886 811.412 249.438 811.412 249.87C811.412 249.918 811.052 250.326 810.332 251.094C809.66 251.862 808.796 252.846 807.74 254.046C806.732 255.198 805.724 256.422 804.716 257.718C803.708 258.966 802.844 260.142 802.124 261.246C801.452 262.35 801.14 263.166 801.188 263.694C800.708 263.598 800.3 263.166 799.964 262.398C799.628 261.582 799.46 260.67 799.46 259.662C799.46 259.086 799.628 258.39 799.964 257.574C800.348 256.758 800.756 255.966 801.188 255.198C801.668 254.43 802.076 253.758 802.412 253.182C802.796 252.606 802.988 252.294 802.988 252.246C802.7 252.582 802.292 253.134 801.764 253.902C801.284 254.67 800.804 255.438 800.324 256.206C799.892 256.926 799.604 257.454 799.46 257.79C799.604 257.214 800.012 256.278 800.684 254.982C801.356 253.686 802.244 252.39 803.348 251.094C802.82 251.574 801.908 252.39 800.612 253.542C799.364 254.646 797.924 255.966 796.292 257.502C794.66 259.038 792.956 260.646 791.18 262.326C789.452 263.958 787.796 265.566 786.212 267.15C784.628 268.734 783.284 270.174 782.18 271.47C781.124 272.718 780.452 273.702 780.164 274.422Z" fill="white"/>
<path d="M765.186 275.286C764.274 274.71 763.482 274.014 762.81 273.198C762.138 272.334 761.874 271.59 762.018 270.966C762.114 270.486 762.426 269.742 762.954 268.734C763.53 267.726 764.202 266.598 764.97 265.35C765.738 264.102 766.506 262.83 767.274 261.534C768.09 260.238 768.811 259.086 769.435 258.078C769.531 257.934 769.387 258.126 769.003 258.654C768.667 259.134 768.21 259.782 767.634 260.598C767.106 261.366 766.578 262.158 766.05 262.974C765.57 263.742 765.21 264.318 764.97 264.702C764.97 264.462 765.163 264.006 765.547 263.334C765.979 262.662 766.458 261.942 766.986 261.174C767.514 260.358 768.018 259.59 768.498 258.87C768.978 258.15 769.314 257.646 769.506 257.358C768.21 258.798 766.722 260.43 765.042 262.254C763.362 264.03 761.683 265.782 760.003 267.51C758.371 269.238 756.906 270.75 755.61 272.046C754.362 273.342 753.522 274.206 753.09 274.638C751.794 274.206 750.882 273.534 750.354 272.622C749.826 271.71 749.562 270.822 749.562 269.958C749.562 269.478 749.635 269.022 749.779 268.59C750.307 267.486 751.026 266.118 751.938 264.486C752.898 262.806 753.906 261.102 754.962 259.374C756.018 257.646 757.002 256.038 757.914 254.55C758.826 253.014 759.523 251.838 760.003 251.022C759.955 250.686 759.786 250.278 759.498 249.798C759.258 249.318 759.138 248.91 759.138 248.574C759.138 248.19 759.474 247.998 760.146 247.998C760.29 247.998 760.458 247.998 760.65 247.998C760.89 247.998 761.155 248.046 761.443 248.142C761.779 248.19 762.306 248.334 763.026 248.574C763.746 248.814 764.394 249.174 764.97 249.654C765.594 250.086 765.906 250.686 765.906 251.454C765.906 251.982 765.738 252.51 765.402 253.038C764.826 253.71 764.13 254.67 763.314 255.918C762.546 257.166 761.754 258.486 760.938 259.878C760.17 261.27 759.451 262.566 758.779 263.766C758.155 264.918 757.722 265.758 757.482 266.286C757.866 266.046 758.562 265.446 759.57 264.486C760.578 263.526 761.73 262.374 763.026 261.03C764.37 259.686 765.714 258.342 767.058 256.998C768.402 255.606 769.603 254.43 770.659 253.47C770.659 253.278 770.898 252.774 771.378 251.958C771.906 251.094 772.506 250.182 773.178 249.222C773.898 248.262 774.498 247.566 774.978 247.134C775.602 247.374 776.275 247.71 776.995 248.142C777.763 248.526 778.41 248.958 778.938 249.438C779.514 249.87 779.802 250.302 779.802 250.734C779.802 250.926 779.73 251.142 779.586 251.382C778.002 253.59 776.514 255.654 775.122 257.574C773.73 259.446 772.579 261.006 771.667 262.254C770.755 263.502 770.226 264.294 770.082 264.63C770.466 264.294 770.898 263.934 771.378 263.55C772.146 262.83 773.25 262.038 774.69 261.174C776.466 260.022 778.506 258.846 780.81 257.646C783.162 256.398 785.635 255.366 788.227 254.55C788.659 254.406 788.994 254.334 789.234 254.334C789.666 254.334 789.762 254.526 789.522 254.91C789.282 255.246 788.898 255.63 788.37 256.062C787.89 256.494 787.386 256.83 786.858 257.07C784.266 258.366 781.818 259.758 779.514 261.246C777.21 262.734 775.098 264.39 773.178 266.214C771.738 267.558 770.419 269.046 769.219 270.678C768.019 272.262 766.674 273.798 765.186 275.286ZM771.018 263.91C771.018 263.958 771.163 263.934 771.451 263.838C771.739 263.694 771.954 263.574 772.098 263.478C773.106 262.71 774.378 261.894 775.914 261.03C777.498 260.118 779.034 259.278 780.522 258.51C782.01 257.742 783.09 257.214 783.762 256.926C784.146 256.782 784.65 256.542 785.274 256.206C785.946 255.87 786.162 255.75 785.922 255.846C785.202 256.038 784.194 256.422 782.898 256.998C781.65 257.526 780.282 258.174 778.794 258.942C777.354 259.662 775.986 260.406 774.69 261.174C774.066 261.606 773.467 262.038 772.891 262.47C772.363 262.854 771.858 263.214 771.378 263.55C771.282 263.646 771.186 263.742 771.09 263.838L771.018 263.91Z" fill="white"/>
<path d="M765.186 275.286C764.274 274.71 763.482 274.014 762.81 273.198C762.138 272.334 761.874 271.59 762.018 270.966C762.114 270.486 762.426 269.742 762.954 268.734C763.53 267.726 764.202 266.598 764.97 265.35C765.738 264.102 766.506 262.83 767.274 261.534C768.09 260.238 768.811 259.086 769.435 258.078C769.531 257.934 769.387 258.126 769.003 258.654C768.667 259.134 768.21 259.782 767.634 260.598C767.106 261.366 766.578 262.158 766.05 262.974C765.57 263.742 765.21 264.318 764.97 264.702C764.97 264.462 765.163 264.006 765.547 263.334C765.979 262.662 766.458 261.942 766.986 261.174C767.514 260.358 768.018 259.59 768.498 258.87C768.978 258.15 769.314 257.646 769.506 257.358C768.21 258.798 766.722 260.43 765.042 262.254C763.362 264.03 761.683 265.782 760.003 267.51C758.371 269.238 756.906 270.75 755.61 272.046C754.362 273.342 753.522 274.206 753.09 274.638C751.794 274.206 750.882 273.534 750.354 272.622C749.826 271.71 749.562 270.822 749.562 269.958C749.562 269.478 749.635 269.022 749.779 268.59C750.307 267.486 751.026 266.118 751.938 264.486C752.898 262.806 753.906 261.102 754.962 259.374C756.018 257.646 757.002 256.038 757.914 254.55C758.826 253.014 759.523 251.838 760.003 251.022C759.955 250.686 759.786 250.278 759.498 249.798C759.258 249.318 759.138 248.91 759.138 248.574C759.138 248.19 759.474 247.998 760.146 247.998C760.29 247.998 760.458 247.998 760.65 247.998C760.89 247.998 761.155 248.046 761.443 248.142C761.779 248.19 762.306 248.334 763.026 248.574C763.746 248.814 764.394 249.174 764.97 249.654C765.594 250.086 765.906 250.686 765.906 251.454C765.906 251.982 765.738 252.51 765.402 253.038C764.826 253.71 764.13 254.67 763.314 255.918C762.546 257.166 761.754 258.486 760.938 259.878C760.17 261.27 759.451 262.566 758.779 263.766C758.155 264.918 757.722 265.758 757.482 266.286C757.866 266.046 758.562 265.446 759.57 264.486C760.578 263.526 761.73 262.374 763.026 261.03C764.37 259.686 765.714 258.342 767.058 256.998C768.402 255.606 769.603 254.43 770.659 253.47C770.659 253.278 770.898 252.774 771.378 251.958C771.906 251.094 772.506 250.182 773.178 249.222C773.898 248.262 774.498 247.566 774.978 247.134C775.602 247.374 776.275 247.71 776.995 248.142C777.763 248.526 778.41 248.958 778.938 249.438C779.514 249.87 779.802 250.302 779.802 250.734C779.802 250.926 779.73 251.142 779.586 251.382C778.002 253.59 776.514 255.654 775.122 257.574C773.73 259.446 772.579 261.006 771.667 262.254C770.755 263.502 770.226 264.294 770.082 264.63C770.466 264.294 770.898 263.934 771.378 263.55C772.146 262.83 773.25 262.038 774.69 261.174C776.466 260.022 778.506 258.846 780.81 257.646C783.162 256.398 785.635 255.366 788.227 254.55C788.659 254.406 788.994 254.334 789.234 254.334C789.666 254.334 789.762 254.526 789.522 254.91C789.282 255.246 788.898 255.63 788.37 256.062C787.89 256.494 787.386 256.83 786.858 257.07C784.266 258.366 781.818 259.758 779.514 261.246C777.21 262.734 775.098 264.39 773.178 266.214C771.738 267.558 770.419 269.046 769.219 270.678C768.019 272.262 766.674 273.798 765.186 275.286ZM771.018 263.91C771.018 263.958 771.163 263.934 771.451 263.838C771.739 263.694 771.954 263.574 772.098 263.478C773.106 262.71 774.378 261.894 775.914 261.03C777.498 260.118 779.034 259.278 780.522 258.51C782.01 257.742 783.09 257.214 783.762 256.926C784.146 256.782 784.65 256.542 785.274 256.206C785.946 255.87 786.162 255.75 785.922 255.846C785.202 256.038 784.194 256.422 782.898 256.998C781.65 257.526 780.282 258.174 778.794 258.942C777.354 259.662 775.986 260.406 774.69 261.174C774.066 261.606 773.467 262.038 772.891 262.47C772.363 262.854 771.858 263.214 771.378 263.55C771.282 263.646 771.186 263.742 771.09 263.838L771.018 263.91Z" fill="white"/>
<path d="M728.41 278.742C727.354 277.83 726.61 276.966 726.178 276.15C725.794 275.382 725.602 274.638 725.602 273.918C725.602 273.63 725.65 273.366 725.746 273.126C725.794 272.838 725.842 272.55 725.89 272.262C726.13 271.542 726.682 270.318 727.546 268.59C728.458 266.862 729.538 264.894 730.786 262.686C732.082 260.478 733.45 258.246 734.89 255.99C736.33 253.686 737.698 251.622 738.994 249.798C738.562 249.894 738.106 249.966 737.626 250.014C737.194 250.062 736.762 250.086 736.33 250.086C735.13 250.086 734.05 250.014 733.09 249.87C732.178 249.678 731.65 249.558 731.506 249.51C731.026 249.414 730.714 249.102 730.57 248.574C730.474 247.998 730.45 247.422 730.498 246.846C730.354 246.798 730.258 246.726 730.21 246.63C730.162 246.534 730.114 246.462 730.066 246.414C730.066 246.318 730.042 246.222 729.994 246.126C729.994 246.03 729.994 245.934 729.994 245.838C729.994 245.358 730.114 245.046 730.354 244.902C730.642 244.758 730.954 244.686 731.29 244.686C731.674 244.686 732.082 244.734 732.514 244.83C732.994 244.878 733.474 244.902 733.954 244.902C734.77 244.902 735.634 244.83 736.546 244.686C737.458 244.494 737.986 244.254 738.13 243.966C738.274 243.678 738.418 243.534 738.562 243.534C738.658 243.534 738.802 243.798 738.994 244.326C738.994 244.374 738.994 244.422 738.994 244.47C739.042 244.518 739.066 244.59 739.066 244.686C739.066 245.118 738.874 245.574 738.49 246.054H741.586C742.402 244.998 743.29 243.822 744.25 242.526C745.258 241.182 746.242 239.862 747.202 238.566C748.21 237.222 749.098 236.022 749.866 234.966C750.682 233.91 751.282 233.094 751.666 232.518C751.474 232.326 751.378 232.086 751.378 231.798C751.378 231.414 751.474 231.03 751.666 230.646C751.906 230.262 752.026 229.974 752.026 229.782C752.026 229.638 751.978 229.47 751.882 229.278C751.834 229.086 751.81 228.918 751.81 228.774C751.81 228.39 752.026 228.198 752.458 228.198C752.554 228.198 752.794 228.246 753.178 228.342C753.802 228.534 754.594 228.918 755.554 229.494C756.562 230.07 757.426 230.718 758.146 231.438C758.866 232.158 759.082 232.902 758.794 233.67C758.458 234.054 757.858 234.726 756.994 235.686C756.178 236.646 755.242 237.75 754.186 238.998C753.13 240.198 752.074 241.446 751.018 242.742C750.01 243.99 749.098 245.142 748.282 246.198C749.578 246.102 750.898 246.03 752.242 245.982C753.634 245.934 754.858 245.886 755.914 245.838C757.018 245.79 757.738 245.766 758.074 245.766C758.938 245.766 759.37 245.886 759.37 246.126C759.37 246.318 759.178 246.51 758.794 246.702C758.41 246.894 758.002 247.038 757.57 247.134C757.522 247.086 756.85 247.134 755.554 247.278C754.306 247.422 753.058 247.566 751.81 247.71C751.234 247.758 750.49 247.83 749.578 247.926C748.714 247.974 747.874 248.022 747.058 248.07L746.77 248.358C747.826 248.31 749.002 248.262 750.298 248.214C751.642 248.118 752.698 248.07 753.466 248.07C752.65 248.214 751.57 248.334 750.226 248.43C748.882 248.478 747.586 248.598 746.338 248.79C745.378 249.846 744.298 251.166 743.098 252.75C741.946 254.286 740.722 255.942 739.426 257.718C738.178 259.446 736.978 261.15 735.826 262.83C734.674 264.462 733.642 265.926 732.73 267.222C731.818 268.518 731.122 269.478 730.642 270.102C731.314 269.862 732.106 269.526 733.018 269.094C733.93 268.614 734.842 268.11 735.754 267.582C737.866 266.19 740.122 264.678 742.522 263.046C744.97 261.414 747.106 259.998 748.93 258.798C750.082 258.078 751.21 257.31 752.314 256.494C753.466 255.63 754.57 254.742 755.626 253.83C755.722 253.734 755.77 253.734 755.77 253.83C755.818 253.926 755.794 254.022 755.698 254.118L752.962 256.566C753.01 256.758 753.034 256.95 753.034 257.142C753.034 257.286 753.034 257.454 753.034 257.646C753.034 258.078 752.962 258.486 752.818 258.87C752.722 259.254 752.506 259.566 752.17 259.806C751.354 260.334 750.106 261.198 748.426 262.398C746.794 263.598 744.946 264.99 742.882 266.574C740.818 268.11 738.778 269.67 736.762 271.254C734.794 272.838 733.042 274.302 731.506 275.646C729.97 276.99 728.938 278.022 728.41 278.742ZM729.634 271.542L733.09 269.382L730.138 270.75L729.634 271.542Z" fill="white"/>
<path d="M728.41 278.742C727.354 277.83 726.61 276.966 726.178 276.15C725.794 275.382 725.602 274.638 725.602 273.918C725.602 273.63 725.65 273.366 725.746 273.126C725.794 272.838 725.842 272.55 725.89 272.262C726.13 271.542 726.682 270.318 727.546 268.59C728.458 266.862 729.538 264.894 730.786 262.686C732.082 260.478 733.45 258.246 734.89 255.99C736.33 253.686 737.698 251.622 738.994 249.798C738.562 249.894 738.106 249.966 737.626 250.014C737.194 250.062 736.762 250.086 736.33 250.086C735.13 250.086 734.05 250.014 733.09 249.87C732.178 249.678 731.65 249.558 731.506 249.51C731.026 249.414 730.714 249.102 730.57 248.574C730.474 247.998 730.45 247.422 730.498 246.846C730.354 246.798 730.258 246.726 730.21 246.63C730.162 246.534 730.114 246.462 730.066 246.414C730.066 246.318 730.042 246.222 729.994 246.126C729.994 246.03 729.994 245.934 729.994 245.838C729.994 245.358 730.114 245.046 730.354 244.902C730.642 244.758 730.954 244.686 731.29 244.686C731.674 244.686 732.082 244.734 732.514 244.83C732.994 244.878 733.474 244.902 733.954 244.902C734.77 244.902 735.634 244.83 736.546 244.686C737.458 244.494 737.986 244.254 738.13 243.966C738.274 243.678 738.418 243.534 738.562 243.534C738.658 243.534 738.802 243.798 738.994 244.326C738.994 244.374 738.994 244.422 738.994 244.47C739.042 244.518 739.066 244.59 739.066 244.686C739.066 245.118 738.874 245.574 738.49 246.054H741.586C742.402 244.998 743.29 243.822 744.25 242.526C745.258 241.182 746.242 239.862 747.202 238.566C748.21 237.222 749.098 236.022 749.866 234.966C750.682 233.91 751.282 233.094 751.666 232.518C751.474 232.326 751.378 232.086 751.378 231.798C751.378 231.414 751.474 231.03 751.666 230.646C751.906 230.262 752.026 229.974 752.026 229.782C752.026 229.638 751.978 229.47 751.882 229.278C751.834 229.086 751.81 228.918 751.81 228.774C751.81 228.39 752.026 228.198 752.458 228.198C752.554 228.198 752.794 228.246 753.178 228.342C753.802 228.534 754.594 228.918 755.554 229.494C756.562 230.07 757.426 230.718 758.146 231.438C758.866 232.158 759.082 232.902 758.794 233.67C758.458 234.054 757.858 234.726 756.994 235.686C756.178 236.646 755.242 237.75 754.186 238.998C753.13 240.198 752.074 241.446 751.018 242.742C750.01 243.99 749.098 245.142 748.282 246.198C749.578 246.102 750.898 246.03 752.242 245.982C753.634 245.934 754.858 245.886 755.914 245.838C757.018 245.79 757.738 245.766 758.074 245.766C758.938 245.766 759.37 245.886 759.37 246.126C759.37 246.318 759.178 246.51 758.794 246.702C758.41 246.894 758.002 247.038 757.57 247.134C757.522 247.086 756.85 247.134 755.554 247.278C754.306 247.422 753.058 247.566 751.81 247.71C751.234 247.758 750.49 247.83 749.578 247.926C748.714 247.974 747.874 248.022 747.058 248.07L746.77 248.358C747.826 248.31 749.002 248.262 750.298 248.214C751.642 248.118 752.698 248.07 753.466 248.07C752.65 248.214 751.57 248.334 750.226 248.43C748.882 248.478 747.586 248.598 746.338 248.79C745.378 249.846 744.298 251.166 743.098 252.75C741.946 254.286 740.722 255.942 739.426 257.718C738.178 259.446 736.978 261.15 735.826 262.83C734.674 264.462 733.642 265.926 732.73 267.222C731.818 268.518 731.122 269.478 730.642 270.102C731.314 269.862 732.106 269.526 733.018 269.094C733.93 268.614 734.842 268.11 735.754 267.582C737.866 266.19 740.122 264.678 742.522 263.046C744.97 261.414 747.106 259.998 748.93 258.798C750.082 258.078 751.21 257.31 752.314 256.494C753.466 255.63 754.57 254.742 755.626 253.83C755.722 253.734 755.77 253.734 755.77 253.83C755.818 253.926 755.794 254.022 755.698 254.118L752.962 256.566C753.01 256.758 753.034 256.95 753.034 257.142C753.034 257.286 753.034 257.454 753.034 257.646C753.034 258.078 752.962 258.486 752.818 258.87C752.722 259.254 752.506 259.566 752.17 259.806C751.354 260.334 750.106 261.198 748.426 262.398C746.794 263.598 744.946 264.99 742.882 266.574C740.818 268.11 738.778 269.67 736.762 271.254C734.794 272.838 733.042 274.302 731.506 275.646C729.97 276.99 728.938 278.022 728.41 278.742ZM729.634 271.542L733.09 269.382L730.138 270.75L729.634 271.542Z" fill="white"/>
<path d="M703.191 275.646C702.903 275.646 702.447 275.31 701.823 274.638C701.247 274.014 700.647 273.318 700.023 272.55C699.447 271.734 699.015 271.134 698.727 270.75C699.159 268.878 699.903 266.934 700.959 264.918C702.063 262.854 703.335 260.838 704.775 258.87C706.215 256.902 707.655 255.078 709.095 253.398C710.583 251.718 711.879 250.302 712.983 249.15C712.167 249.774 711.303 250.59 710.391 251.598C709.479 252.558 708.855 253.206 708.519 253.542C707.943 254.118 707.367 254.694 706.791 255.27C706.215 255.798 705.687 256.326 705.207 256.854C706.647 255.078 708.063 253.446 709.455 251.958C710.895 250.47 711.927 249.486 712.551 249.006C712.695 248.862 712.887 248.694 713.127 248.502C713.415 248.31 713.727 248.19 714.063 248.142L714.639 247.494C715.935 247.542 717.327 247.95 718.815 248.718C720.303 249.438 721.575 250.398 722.631 251.598C723.735 252.75 724.311 254.07 724.359 255.558C724.359 255.75 724.263 255.942 724.071 256.134C723.879 256.278 723.735 256.182 723.639 255.846C723.303 255.126 722.919 254.478 722.487 253.902C722.055 253.326 721.575 252.87 721.047 252.534C720.567 252.246 720.063 252.102 719.535 252.102C718.959 252.102 718.431 252.294 717.951 252.678C716.991 253.398 715.839 254.478 714.495 255.918C713.199 257.31 711.879 258.822 710.535 260.454C709.239 262.086 708.063 263.67 707.007 265.206C705.999 266.742 705.303 268.014 704.919 269.022C705.207 268.686 705.711 268.206 706.431 267.582C707.151 266.958 707.919 266.334 708.735 265.71C709.551 265.038 710.247 264.486 710.823 264.054C711.015 263.91 711.423 263.622 712.047 263.19C712.671 262.758 713.319 262.302 713.991 261.822C714.711 261.342 715.287 260.982 715.719 260.742C715.719 260.838 715.431 261.102 714.855 261.534C714.327 261.966 713.679 262.446 712.911 262.974C712.143 263.502 711.423 263.982 710.751 264.414C710.127 264.846 709.743 265.134 709.599 265.278C709.071 265.758 708.447 266.31 707.727 266.934C707.055 267.558 706.431 268.134 705.855 268.662C705.279 269.19 704.895 269.574 704.703 269.814C704.607 270.006 704.583 270.126 704.631 270.174C704.679 270.222 704.775 270.15 704.919 269.958C705.351 269.334 705.999 268.662 706.863 267.942C707.727 267.222 708.663 266.502 709.671 265.782C710.727 265.014 711.663 264.318 712.479 263.694C713.439 262.974 714.303 262.35 715.071 261.822C715.887 261.246 716.607 260.718 717.231 260.238C717.279 259.23 717.639 258.534 718.311 258.15C719.031 257.766 719.583 257.646 719.967 257.79C720.255 257.886 720.687 258.078 721.263 258.366C721.887 258.606 722.439 258.918 722.919 259.302C723.399 259.638 723.543 260.022 723.351 260.454C723.015 261.222 722.751 262.422 722.559 264.054C722.415 265.638 722.343 267.102 722.343 268.446C722.343 270.366 722.943 271.326 724.143 271.326C724.767 271.326 725.607 270.99 726.663 270.318C727.047 270.078 727.335 269.958 727.527 269.958C727.671 269.958 727.743 270.03 727.743 270.174C727.743 270.366 727.623 270.654 727.383 271.038C727.143 271.374 726.975 271.59 726.879 271.686C726.303 272.31 725.607 272.886 724.791 273.414C724.023 273.894 723.231 274.134 722.415 274.134C722.079 274.134 721.743 274.086 721.407 273.99C721.071 273.894 720.735 273.726 720.399 273.486C719.199 272.67 718.335 271.422 717.807 269.742C717.327 268.062 717.087 266.622 717.087 265.422C717.087 265.134 717.087 264.87 717.087 264.63C717.135 264.39 717.183 264.174 717.231 263.982C716.703 264.414 715.815 265.158 714.567 266.214C713.367 267.222 712.023 268.374 710.535 269.67C709.047 270.918 707.631 272.094 706.287 273.198C704.943 274.302 703.911 275.118 703.191 275.646Z" fill="white"/>
<path d="M703.191 275.646C702.903 275.646 702.447 275.31 701.823 274.638C701.247 274.014 700.647 273.318 700.023 272.55C699.447 271.734 699.015 271.134 698.727 270.75C699.159 268.878 699.903 266.934 700.959 264.918C702.063 262.854 703.335 260.838 704.775 258.87C706.215 256.902 707.655 255.078 709.095 253.398C710.583 251.718 711.879 250.302 712.983 249.15C712.167 249.774 711.303 250.59 710.391 251.598C709.479 252.558 708.855 253.206 708.519 253.542C707.943 254.118 707.367 254.694 706.791 255.27C706.215 255.798 705.687 256.326 705.207 256.854C706.647 255.078 708.063 253.446 709.455 251.958C710.895 250.47 711.927 249.486 712.551 249.006C712.695 248.862 712.887 248.694 713.127 248.502C713.415 248.31 713.727 248.19 714.063 248.142L714.639 247.494C715.935 247.542 717.327 247.95 718.815 248.718C720.303 249.438 721.575 250.398 722.631 251.598C723.735 252.75 724.311 254.07 724.359 255.558C724.359 255.75 724.263 255.942 724.071 256.134C723.879 256.278 723.735 256.182 723.639 255.846C723.303 255.126 722.919 254.478 722.487 253.902C722.055 253.326 721.575 252.87 721.047 252.534C720.567 252.246 720.063 252.102 719.535 252.102C718.959 252.102 718.431 252.294 717.951 252.678C716.991 253.398 715.839 254.478 714.495 255.918C713.199 257.31 711.879 258.822 710.535 260.454C709.239 262.086 708.063 263.67 707.007 265.206C705.999 266.742 705.303 268.014 704.919 269.022C705.207 268.686 705.711 268.206 706.431 267.582C707.151 266.958 707.919 266.334 708.735 265.71C709.551 265.038 710.247 264.486 710.823 264.054C711.015 263.91 711.423 263.622 712.047 263.19C712.671 262.758 713.319 262.302 713.991 261.822C714.711 261.342 715.287 260.982 715.719 260.742C715.719 260.838 715.431 261.102 714.855 261.534C714.327 261.966 713.679 262.446 712.911 262.974C712.143 263.502 711.423 263.982 710.751 264.414C710.127 264.846 709.743 265.134 709.599 265.278C709.071 265.758 708.447 266.31 707.727 266.934C707.055 267.558 706.431 268.134 705.855 268.662C705.279 269.19 704.895 269.574 704.703 269.814C704.607 270.006 704.583 270.126 704.631 270.174C704.679 270.222 704.775 270.15 704.919 269.958C705.351 269.334 705.999 268.662 706.863 267.942C707.727 267.222 708.663 266.502 709.671 265.782C710.727 265.014 711.663 264.318 712.479 263.694C713.439 262.974 714.303 262.35 715.071 261.822C715.887 261.246 716.607 260.718 717.231 260.238C717.279 259.23 717.639 258.534 718.311 258.15C719.031 257.766 719.583 257.646 719.967 257.79C720.255 257.886 720.687 258.078 721.263 258.366C721.887 258.606 722.439 258.918 722.919 259.302C723.399 259.638 723.543 260.022 723.351 260.454C723.015 261.222 722.751 262.422 722.559 264.054C722.415 265.638 722.343 267.102 722.343 268.446C722.343 270.366 722.943 271.326 724.143 271.326C724.767 271.326 725.607 270.99 726.663 270.318C727.047 270.078 727.335 269.958 727.527 269.958C727.671 269.958 727.743 270.03 727.743 270.174C727.743 270.366 727.623 270.654 727.383 271.038C727.143 271.374 726.975 271.59 726.879 271.686C726.303 272.31 725.607 272.886 724.791 273.414C724.023 273.894 723.231 274.134 722.415 274.134C722.079 274.134 721.743 274.086 721.407 273.99C721.071 273.894 720.735 273.726 720.399 273.486C719.199 272.67 718.335 271.422 717.807 269.742C717.327 268.062 717.087 266.622 717.087 265.422C717.087 265.134 717.087 264.87 717.087 264.63C717.135 264.39 717.183 264.174 717.231 263.982C716.703 264.414 715.815 265.158 714.567 266.214C713.367 267.222 712.023 268.374 710.535 269.67C709.047 270.918 707.631 272.094 706.287 273.198C704.943 274.302 703.911 275.118 703.191 275.646Z" fill="white"/>
<path d="M683.196 274.925C682.14 274.925 681.012 274.517 679.812 273.701C678.612 272.885 677.58 271.925 676.716 270.821C675.9 269.717 675.492 268.709 675.492 267.797C675.492 266.069 675.996 264.221 677.004 262.253C678.06 260.237 679.404 258.269 681.036 256.349C682.716 254.429 684.492 252.725 686.364 251.237C688.236 249.749 690.036 248.669 691.764 247.997C692.244 247.805 692.676 247.685 693.06 247.637C693.444 247.589 693.732 247.565 693.924 247.565C694.5 247.565 695.172 247.973 695.94 248.789C696.708 249.557 697.404 250.397 698.028 251.309C698.652 252.221 699.012 252.917 699.108 253.397C699.108 254.165 698.652 255.101 697.74 256.205C696.876 257.261 695.724 258.365 694.284 259.517C692.844 260.621 691.284 261.653 689.604 262.613C687.972 263.573 686.388 264.341 684.852 264.917C683.316 265.445 681.996 265.685 680.892 265.637C680.124 267.029 679.74 268.181 679.74 269.093C679.74 269.573 679.86 270.005 680.1 270.389C680.34 270.725 680.82 270.869 681.54 270.821C682.692 270.437 684.132 269.741 685.86 268.733C687.588 267.725 689.436 266.597 691.404 265.349C693.42 264.053 695.388 262.805 697.308 261.605C699.276 260.357 701.028 259.325 702.564 258.509C703.38 258.077 703.98 257.861 704.364 257.861C704.7 257.861 704.868 257.981 704.868 258.221C704.868 258.413 704.652 258.725 704.22 259.157C703.836 259.589 703.236 260.021 702.42 260.453C701.988 260.693 701.508 260.981 700.98 261.317C700.452 261.653 699.9 262.037 699.324 262.469C697.98 263.429 696.54 264.533 695.004 265.781C693.516 267.029 692.004 268.277 690.468 269.525C688.98 270.773 687.588 271.877 686.292 272.837C685.044 273.797 684.012 274.493 683.196 274.925ZM682.404 263.261C683.844 262.733 685.38 261.989 687.012 261.029C688.644 260.069 690.18 259.061 691.62 258.005C693.06 256.901 694.212 255.917 695.076 255.053L695.436 254.693C695.436 254.597 695.148 254.765 694.572 255.197L688.524 259.661C688.476 259.709 688.404 259.733 688.308 259.733C688.26 259.733 688.284 259.685 688.38 259.589C688.476 259.445 688.644 259.301 688.884 259.157C689.844 258.485 690.828 257.741 691.836 256.925C692.844 256.061 693.804 255.245 694.716 254.477C695.868 253.565 696.444 253.013 696.444 252.821C695.34 252.821 693.924 253.349 692.196 254.405C690.468 255.461 688.716 256.781 686.94 258.365C685.212 259.949 683.7 261.581 682.404 263.261Z" fill="white"/>
<path d="M683.196 274.925C682.14 274.925 681.012 274.517 679.812 273.701C678.612 272.885 677.58 271.925 676.716 270.821C675.9 269.717 675.492 268.709 675.492 267.797C675.492 266.069 675.996 264.221 677.004 262.253C678.06 260.237 679.404 258.269 681.036 256.349C682.716 254.429 684.492 252.725 686.364 251.237C688.236 249.749 690.036 248.669 691.764 247.997C692.244 247.805 692.676 247.685 693.06 247.637C693.444 247.589 693.732 247.565 693.924 247.565C694.5 247.565 695.172 247.973 695.94 248.789C696.708 249.557 697.404 250.397 698.028 251.309C698.652 252.221 699.012 252.917 699.108 253.397C699.108 254.165 698.652 255.101 697.74 256.205C696.876 257.261 695.724 258.365 694.284 259.517C692.844 260.621 691.284 261.653 689.604 262.613C687.972 263.573 686.388 264.341 684.852 264.917C683.316 265.445 681.996 265.685 680.892 265.637C680.124 267.029 679.74 268.181 679.74 269.093C679.74 269.573 679.86 270.005 680.1 270.389C680.34 270.725 680.82 270.869 681.54 270.821C682.692 270.437 684.132 269.741 685.86 268.733C687.588 267.725 689.436 266.597 691.404 265.349C693.42 264.053 695.388 262.805 697.308 261.605C699.276 260.357 701.028 259.325 702.564 258.509C703.38 258.077 703.98 257.861 704.364 257.861C704.7 257.861 704.868 257.981 704.868 258.221C704.868 258.413 704.652 258.725 704.22 259.157C703.836 259.589 703.236 260.021 702.42 260.453C701.988 260.693 701.508 260.981 700.98 261.317C700.452 261.653 699.9 262.037 699.324 262.469C697.98 263.429 696.54 264.533 695.004 265.781C693.516 267.029 692.004 268.277 690.468 269.525C688.98 270.773 687.588 271.877 686.292 272.837C685.044 273.797 684.012 274.493 683.196 274.925ZM682.404 263.261C683.844 262.733 685.38 261.989 687.012 261.029C688.644 260.069 690.18 259.061 691.62 258.005C693.06 256.901 694.212 255.917 695.076 255.053L695.436 254.693C695.436 254.597 695.148 254.765 694.572 255.197L688.524 259.661C688.476 259.709 688.404 259.733 688.308 259.733C688.26 259.733 688.284 259.685 688.38 259.589C688.476 259.445 688.644 259.301 688.884 259.157C689.844 258.485 690.828 257.741 691.836 256.925C692.844 256.061 693.804 255.245 694.716 254.477C695.868 253.565 696.444 253.013 696.444 252.821C695.34 252.821 693.924 253.349 692.196 254.405C690.468 255.461 688.716 256.781 686.94 258.365C685.212 259.949 683.7 261.581 682.404 263.261Z" fill="white"/>
<path d="M655.627 230.79C657.355 230.406 659.131 230.118 660.955 229.926C662.827 229.686 664.723 229.542 666.643 229.494C664.675 229.542 662.731 229.686 660.811 229.926C658.939 230.166 657.211 230.454 655.627 230.79ZM680.035 230.718C678.355 230.382 676.651 230.118 674.923 229.926C673.243 229.686 671.587 229.542 669.955 229.494C671.731 229.542 673.459 229.662 675.139 229.854C676.867 230.046 678.499 230.334 680.035 230.718ZM652.458 275.142C651.306 275.046 650.203 274.47 649.147 273.414C648.091 272.358 647.562 271.038 647.562 269.454C647.562 268.254 647.875 266.934 648.499 265.494C649.123 264.006 649.891 262.518 650.803 261.03C651.763 259.494 652.722 258.102 653.682 256.854C653.154 256.854 652.291 256.926 651.091 257.07C649.891 257.214 648.714 257.358 647.562 257.502C646.459 257.598 645.715 257.67 645.331 257.718C645.235 257.718 645.139 257.742 645.043 257.79C644.995 257.79 644.923 257.79 644.827 257.79C644.251 257.79 643.963 257.622 643.963 257.286C643.963 256.95 644.299 256.566 644.971 256.134C645.691 255.654 646.507 255.342 647.419 255.198L656.203 254.046C657.019 252.99 658.171 251.622 659.659 249.942C661.195 248.262 662.899 246.462 664.771 244.542C666.643 242.574 668.538 240.654 670.458 238.782C672.426 236.91 674.275 235.254 676.003 233.814C675.811 234.006 675.379 234.342 674.707 234.822C674.035 235.254 673.362 235.758 672.69 236.334C672.882 236.094 673.339 235.662 674.059 235.038C674.827 234.414 675.451 233.91 675.931 233.526C673.339 233.526 670.507 233.622 667.435 233.814C664.411 233.958 661.458 234.366 658.578 235.038C658.098 235.134 657.282 235.374 656.13 235.758C654.978 236.142 653.659 236.67 652.171 237.342C650.731 237.966 649.291 238.686 647.851 239.502C646.411 240.27 645.163 241.134 644.107 242.094C643.099 243.054 642.451 244.038 642.163 245.046C642.355 245.43 642.451 245.79 642.451 246.126C642.451 246.798 642.139 247.134 641.515 247.134C640.939 247.134 640.29 246.798 639.57 246.126C638.898 245.406 638.562 244.446 638.562 243.246C638.562 242.622 638.659 242.022 638.851 241.446C639.379 239.862 640.243 238.494 641.443 237.342L641.299 237.414C641.107 237.51 641.035 237.534 641.083 237.486C641.179 237.438 641.323 237.342 641.515 237.198L641.443 237.342C643.603 236.142 645.955 234.966 648.499 233.814C651.091 232.662 653.995 231.702 657.211 230.934C660.427 230.166 664.026 229.782 668.01 229.782C669.834 229.782 671.755 229.878 673.771 230.07C675.787 230.262 677.899 230.574 680.107 231.006C680.347 231.054 680.659 231.102 681.043 231.15C681.475 231.198 681.762 231.222 681.906 231.222H681.979C681.979 231.174 681.427 231.03 680.323 230.79C680.179 230.79 680.083 230.766 680.035 230.718C680.659 230.334 681.163 230.07 681.547 229.926C681.931 229.782 682.291 229.71 682.627 229.71C682.963 229.71 683.538 229.758 684.354 229.854C685.218 229.95 686.035 230.142 686.803 230.43C687.571 230.718 687.979 231.15 688.027 231.726C689.131 231.822 690.259 231.894 691.411 231.942C692.611 231.99 693.81 232.014 695.01 232.014C696.978 232.014 698.899 231.942 700.771 231.798C702.691 231.654 704.419 231.486 705.955 231.294C705.811 232.062 705.355 232.806 704.587 233.526C703.819 234.198 702.571 234.774 700.843 235.254C699.115 235.686 696.762 235.902 693.786 235.902C692.25 235.902 690.499 235.83 688.531 235.686C688.003 235.638 687.283 235.566 686.371 235.47C685.459 235.326 684.739 235.278 684.211 235.326C682.579 236.478 680.755 237.846 678.739 239.43C676.723 240.966 674.683 242.598 672.619 244.326C670.555 246.006 668.635 247.662 666.859 249.294C665.083 250.878 663.643 252.294 662.539 253.542C664.267 253.254 666.379 252.966 668.875 252.678C671.419 252.39 673.986 251.982 676.578 251.454H676.651C676.891 251.454 677.131 251.55 677.371 251.742C677.659 251.934 677.851 252.03 677.947 252.03C678.331 252.03 678.643 252.294 678.883 252.822C679.123 253.35 679.242 253.734 679.242 253.974C679.242 254.166 678.883 254.598 678.163 255.27C677.491 255.894 676.626 256.638 675.57 257.502C674.514 258.366 673.435 259.206 672.331 260.022C671.275 260.838 670.339 261.534 669.523 262.11C668.755 262.638 668.323 262.902 668.227 262.902C668.227 262.662 668.395 262.35 668.731 261.966C669.067 261.534 669.499 261.03 670.027 260.454C671.227 259.11 672.186 257.982 672.906 257.07C673.626 256.11 674.059 255.51 674.203 255.27C673.675 255.846 673.051 256.59 672.331 257.502C671.659 258.366 670.867 259.254 669.955 260.166C670.531 259.494 671.083 258.774 671.611 258.006C672.139 257.238 672.57 256.59 672.906 256.062C673.242 255.534 673.387 255.27 673.339 255.27C672.619 255.318 671.563 255.39 670.171 255.486C668.827 255.534 667.435 255.606 665.995 255.702C664.555 255.798 663.307 255.894 662.251 255.99C661.195 256.086 660.571 256.134 660.379 256.134C660.571 256.182 660.787 256.206 661.027 256.206C661.315 256.206 661.627 256.206 661.963 256.206C662.203 256.206 662.491 256.206 662.827 256.206C663.211 256.206 663.619 256.182 664.051 256.134C663.139 256.326 662.467 256.446 662.035 256.494C661.651 256.494 660.978 256.542 660.018 256.638C657.714 259.278 656.059 261.63 655.051 263.694C654.091 265.758 653.491 267.438 653.251 268.734C653.059 270.03 652.963 270.894 652.963 271.326C652.963 272.094 653.227 272.766 653.755 273.342C654.331 273.87 654.619 274.302 654.619 274.638C654.619 274.782 654.451 274.902 654.115 274.998C653.827 275.094 653.274 275.142 652.458 275.142ZM654.979 230.934C655.123 230.934 655.315 230.886 655.555 230.79H655.627C655.627 230.79 655.603 230.79 655.555 230.79C655.315 230.886 655.147 230.934 655.051 230.934H654.979ZM651.739 231.87C652.267 231.678 652.795 231.51 653.323 231.366C653.899 231.222 654.451 231.078 654.979 230.934L651.739 231.87ZM641.515 237.198C642.859 235.95 644.443 234.894 646.267 234.03C648.091 233.166 649.915 232.446 651.739 231.87C650.011 232.446 648.355 233.166 646.771 234.03C645.235 234.846 643.771 235.734 642.379 236.694L641.515 237.198Z" fill="white"/>
<path d="M655.627 230.79C657.355 230.406 659.131 230.118 660.955 229.926C662.827 229.686 664.723 229.542 666.643 229.494C664.675 229.542 662.731 229.686 660.811 229.926C658.939 230.166 657.211 230.454 655.627 230.79ZM680.035 230.718C678.355 230.382 676.651 230.118 674.923 229.926C673.243 229.686 671.587 229.542 669.955 229.494C671.731 229.542 673.459 229.662 675.139 229.854C676.867 230.046 678.499 230.334 680.035 230.718ZM652.458 275.142C651.306 275.046 650.203 274.47 649.147 273.414C648.091 272.358 647.562 271.038 647.562 269.454C647.562 268.254 647.875 266.934 648.499 265.494C649.123 264.006 649.891 262.518 650.803 261.03C651.763 259.494 652.722 258.102 653.682 256.854C653.154 256.854 652.291 256.926 651.091 257.07C649.891 257.214 648.714 257.358 647.562 257.502C646.459 257.598 645.715 257.67 645.331 257.718C645.235 257.718 645.139 257.742 645.043 257.79C644.995 257.79 644.923 257.79 644.827 257.79C644.251 257.79 643.963 257.622 643.963 257.286C643.963 256.95 644.299 256.566 644.971 256.134C645.691 255.654 646.507 255.342 647.419 255.198L656.203 254.046C657.019 252.99 658.171 251.622 659.659 249.942C661.195 248.262 662.899 246.462 664.771 244.542C666.643 242.574 668.538 240.654 670.458 238.782C672.426 236.91 674.275 235.254 676.003 233.814C675.811 234.006 675.379 234.342 674.707 234.822C674.035 235.254 673.362 235.758 672.69 236.334C672.882 236.094 673.339 235.662 674.059 235.038C674.827 234.414 675.451 233.91 675.931 233.526C673.339 233.526 670.507 233.622 667.435 233.814C664.411 233.958 661.458 234.366 658.578 235.038C658.098 235.134 657.282 235.374 656.13 235.758C654.978 236.142 653.659 236.67 652.171 237.342C650.731 237.966 649.291 238.686 647.851 239.502C646.411 240.27 645.163 241.134 644.107 242.094C643.099 243.054 642.451 244.038 642.163 245.046C642.355 245.43 642.451 245.79 642.451 246.126C642.451 246.798 642.139 247.134 641.515 247.134C640.939 247.134 640.29 246.798 639.57 246.126C638.898 245.406 638.562 244.446 638.562 243.246C638.562 242.622 638.659 242.022 638.851 241.446C639.379 239.862 640.243 238.494 641.443 237.342L641.299 237.414C641.107 237.51 641.035 237.534 641.083 237.486C641.179 237.438 641.323 237.342 641.515 237.198L641.443 237.342C643.603 236.142 645.955 234.966 648.499 233.814C651.091 232.662 653.995 231.702 657.211 230.934C660.427 230.166 664.026 229.782 668.01 229.782C669.834 229.782 671.755 229.878 673.771 230.07C675.787 230.262 677.899 230.574 680.107 231.006C680.347 231.054 680.659 231.102 681.043 231.15C681.475 231.198 681.762 231.222 681.906 231.222H681.979C681.979 231.174 681.427 231.03 680.323 230.79C680.179 230.79 680.083 230.766 680.035 230.718C680.659 230.334 681.163 230.07 681.547 229.926C681.931 229.782 682.291 229.71 682.627 229.71C682.963 229.71 683.538 229.758 684.354 229.854C685.218 229.95 686.035 230.142 686.803 230.43C687.571 230.718 687.979 231.15 688.027 231.726C689.131 231.822 690.259 231.894 691.411 231.942C692.611 231.99 693.81 232.014 695.01 232.014C696.978 232.014 698.899 231.942 700.771 231.798C702.691 231.654 704.419 231.486 705.955 231.294C705.811 232.062 705.355 232.806 704.587 233.526C703.819 234.198 702.571 234.774 700.843 235.254C699.115 235.686 696.762 235.902 693.786 235.902C692.25 235.902 690.499 235.83 688.531 235.686C688.003 235.638 687.283 235.566 686.371 235.47C685.459 235.326 684.739 235.278 684.211 235.326C682.579 236.478 680.755 237.846 678.739 239.43C676.723 240.966 674.683 242.598 672.619 244.326C670.555 246.006 668.635 247.662 666.859 249.294C665.083 250.878 663.643 252.294 662.539 253.542C664.267 253.254 666.379 252.966 668.875 252.678C671.419 252.39 673.986 251.982 676.578 251.454H676.651C676.891 251.454 677.131 251.55 677.371 251.742C677.659 251.934 677.851 252.03 677.947 252.03C678.331 252.03 678.643 252.294 678.883 252.822C679.123 253.35 679.242 253.734 679.242 253.974C679.242 254.166 678.883 254.598 678.163 255.27C677.491 255.894 676.626 256.638 675.57 257.502C674.514 258.366 673.435 259.206 672.331 260.022C671.275 260.838 670.339 261.534 669.523 262.11C668.755 262.638 668.323 262.902 668.227 262.902C668.227 262.662 668.395 262.35 668.731 261.966C669.067 261.534 669.499 261.03 670.027 260.454C671.227 259.11 672.186 257.982 672.906 257.07C673.626 256.11 674.059 255.51 674.203 255.27C673.675 255.846 673.051 256.59 672.331 257.502C671.659 258.366 670.867 259.254 669.955 260.166C670.531 259.494 671.083 258.774 671.611 258.006C672.139 257.238 672.57 256.59 672.906 256.062C673.242 255.534 673.387 255.27 673.339 255.27C672.619 255.318 671.563 255.39 670.171 255.486C668.827 255.534 667.435 255.606 665.995 255.702C664.555 255.798 663.307 255.894 662.251 255.99C661.195 256.086 660.571 256.134 660.379 256.134C660.571 256.182 660.787 256.206 661.027 256.206C661.315 256.206 661.627 256.206 661.963 256.206C662.203 256.206 662.491 256.206 662.827 256.206C663.211 256.206 663.619 256.182 664.051 256.134C663.139 256.326 662.467 256.446 662.035 256.494C661.651 256.494 660.978 256.542 660.018 256.638C657.714 259.278 656.059 261.63 655.051 263.694C654.091 265.758 653.491 267.438 653.251 268.734C653.059 270.03 652.963 270.894 652.963 271.326C652.963 272.094 653.227 272.766 653.755 273.342C654.331 273.87 654.619 274.302 654.619 274.638C654.619 274.782 654.451 274.902 654.115 274.998C653.827 275.094 653.274 275.142 652.458 275.142ZM654.979 230.934C655.123 230.934 655.315 230.886 655.555 230.79H655.627C655.627 230.79 655.603 230.79 655.555 230.79C655.315 230.886 655.147 230.934 655.051 230.934H654.979ZM651.739 231.87C652.267 231.678 652.795 231.51 653.323 231.366C653.899 231.222 654.451 231.078 654.979 230.934L651.739 231.87ZM641.515 237.198C642.859 235.95 644.443 234.894 646.267 234.03C648.091 233.166 649.915 232.446 651.739 231.87C650.011 232.446 648.355 233.166 646.771 234.03C645.235 234.846 643.771 235.734 642.379 236.694L641.515 237.198Z" fill="white"/>
<path d="M734.625 165.82L757.77 161.426C757.77 170.215 762.359 177.148 771.539 182.227C776.031 184.375 780.328 185.547 784.43 185.742V208.887C765.484 208.887 751.324 202.051 741.949 188.379C737.066 181.152 734.625 173.633 734.625 165.82ZM736.09 93.75C736.09 75.9766 744.195 62.793 760.406 54.1992C768.219 50.0977 776.031 48.0469 783.844 48.0469V70.8984C774.859 70.8984 767.926 74.6094 763.043 82.0312C760.504 85.7422 759.234 89.6484 759.234 93.75C759.234 100 764.117 105.078 773.883 108.984C781.305 112.109 795.66 116.211 816.949 121.289C830.23 124.023 839.703 130.566 845.367 140.918C848.297 146.387 849.762 152.539 849.762 159.375C849.762 178.125 842.242 191.992 827.203 200.977C818.414 206.25 808.355 208.887 797.027 208.887V185.742C806.012 185.742 813.531 182.617 819.586 176.367C823.883 171.875 826.031 166.602 826.031 160.547C826.031 152.734 818.316 146.484 802.887 141.797C798.98 140.625 792.73 138.965 784.137 136.816C774.957 134.668 768.316 132.91 764.215 131.543C749.371 125.684 740.387 116.797 737.262 104.883C736.48 101.367 736.09 97.6562 736.09 93.75ZM796.734 71.1914V48.0469C813.531 48.0469 827.105 54.2969 837.457 66.7969C843.902 74.8047 847.125 83.2031 847.125 91.9922L823.98 95.8008C823.98 85.0586 818.121 77.5391 806.402 73.2422C802.887 71.875 799.664 71.1914 796.734 71.1914Z" fill="white"/>
<path d="M734.625 165.82L757.77 161.426C757.77 170.215 762.359 177.148 771.539 182.227C776.031 184.375 780.328 185.547 784.43 185.742V208.887C765.484 208.887 751.324 202.051 741.949 188.379C737.066 181.152 734.625 173.633 734.625 165.82ZM736.09 93.75C736.09 75.9766 744.195 62.793 760.406 54.1992C768.219 50.0977 776.031 48.0469 783.844 48.0469V70.8984C774.859 70.8984 767.926 74.6094 763.043 82.0312C760.504 85.7422 759.234 89.6484 759.234 93.75C759.234 100 764.117 105.078 773.883 108.984C781.305 112.109 795.66 116.211 816.949 121.289C830.23 124.023 839.703 130.566 845.367 140.918C848.297 146.387 849.762 152.539 849.762 159.375C849.762 178.125 842.242 191.992 827.203 200.977C818.414 206.25 808.355 208.887 797.027 208.887V185.742C806.012 185.742 813.531 182.617 819.586 176.367C823.883 171.875 826.031 166.602 826.031 160.547C826.031 152.734 818.316 146.484 802.887 141.797C798.98 140.625 792.73 138.965 784.137 136.816C774.957 134.668 768.316 132.91 764.215 131.543C749.371 125.684 740.387 116.797 737.262 104.883C736.48 101.367 736.09 97.6562 736.09 93.75ZM796.734 71.1914V48.0469C813.531 48.0469 827.105 54.2969 837.457 66.7969C843.902 74.8047 847.125 83.2031 847.125 91.9922L823.98 95.8008C823.98 85.0586 818.121 77.5391 806.402 73.2422C802.887 71.875 799.664 71.1914 796.734 71.1914Z" fill="white"/>
<path d="M655.953 74.4141V50.6836H675.289V0H700.191V50.6836H718.941V74.707H700.191V158.789C700.191 172.656 705.855 180.371 717.184 181.934C719.332 182.324 721.48 182.52 723.629 182.52H727.73L733.297 207.422H722.75C698.726 207.227 683.98 198.242 678.512 180.469C676.558 173.828 675.582 165.625 675.582 155.859L675.289 74.4141H655.953Z" fill="white"/>
<path d="M655.953 74.4141V50.6836H675.289V0H700.191V50.6836H718.941V74.707H700.191V158.789C700.191 172.656 705.855 180.371 717.184 181.934C719.332 182.324 721.48 182.52 723.629 182.52H727.73L733.297 207.422H722.75C698.726 207.227 683.98 198.242 678.512 180.469C676.558 173.828 675.582 165.625 675.582 155.859L675.289 74.4141H655.953Z" fill="white"/>
<path d="M538.617 164.062V92.2852C538.617 85.2539 540.961 78.125 545.648 70.8984C555.023 56.25 569.086 48.9258 587.836 48.9258V72.3633C582.172 72.3633 577.094 73.8281 572.602 76.7578C566.156 81.25 562.934 86.6211 562.934 92.8711V164.062C562.934 166.797 563.715 169.531 565.277 172.266C569.77 180.078 577.289 183.984 587.836 183.984V207.422C572.406 207.422 560.004 202.441 550.629 192.48C542.621 183.887 538.617 174.414 538.617 164.062ZM601.02 72.6562V48.9258C611.176 48.9258 620.355 51.9531 628.559 58.0078C640.277 66.9922 646.137 78.6133 646.137 92.8711L623.285 101.66V94.6289C623.09 91.3086 622.309 88.0859 620.941 84.9609C617.23 76.7578 610.59 72.6562 601.02 72.6562ZM601.02 207.715V183.984C604.145 183.984 607.172 183.496 610.102 182.52C620.062 179.199 625.531 172.07 626.508 161.133L626.801 160.547C626.801 160.156 626.801 159.766 626.801 159.375C626.801 158.789 626.801 158.301 626.801 157.91C626.801 157.52 626.801 157.031 626.801 156.445C626.801 155.859 626.801 155.469 626.801 155.273C626.801 155.078 626.801 154.883 626.801 154.688L649.652 163.184C649.652 173.535 645.551 183.105 637.348 191.895C626.996 202.637 614.887 207.91 601.02 207.715Z" fill="white"/>
<path d="M538.617 164.062V92.2852C538.617 85.2539 540.961 78.125 545.648 70.8984C555.023 56.25 569.086 48.9258 587.836 48.9258V72.3633C582.172 72.3633 577.094 73.8281 572.602 76.7578C566.156 81.25 562.934 86.6211 562.934 92.8711V164.062C562.934 166.797 563.715 169.531 565.277 172.266C569.77 180.078 577.289 183.984 587.836 183.984V207.422C572.406 207.422 560.004 202.441 550.629 192.48C542.621 183.887 538.617 174.414 538.617 164.062ZM601.02 72.6562V48.9258C611.176 48.9258 620.355 51.9531 628.559 58.0078C640.277 66.9922 646.137 78.6133 646.137 92.8711L623.285 101.66V94.6289C623.09 91.3086 622.309 88.0859 620.941 84.9609C617.23 76.7578 610.59 72.6562 601.02 72.6562ZM601.02 207.715V183.984C604.145 183.984 607.172 183.496 610.102 182.52C620.062 179.199 625.531 172.07 626.508 161.133L626.801 160.547C626.801 160.156 626.801 159.766 626.801 159.375C626.801 158.789 626.801 158.301 626.801 157.91C626.801 157.52 626.801 157.031 626.801 156.445C626.801 155.859 626.801 155.469 626.801 155.273C626.801 155.078 626.801 154.883 626.801 154.688L649.652 163.184C649.652 173.535 645.551 183.105 637.348 191.895C626.996 202.637 614.887 207.91 601.02 207.715Z" fill="white"/>
<path d="M407.508 164.062V91.4062C407.703 82.4219 412 73.5352 420.398 64.7461C430.555 54.3945 442.859 49.1211 457.312 48.9258V72.0703C447.938 72.0703 440.613 76.1719 435.34 84.375C433.191 87.8906 432.117 91.1133 432.117 94.043V113.965H497.742V94.043C497.742 85.2539 493.25 78.8086 484.266 74.707C480.164 72.7539 475.965 71.7773 471.668 71.7773V48.9258C485.145 48.9258 497.156 53.7109 507.703 63.2812C516.492 71.6797 520.984 80.957 521.18 91.1133V137.695H432.117V164.062C432.117 169.531 435.242 174.609 441.492 179.297C446.57 182.812 451.941 184.57 457.605 184.57V207.422C439.832 207.422 425.867 200.195 415.711 185.742C410.242 178.125 407.508 170.898 407.508 164.062ZM471.668 207.422V184.277C483.387 184.277 492.176 179.199 498.035 169.043C499.207 166.895 500.086 164.844 500.672 162.891L521.473 170.508C517.957 183.984 509.949 194.141 497.449 200.977C489.441 205.273 480.848 207.422 471.668 207.422Z" fill="white"/>
<path d="M407.508 164.062V91.4062C407.703 82.4219 412 73.5352 420.398 64.7461C430.555 54.3945 442.859 49.1211 457.312 48.9258V72.0703C447.938 72.0703 440.613 76.1719 435.34 84.375C433.191 87.8906 432.117 91.1133 432.117 94.043V113.965H497.742V94.043C497.742 85.2539 493.25 78.8086 484.266 74.707C480.164 72.7539 475.965 71.7773 471.668 71.7773V48.9258C485.145 48.9258 497.156 53.7109 507.703 63.2812C516.492 71.6797 520.984 80.957 521.18 91.1133V137.695H432.117V164.062C432.117 169.531 435.242 174.609 441.492 179.297C446.57 182.812 451.941 184.57 457.605 184.57V207.422C439.832 207.422 425.867 200.195 415.711 185.742C410.242 178.125 407.508 170.898 407.508 164.062ZM471.668 207.422V184.277C483.387 184.277 492.176 179.199 498.035 169.043C499.207 166.895 500.086 164.844 500.672 162.891L521.473 170.508C517.957 183.984 509.949 194.141 497.449 200.977C489.441 205.273 480.848 207.422 471.668 207.422Z" fill="white"/>
<path d="M362.242 53.0273H387.145V218.555C387.145 227.93 383.238 237.207 375.426 246.387C366.051 257.324 354.43 262.891 340.563 263.086H329.43L334.996 239.355H340.856C348.863 238.965 355.113 234.961 359.606 227.344C361.363 224.219 362.242 221.289 362.242 218.555V53.0273ZM360.484 27.2461C360.484 21.1914 363.316 16.8945 368.981 14.3555C370.934 13.5742 372.887 13.1836 374.84 13.1836C381.09 13.1836 385.387 16.1133 387.731 21.9727C388.512 23.5352 388.902 25.293 388.902 27.2461C388.902 33.4961 386.07 37.793 380.406 40.1367C378.649 40.918 376.793 41.3086 374.84 41.3086C368.785 41.3086 364.391 38.5742 361.656 33.1055C360.875 31.1523 360.484 29.1992 360.484 27.2461Z" fill="white"/>
<path d="M362.242 53.0273H387.145V218.555C387.145 227.93 383.238 237.207 375.426 246.387C366.051 257.324 354.43 262.891 340.563 263.086H329.43L334.996 239.355H340.856C348.863 238.965 355.113 234.961 359.606 227.344C361.363 224.219 362.242 221.289 362.242 218.555V53.0273ZM360.484 27.2461C360.484 21.1914 363.316 16.8945 368.981 14.3555C370.934 13.5742 372.887 13.1836 374.84 13.1836C381.09 13.1836 385.387 16.1133 387.731 21.9727C388.512 23.5352 388.902 25.293 388.902 27.2461C388.902 33.4961 386.07 37.793 380.406 40.1367C378.649 40.918 376.793 41.3086 374.84 41.3086C368.785 41.3086 364.391 38.5742 361.656 33.1055C360.875 31.1523 360.484 29.1992 360.484 27.2461Z" fill="white"/>
<path d="M224.977 164.062V91.6992C224.977 82.5195 229.078 73.5352 237.281 64.7461C247.438 54.1992 260.133 48.9258 275.367 48.9258V72.6562C263.844 72.6562 255.836 77.4414 251.344 87.0117C249.977 89.9414 249.293 92.8711 249.293 95.8008V160.254C249.293 167.48 252.613 173.633 259.254 178.711C263.941 182.227 269.312 183.984 275.367 183.984V207.715C256.812 207.715 242.457 200.195 232.301 185.156C227.418 177.734 224.977 170.703 224.977 164.062ZM287.965 207.715V183.984C298.316 183.984 305.738 179.297 310.23 169.922C311.793 166.797 312.574 163.77 312.574 160.84V95.8008C312.574 87.793 309.156 81.4453 302.32 76.7578C298.023 74.0234 293.141 72.6562 287.672 72.6562V48.9258C305.641 48.9258 319.508 56.25 329.273 70.8984C334.156 78.125 336.598 85.0586 336.598 91.6992V164.062C336.598 173.633 332.496 182.91 324.293 191.895C314.723 202.246 302.613 207.52 287.965 207.715Z" fill="white"/>
<path d="M224.977 164.062V91.6992C224.977 82.5195 229.078 73.5352 237.281 64.7461C247.438 54.1992 260.133 48.9258 275.367 48.9258V72.6562C263.844 72.6562 255.836 77.4414 251.344 87.0117C249.977 89.9414 249.293 92.8711 249.293 95.8008V160.254C249.293 167.48 252.613 173.633 259.254 178.711C263.941 182.227 269.312 183.984 275.367 183.984V207.715C256.812 207.715 242.457 200.195 232.301 185.156C227.418 177.734 224.977 170.703 224.977 164.062ZM287.965 207.715V183.984C298.316 183.984 305.738 179.297 310.23 169.922C311.793 166.797 312.574 163.77 312.574 160.84V95.8008C312.574 87.793 309.156 81.4453 302.32 76.7578C298.023 74.0234 293.141 72.6562 287.672 72.6562V48.9258C305.641 48.9258 319.508 56.25 329.273 70.8984C334.156 78.125 336.598 85.0586 336.598 91.6992V164.062C336.598 173.633 332.496 182.91 324.293 191.895C314.723 202.246 302.613 207.52 287.965 207.715Z" fill="white"/>
<path d="M146.312 207.422V48.9258H171.214V70.6055C176.292 62.0117 183.909 55.6641 194.065 51.5625C199.534 49.4141 204.905 48.3398 210.179 48.3398H215.452L209.593 72.3633C198.851 72.5586 189.28 78.3203 180.882 89.6484C174.437 98.6328 171.214 107.91 171.214 117.48V207.422H146.312Z" fill="white"/>
<path d="M146.312 207.422V48.9258H171.214V70.6055C176.292 62.0117 183.909 55.6641 194.065 51.5625C199.534 49.4141 204.905 48.3398 210.179 48.3398H215.452L209.593 72.3633C198.851 72.5586 189.28 78.3203 180.882 89.6484C174.437 98.6328 171.214 107.91 171.214 117.48V207.422H146.312Z" fill="white"/>
<path d="M11.1016 207.422V2.34375H36.5898V207.422H11.1016ZM51.2383 115.723V90.8203H79.0703C98.4062 90.625 108.27 79.8828 108.66 58.5938C108.465 37.8906 98.5039 27.3438 78.7773 26.9531H51.2383V2.34375H82.8789C84.0508 2.34375 85.2227 2.34375 86.3945 2.34375C118.621 4.10156 134.734 22.8516 134.734 58.5938C134.734 69.3359 133.465 78.6133 130.926 86.4258C124.481 105.762 108.465 115.527 82.8789 115.723H51.2383Z" fill="white"/>
<path d="M11.1016 207.422V2.34375H36.5898V207.422H11.1016ZM51.2383 115.723V90.8203H79.0703C98.4062 90.625 108.27 79.8828 108.66 58.5938C108.465 37.8906 98.5039 27.3438 78.7773 26.9531H51.2383V2.34375H82.8789C84.0508 2.34375 85.2227 2.34375 86.3945 2.34375C118.621 4.10156 134.734 22.8516 134.734 58.5938C134.734 69.3359 133.465 78.6133 130.926 86.4258C124.481 105.762 108.465 115.527 82.8789 115.723H51.2383Z" fill="white"/>
</svg>
